<?xml version="1.0" standalone="no"?>
<!DOCTYPE svg PUBLIC "-//W3C//DTD SVG 1.1//EN" "http://www.w3.org/Graphics/SVG/1.1/DTD/svg11.dtd" >
<svg xmlns="http://www.w3.org/2000/svg" xmlns:xlink="http://www.w3.org/1999/xlink" version="1.1">
<metadata>
Created by FontForge 20170731 at Sat Apr  4 18:40:17 2020
 By Aleksey,,,
Copyright 2019 The Recursive Project Authors (github.com/arrowtype/recursive)
</metadata>
<defs>
<font id="Recursive-SansLinearLight" horiz-adv-x="600" >
  <font-face 
    font-family="Recursive Sans Linear Light"
    font-weight="300"
    font-stretch="normal"
    units-per-em="1000"
    panose-1="0 0 0 0 0 0 0 0 0 0"
    ascent="800"
    descent="-200"
    x-height="526"
    cap-height="700"
    bbox="-226.909 -363 2380 1125"
    underline-thickness="45"
    underline-position="-271"
    unicode-range="U+000D-FB04"
  />
<missing-glyph 
d="M0 -250h600v1070h-600v-1070zM525 699v-710h-439q-3 0 -5.5 1.5t-4 4t-1.5 5.5v710h439q4 0 6 -1.5t3.5 -3.5t1.5 -6zM169 169q36 62 72 123.5t72 123.5l72 124t72 123h-10h-322v-579h13q2 14 5.5 27t10 27.5t15.5 30.5zM436 525q-36 -61 -71.5 -122l-71 -122t-71 -122.5
t-71.5 -122.5h10h314v586h-12q-1 -26 -8.5 -52t-18.5 -45z" />
    <glyph glyph-name=".notdef" 
d="M0 -250h600v1070h-600v-1070zM525 699v-710h-439q-3 0 -5.5 1.5t-4 4t-1.5 5.5v710h439q4 0 6 -1.5t3.5 -3.5t1.5 -6zM169 169q36 62 72 123.5t72 123.5l72 124t72 123h-10h-322v-579h13q2 14 5.5 27t10 27.5t15.5 30.5zM436 525q-36 -61 -71.5 -122l-71 -122t-71 -122.5
t-71.5 -122.5h10h314v586h-12q-1 -26 -8.5 -52t-18.5 -45z" />
    <glyph glyph-name=".null" horiz-adv-x="0" 
 />
    <glyph glyph-name="uni000D" unicode="&#xd;" 
 />
    <glyph glyph-name="space" unicode=" " horiz-adv-x="300" 
 />
    <glyph glyph-name="exclam" unicode="!" horiz-adv-x="350" 
d="M198 240h-35q-3 0 -4.5 1t-3.5 2q-1 2 -2.5 8t-3 30t-3.5 76t-6 145v88v55v55h29.5h29.5q4 0 6 -1.5t3.5 -3.5t1.5 -6v-187q-2 -43 -4 -87t-4 -87.5t-4 -87.5zM222 -5h-28h-26.5h-28.5q-3 0 -5.5 1.5t-4 4t-1.5 5.5v89h28.5h26.5h28q4 0 6 -1.5t3.5 -3.5t1.5 -6v-89z" />
    <glyph glyph-name="quotedbl" unicode="&#x22;" 
d="M221 450h-25.5h-26.5q-5 0 -8 3t-3 8l-15 187q-1 18 -2.5 34.5t-2.5 33t-3 34.5h52.5h46.5q5 0 8 -3t2 -10zM441 450h-25.5h-26.5q-5 0 -8 3t-3 8l-23 289h52.5h46.5q5 0 8 -3t2 -10z" />
    <glyph glyph-name="numbersign" unicode="#" 
d="M234 720h20h20q5 0 8 -2t1 -9q-18 -90 -36 -179.5t-36 -179.5t-36 -179.5t-36 -179.5q-1 -7 -5 -9t-9 -2h-19.5h-19.5q18 92 36.5 184.5t37.5 185.5t37.5 185.5t36.5 184.5zM454 720h13.5h13.5h13q5 0 8 -2t1 -9q-18 -90 -36 -179.5t-36 -179.5t-36 -179.5t-36 -179.5
q-1 -7 -5 -9t-9 -2h-12.5h-13h-13.5q18 92 36.5 184.5t37.5 185.5t37.5 185.5t36.5 184.5zM580 450h-509q-5 0 -8 3t-3 8v8v7.5v7.5v8v8h509q2 0 4.5 -0.5t3.5 -2.5q2 -1 2.5 -3.5t0.5 -4.5v-8v-7.5v-7.5v-8v-8zM20 250h509q5 0 8 -3t3 -8v-8v-7.5v-7.5v-8v-8h-509
q-2 0 -4 1l-4 2l-2 4t-1 4v8v8v7.5v7.5v8z" />
    <glyph glyph-name="dollar" unicode="$" 
d="M299 -16q-67 0 -125 18.5t-92 52.5q-1 2 -2 3.5t-1 5.5v23.5v25.5h12q46 -44 94 -61.5t114 -17.5q83 0 130 32.5t47 89.5v37q0 35 -10 57t-35.5 37.5t-70.5 28.5l-98 29q-46 14 -79 30.5t-53.5 36t-30 42.5t-9.5 50v47q0 36 16.5 66.5t47 53t72 34.5t91.5 12
q59 0 110 -17t81 -47q2 -1 2.5 -3t0.5 -5v-24v-26h-12q-41 40 -82.5 56t-99.5 16q-55 0 -95 -14.5t-61.5 -42t-21.5 -65.5v-32q0 -31 11.5 -51.5t40.5 -36t80 -30.5l97 -28q57 -16 91.5 -38.5t50.5 -53t16 -71.5v-54q0 -48 -29 -85.5t-80 -59t-118 -21.5zM329 454
q-7 2 -14 3.5t-13 4.5q-5 0 -8 3t-3 8v63.5v68v60v38.5v32v45v45.5v31.5h17h14.5h17.5q5 0 8 -3t2 -10q-1 -8 -2.5 -40t-4 -77.5t-5 -96.5t-5 -97.5t-4.5 -78.5zM280 260q7 -2 13.5 -4t13.5 -4q6 -1 8.5 -5.5t2.5 -11.5v-31.5v-54.5v-62v-54.5v-31.5v-37.5v-59v-57.5v-33
h-16.5h-16.5h-16q-3 0 -5.5 1.5t-3.5 4.5t-1 7q1 8 2.5 44t4 87.5t5 108.5t5 108.5t4.5 84.5z" />
    <glyph glyph-name="percent" unicode="%" 
d="M178 710q47 0 79.5 -19t49.5 -53t17 -80v-50q0 -45 -17 -79.5t-49.5 -53.5t-79.5 -19q-70 0 -108 42t-38 110v50q0 46 17 80t50 53t79 19zM83 508q0 -27 7 -47t20 -34q12 -12 29 -18t39 -6q47 0 71 28t24 77v50q0 26 -6.5 47t-19.5 34q-24 24 -69 24q-47 0 -71 -27.5
t-24 -77.5v-50zM422 344q47 0 79.5 -19t49.5 -53t17 -80v-50q0 -45 -17 -79.5t-49.5 -53.5t-79.5 -19q-70 0 -108 42t-38 110v50q0 46 17 80t50 53t79 19zM327 142q0 -27 7 -47t20 -34q12 -12 29 -18t39 -6q47 0 71 28t24 77v50q0 26 -6.5 47t-19.5 34q-24 24 -69 24
q-47 0 -71 -27.5t-24 -77.5v-50zM373 405l25.5 51t25 50.5l25 51l25 51l25 51t25.5 50.5h8.5h11.5h11.5h9.5q6 0 8.5 -3.5t-0.5 -9.5q-12 -24 -23.5 -47.5t-23.5 -47.5t-24 -47.5t-24 -47.5t-23.5 -47.5t-23.5 -47.5q-2 -4 -4 -5.5t-6 -1.5h-9.5h-14.5h-14.5h-9.5zM227 296
q-13 -25 -25.5 -50.5l-25 -51l-25 -51l-25 -51t-25 -50.5l-25.5 -51h-8.5h-11.5h-11.5h-9.5q-6 0 -8.5 3.5t0.5 9.5q12 24 23.5 47.5t23.5 47.5t24 47.5t24 47.5t23.5 47.5t23.5 47.5q2 5 4 6t6 1h9.5h14.5h14.5h9.5z" />
    <glyph glyph-name="ampersand" unicode="&#x26;" 
d="M208 438q30 -44 63.5 -93t65.5 -95.5t58.5 -84.5t43.5 -62.5t20 -28.5q14 -18 28.5 -26t34.5 -8h20h20h12v-19.5v-19.5q0 -5 -2.5 -8t-8.5 -3h-22h-22q-24 0 -44 8t-37 23.5t-32 37.5q-7 10 -26 37.5t-45 64.5t-55 79t-56.5 81t-48.5 70q-28 42 -43.5 67.5t-21.5 46
t-6 45.5v5q0 29 13 56.5t38 49.5t61 35t82 13q59 0 100 -9.5t51 -20.5q2 -2 2.5 -4t0.5 -4v-20v-20h-12q-25 14 -58.5 21t-83.5 7q-32 0 -59 -9.5t-47 -25.5q-17 -15 -27 -32.5t-10 -36.5q0 -15 3.5 -28.5t14.5 -33.5t35 -55zM225 -9q-59 0 -99.5 19t-61 57t-20.5 93v57
q0 68 30.5 111t93.5 59v31l71 -60q-41 0 -74 -16.5t-52 -46t-19 -67.5v-68q0 -55 31.5 -88t100.5 -33q40 0 79.5 16.5t77.5 55.5l42 -48h-34q-28 -37 -70.5 -54.5t-95.5 -17.5zM476 430h19.5h19.5q5 0 8 -3t3 -8v-84q0 -53 -9 -92t-27.5 -70.5t-47.5 -62.5v-32l-37 55
q32 39 51.5 83.5t19.5 105.5v57.5v50.5z" />
    <glyph glyph-name="quotesingle" unicode="'" horiz-adv-x="350" 
d="M204 450h-25.5h-26.5q-5 0 -7.5 3t-3.5 8l-15 187q-1 18 -2.5 34.5t-2.5 33t-3 34.5h52.5h46.5q5 0 8 -3t2 -10z" />
    <glyph glyph-name="parenleft" unicode="(" horiz-adv-x="400" 
d="M293 752q3 4 8.5 6t11.5 2h13.5h13.5h14v-12q-64 -58 -106 -127t-62 -148.5t-20 -169.5v-7q0 -90 21 -169t63 -148t104 -128v-12h-14h-13.5h-13.5q-6 0 -11.5 2t-8.5 6q-60 60 -99 132t-58.5 152t-19.5 165v7q0 85 19.5 165t58.5 152t99 132z" />
    <glyph glyph-name="parenright" unicode=")" horiz-adv-x="400" 
d="M107 -153q-3 -4 -8.5 -6t-11.5 -2h-13.5h-13.5h-14v12q64 58 106 127t62 148.5t20 169.5v7q0 90 -21 169t-63 148t-104 128v12h14h13.5h13.5q6 0 11.5 -2t8.5 -6q60 -60 99 -132t58.5 -152t19.5 -165v-7q0 -85 -19.5 -165t-58.5 -152t-99 -132z" />
    <glyph glyph-name="asterisk" unicode="*" 
d="M326 759q5 0 8 -3t3 -8q-4 -42 -7.5 -72t-7.5 -56t-9 -55l11 -7q26 19 50 35.5t50.5 34.5t60.5 41q8 -13 16 -26.5t15 -27.5q3 -4 2 -7.5t-5 -5.5q-34 -16 -61 -27.5t-53.5 -20t-59.5 -19.5v-12q34 -13 60.5 -24.5t55 -24t67.5 -31.5q-7 -13 -15 -26.5t-16 -27.5
q-2 -4 -5.5 -5t-7.5 1q-31 22 -56 39t-48.5 35t-51.5 39l-10 -6q6 -29 9.5 -49t6.5 -35t4 -31q2 -13 2.5 -26t1.5 -25.5t2 -25.5h-33t-32 -1q-5 0 -8 3t-3 8q4 38 7.5 68t7.5 57.5t8 56.5l-10 6q-28 -22 -52 -41t-49.5 -37.5t-59.5 -42.5q-8 14 -16 27l-16 26q-3 5 -1.5 9.5
t5.5 5.5q34 16 61 28.5t54 24.5t61 25v12q-35 12 -62.5 22.5t-55.5 23t-67 30.5q8 14 16 27.5t15 26.5q3 5 6.5 5.5t7.5 -1.5q33 -22 56.5 -39t45.5 -33.5t48 -38.5l11 7q-3 23 -5.5 40t-5 34.5t-5.5 41.5q-2 20 -3 39t-3 38h33t32 1z" />
    <glyph glyph-name="plus" unicode="+" 
d="M275 526h19.5h19.5q5 0 8 -3t3 -8v-146.5v-146.5v-147h-19.5h-19.5q-5 0 -8 3t-3 8v113.5v113.5v113v62v38zM76 325h437q4 0 6 -1.5t3.5 -3.5t1.5 -6v-19.5v-19.5h-437q-3 0 -5.5 1.5t-4 4t-1.5 5.5v19.5v19.5z" />
    <glyph glyph-name="comma" unicode="," horiz-adv-x="350" 
d="M128 -220h-22.5h-21.5q8 43 15 82.5t14 77.5t14.5 77.5t16.5 82.5h26.5h27h24.5q4 0 6.5 -1.5t3 -4.5t-1.5 -8q-11 -37 -22.5 -74l-23 -74t-23 -74.5t-23.5 -75.5q-1 -5 -3.5 -6.5t-6.5 -1.5z" />
    <glyph glyph-name="hyphen" unicode="-" horiz-adv-x="450" 
d="M91 325h257q4 0 6 -1.5t3.5 -3.5t1.5 -6v-19.5v-19.5h-257q-3 0 -5 0.5t-3.5 2t-2 3.5t-0.5 5v19.5v19.5z" />
    <glyph glyph-name="period" unicode="." horiz-adv-x="350" 
d="M222 -5h-28h-26.5h-28.5q-3 0 -5.5 1.5t-4 4t-1.5 5.5v89h28.5h26.5h28q4 0 6 -1.5t3.5 -3.5t1.5 -6v-89z" />
    <glyph glyph-name="slash" unicode="/" 
d="M521 750q-58 -144 -116.5 -289l-117 -290t-117.5 -290q-1 -4 -3.5 -6.5t-5.5 -3.5t-6 -1h-21.5h-22.5q11 27 22.5 54.5t21.5 54.5q52 127 103.5 254.5l103 255t102.5 254.5q2 4 5 5.5t7 1.5h22.5h22.5z" />
    <glyph glyph-name="zero" unicode="0" 
d="M303 720q70 0 119.5 -35t76 -97t26.5 -143v-190q0 -86 -27.5 -147.5t-78.5 -94.5t-121 -33q-53 0 -94.5 20t-70 57t-43.5 87.5t-15 110.5v190q0 86 27.5 147.5t78.5 94.5t122 33zM300 673q-52 0 -91.5 -24.5t-61.5 -75t-22 -128.5v-190q0 -27 3 -51.5t9 -45t14 -38.5
q22 -46 60.5 -69.5t88.5 -23.5q53 0 92 25.5t61 76t22 126.5v190q0 43 -7 77.5t-20 61.5t-32 45q-22 23 -51.5 33.5t-64.5 10.5zM463 591l22 -65h-51l37 33q-13 -31 -29.5 -58t-34 -50t-34.5 -44q-39 -47 -78.5 -94.5l-79 -95t-78.5 -95.5l-41 63h65l-32 -27q13 26 25.5 47
t29.5 44.5t42 54.5q59 72 118.5 144t118.5 143z" />
    <glyph glyph-name="one" unicode="1" 
d="M297 710h10.5h11h11h10.5h9t6 -1.5t3.5 -3.5t1.5 -6v-38.5v-89v-120.5v-134.5v-130.5v-108.5v-67.5h-56l6 20v16v16.5v15.5v45.5v85.5v109.5v118v111.5v89v51l22 -30h-51l34 24q-18 -26 -32 -44t-31.5 -35.5t-45.5 -44.5q-28 -26 -49 -44.5t-33.5 -28t-17.5 -9.5
q-3 0 -5 1.5t-2.5 4t-0.5 6.5v34q26 24 51 47.5t50 47.5q17 16 33 31.5t32.5 31t32.5 30.5zM90 47h28h63.5h84h91h84h62.5h26q5 0 8 -3t3 -8v-8.5v-9v-9v-9.5h-28h-63.5h-84h-91h-83.5h-62.5h-26.5t-4 1l-4 2l-2 4t-1 4v7.5v7v7v7v7.5z" />
    <glyph glyph-name="two" unicode="2" 
d="M300 720q55 0 95.5 -11t67 -32t39.5 -50.5t13 -65.5v-20q0 -38 -9.5 -66t-30.5 -52t-57.5 -51.5t-90.5 -64.5q-66 -46 -107.5 -79t-64 -63t-30.5 -66t-8 -88l-31 30h67l-57 -6q20 4 38.5 6.5t44 4t64.5 1.5h276q5 0 8 -3t3 -8v-7.5v-7v-7v-7v-7.5h-28.5h-64.5h-85.5h-93
h-85.5h-64h-28t-5.5 1.5t-4 3.5t-1.5 6v29q0 68 24 116t74 91.5t128 96.5q56 38 89.5 64t51 46.5t23 41t5.5 46.5v11q0 26 -8 45t-22 34q-17 20 -50.5 29t-91.5 9t-104 -18t-90 -62h-12v9.5v9v8.5v7.5v6.5q0 7 1.5 10.5t6.5 8.5q31 29 81.5 49.5t123.5 20.5z" />
    <glyph glyph-name="three" unicode="3" 
d="M290 720q78 0 127.5 -24.5t73 -63t23.5 -82.5v-23q0 -37 -18 -72t-58.5 -61t-108.5 -37l28 31v-63l-28 30q74 -10 116.5 -36t60.5 -60.5t18 -71.5v-23q0 -49 -27 -91t-80 -67.5t-133 -25.5q-48 0 -86.5 8t-67 22t-46.5 31q-4 5 -5.5 7.5t-1.5 7.5v5.5v8v10v10.5v10h12
q29 -26 57.5 -42.5t61.5 -23.5t77 -7q53 0 94.5 15.5t66 46t24.5 76.5v18q0 38 -20.5 66t-58.5 46.5t-90.5 27.5t-116.5 9q-5 0 -8 3t-3 8v9.5v9v9v8.5q73 0 127 11t90 31t53.5 48t17.5 62v15q0 38 -20.5 66.5t-58.5 44.5t-92 16q-61 0 -103 -16t-88 -54h-12v9v8v8v8.5v8.5
q0 3 1 5t2 3q27 27 79 47t121 20z" />
    <glyph glyph-name="four" unicode="4" 
d="M371 700h8.5h6.5h6h7h8v-12l-60 -98t-60.5 -98.5t-62 -100.5t-64 -104t-67.5 -110l17 46v-49l-30 16q40 4 78.5 6t79.5 3t90 1h221q4 0 6 -1.5t3.5 -3.5t1.5 -6v-7.5v-6.5v-6.5v-7v-7.5h-494q-3 0 -5.5 1.5t-4 4t-1.5 5.5v35l8.5 14t23.5 39.5t36.5 61t47 78t55 91
t61.5 101.5t65 107q3 4 6.5 5.5t7 2t5.5 0.5zM420 390h10h9.5h9.5h10q4 0 6 -1.5t3.5 -3.5t1.5 -6v-279v-27v-30v-26.5v-16.5h-8h-7.5h-7.5h-8h-8q-5 0 -8 3t-3 8v38v37.5v37.5v38v38v45.5v49.5v49.5v45.5z" />
    <glyph glyph-name="five" unicode="5" 
d="M126 700h25.5h53.5h69h74h68.5h51h21.5q5 0 8 -3t3 -8v-7.5v-6.5v-6.5v-7v-7.5h-27h-62.5h-79.5h-79.5h-61.5h-26q-11 0 -20 4.5t-13.5 11.5t-4.5 15v7v8zM126 700h49l-3 -11q-1 -6 -2 -14.5t-3 -31.5q-4 -39 -10 -91.5t-12 -105.5t-11 -97l-9 26h54l-62 -17q43 26 88 37
t106 11q53 0 93 -12t66.5 -35t40 -56t13.5 -76v-45q0 -43 -16 -79.5t-46.5 -64t-73.5 -43t-98 -15.5q-45 0 -85.5 8t-72.5 22.5t-52 34.5q-1 2 -2 3.5t-1 4.5v9.5v9.5v9.5v9v9.5h12q45 -40 89.5 -56.5t111.5 -16.5q88 0 136 44t48 120v20q0 48 -17 81t-53.5 50t-95.5 17
q-46 0 -90 -8t-85 -23h-38q-4 0 -7.5 3.5t-2.5 10.5q2 20 6 51.5t8.5 70t9 80t9 82t8.5 74.5z" />
    <glyph glyph-name="six" unicode="6" 
d="M331 720q59 0 101 -15t64 -35q4 -4 5 -6.5t1 -7.5v-7.5v-7.5v-8.5v-8.5v-9h-12q-38 32 -75 45t-87 13q-47 0 -80.5 -12.5t-59.5 -37.5q-31 -31 -47 -80t-16 -116v-149q0 -53 6 -94t18.5 -70.5t31.5 -49.5q21 -21 50.5 -30.5t68.5 -9.5q83 0 130.5 40.5t47.5 128.5v31
q0 41 -7.5 65t-24.5 40q-21 22 -55.5 33t-84.5 11q-55 0 -101 -17.5t-91 -56.5l-26 64h76l-49 -21q37 39 84.5 58.5t109.5 19.5q68 0 117 -20.5t75.5 -59.5t26.5 -97v-62q0 -59 -28 -104.5t-78 -71t-117 -25.5q-81 0 -132 31.5t-74.5 97t-23.5 168.5v149q0 56 11 102
t32.5 82t52.5 60.5t71 37t89 12.5z" />
    <glyph glyph-name="seven" unicode="7" 
d="M80 700q8 0 15.5 -0.5t14 -2.5t11 -4.5t7 -5.5t2.5 -8v-40.5v-46v-43.5v-33.5v-15.5h-8h-8h-7.5h-7.5h-8q-5 0 -8 3t-3 8v24.5v46v52.5v44.5v21.5zM279 0h-7.5h-7h-7.5t-7.5 -0.5t-7.5 -0.5q-5 0 -8 3t-3 8q0 4 4.5 17t18 47.5t40 100.5t70.5 175q14 33 29 70.5t32 78.5
t37 86.5t42 96.5l-16 -61v66l30 -26q-34 -3 -63 -5t-55 -2.5t-51 -0.5h-248q-3 0 -6 3t-6 8t-5 11t-3 12.5t-1 12.5h449q4 0 6 -1.5t3.5 -3.5t1.5 -6v-36q0 -2 -5 -16t-15 -39.5t-24.5 -61.5t-33 -82.5t-41.5 -103.5q-15 -36 -31 -76t-34 -84t-37 -91.5t-40 -98.5z" />
    <glyph glyph-name="eight" unicode="8" 
d="M303 720q67 1 116.5 -21t77.5 -61.5t28 -91.5v-17q0 -45 -24 -84t-65.5 -66.5t-94.5 -36.5l37 27v-46l-89 31q82 26 133.5 71t51.5 103v11q0 30 -8.5 53t-25.5 40q-22 21 -57.5 32t-85.5 10q-52 0 -90 -18.5t-58.5 -50.5t-20.5 -76q0 -32 12 -58.5t43 -49t89 -43.5
l85 -31q43 -16 76 -34.5t56 -40t34.5 -45.5t11.5 -51v-25q0 -54 -29 -92.5t-82 -58.5t-124 -20q-68 0 -121.5 20t-83.5 58t-30 91v16q0 42 19.5 81t60.5 65.5t105 32.5l-36 -26v41l86 -31q-51 -9 -93 -30t-67 -55t-25 -84q0 -45 23 -74.5t64.5 -44t97.5 -14.5q88 0 136.5 31
t48.5 104q0 31 -12.5 55t-42.5 44t-84 40l-86 32q-66 25 -106 51.5t-58 60t-18 78.5v19q0 50 27 90t77.5 64.5t120.5 24.5z" />
    <glyph glyph-name="nine" unicode="9" 
d="M295 720q62 0 106.5 -16.5t72.5 -51.5t41.5 -89.5t13.5 -129.5v-159q0 -71 -17 -125.5t-49.5 -92t-80 -57t-109.5 -19.5q-41 0 -76 7t-60.5 19t-41.5 27q-1 2 -2 3.5t-1 4.5v8v8.5v9v9.5v9h12q41 -34 80.5 -46t88.5 -12q47 0 84 13.5t62 40.5q30 31 45 79.5t15 112.5v159
q0 75 -13 125t-41 78q-22 21 -52 31t-71 10q-82 0 -129 -44t-47 -127v-46q0 -37 8 -60t24 -40q21 -21 56 -31.5t84 -10.5q55 0 101 17.5t91 56.5v-64h-41l36 23q-25 -41 -79 -60.5t-111 -19.5q-68 0 -117 21t-75.5 63t-26.5 105v46q0 67 27.5 115t77 74t114.5 26z" />
    <glyph glyph-name="colon" unicode=":" horiz-adv-x="350" 
d="M222 411h-28h-26.5h-28.5q-3 0 -5.5 1.5t-4 4t-1.5 5.5v89h28.5h26.5h28q4 0 6 -1.5t3.5 -3.5t1.5 -6v-89zM222 -5h-28h-26.5h-28.5q-3 0 -5.5 1.5t-4 4t-1.5 5.5v89h28.5h26.5h28q4 0 6 -1.5t3.5 -3.5t1.5 -6v-89z" />
    <glyph glyph-name="semicolon" unicode=";" horiz-adv-x="350" 
d="M222 411h-28h-26.5h-28.5q-3 0 -5.5 1.5t-4 4t-1.5 5.5v89h28.5h26.5h28q4 0 6 -1.5t3.5 -3.5t1.5 -6v-89zM121 -220h-22.5h-21.5q8 43 15 82.5t14 77.5t14.5 77.5t16.5 82.5h26.5h27h24.5q4 0 6.5 -1.5t3 -4.5t-1.5 -8q-11 -37 -22.5 -74l-23 -74t-23 -74.5t-23.5 -75.5
q-1 -5 -3.5 -6.5t-6.5 -1.5z" />
    <glyph glyph-name="less" unicode="&#x3c;" 
d="M80 339q41 22 91.5 49t102 54.5t97 52t78.5 42t45 24.5q10 5 13.5 6.5t6.5 1.5q2 0 3 -0.5t1.5 -1.5l1 -2t0.5 -3v-22v-22q-50 -27 -100.5 -54t-101 -54.5t-101 -54.5t-100.5 -54l8 22v-40l-7 14q49 -27 98.5 -53.5t98.5 -52.5t98.5 -52.5t98.5 -53.5q5 -3 6.5 -6t1.5 -9
v-23.5v-23.5q-54 29 -107.5 58t-107.5 57.5t-107.5 57.5t-106.5 57q-4 3 -6.5 5t-3.5 5t-1 7v34.5v34.5z" />
    <glyph glyph-name="equal" unicode="=" 
d="M76 450h437q4 0 6 -1.5t3.5 -3.5t1.5 -6v-19.5v-19.5h-437q-3 0 -5.5 1.5t-4 4t-1.5 5.5v19.5v19.5zM76 200h437q4 0 6 -1.5t3.5 -3.5t1.5 -6v-19.5v-19.5h-437q-3 0 -5.5 1.5t-4 4t-1.5 5.5v19.5v19.5z" />
    <glyph glyph-name="greater" unicode="&#x3e;" 
d="M520 262q-41 -22 -91.5 -49t-102 -54.5t-97 -52t-78.5 -42t-45 -24.5q-10 -5 -13.5 -6.5t-6.5 -1.5q-2 0 -3 0.5t-1.5 1.5l-1 2t-0.5 3v22v22q50 27 100.5 54t101 54.5t101 54.5t100.5 54l-8 -22v40l7 -14q-49 27 -98.5 53.5t-98.5 52.5t-98.5 52.5t-98.5 53.5
q-5 3 -6.5 6t-1.5 9v23.5v23.5q54 -29 107.5 -58t107.5 -57.5t107.5 -57.5t106.5 -57q4 -3 6.5 -5t3.5 -5t1 -7v-34.5v-34.5z" />
    <glyph glyph-name="question" unicode="?" 
d="M346 -5h-56h-57q-3 0 -5.5 1.5t-4 4t-1.5 5.5v109h57h56q4 0 6 -1.5t3.5 -3.5t1.5 -6v-109zM300 720q53 0 93 -11.5t67 -32t41 -50t14 -65.5v-30q0 -32 -9.5 -54.5t-30 -42.5t-53.5 -43l-44 -31q-36 -25 -52.5 -41.5t-21 -32.5t-4.5 -41v-9h-39q-3 0 -5.5 1.5t-4 4
t-1.5 5.5v8q0 29 7.5 51t27.5 43.5t58 46.5l44 30q29 20 46 35t24.5 31t7.5 38v13.5v13.5q0 57 -41 86.5t-124 29.5q-55 0 -101.5 -18t-99.5 -62h-12v22v22q0 3 1 5t2 3q23 23 56 40t72.5 26t81.5 9z" />
    <glyph glyph-name="at" unicode="@" horiz-adv-x="1050" 
d="M525 730q103 0 183 -25.5t135 -74t83.5 -117t28.5 -154.5v-122q0 -42 -10 -77.5t-32 -61.5t-56.5 -40.5t-84.5 -14.5h-12q-34 0 -57.5 11t-35.5 33t-12 55v59.5v74.5v75.5v62.5q0 1 1 12.5t3 30.5t4 41h31q5 0 8 -3t3 -8v-69.5v-91.5v-95.5v-80.5q0 -32 14 -46t46 -14h4
q47 0 77 15t44.5 47.5t14.5 84.5v121q0 45 -8.5 85.5t-26.5 76.5t-48 65q-30 31 -73 52.5t-98.5 33.5t-125.5 12q-136 0 -219.5 -43t-122 -116.5t-38.5 -165.5v-166q0 -45 9 -86t27.5 -76.5t47.5 -64.5q46 -46 119 -72t177 -26q64 0 111.5 8t87 23t78.5 37h12v-34
q0 -4 -1 -6t-3 -4q-12 -12 -47.5 -28.5t-94.5 -29.5t-143 -13q-103 0 -183 25.5t-135 74t-83.5 117.5t-28.5 157v162q0 87 28.5 156.5t83.5 118t135 74t183 25.5zM488 41q-45 0 -79.5 18.5t-54 53t-19.5 81.5v162q0 36 11 64t31.5 48t48.5 30.5t62 10.5q49 0 85.5 -20.5
t70.5 -58.5h26l-9 -68q-41 56 -83 78t-86 22q-25 0 -45 -7.5t-33.5 -21.5t-21 -34.5t-7.5 -46.5v-154q0 -52 28.5 -81t78.5 -29q29 0 57.5 9.5t56.5 31.5t55 59l9 -68h-26q-34 -38 -70.5 -58.5t-85.5 -20.5z" />
    <glyph glyph-name="A" unicode="A" horiz-adv-x="650" 
d="M147 277h292h16h15l22 10l11 -57h-345q-3 0 -5.5 1.5t-4 4t-1.5 5.5v36zM89 0h-19.5h-20.5q-3 0 -5.5 2t-3 5t0.5 7q17 50 34.5 99.5t34.5 99.5t34.5 99.5l35 99t34.5 99.5t34.5 99.5t34.5 99.5h46.5h40.5q4 0 6.5 -1.5t3.5 -4t2 -5.5l52 -160t52 -159.5t52 -159.5
l52 -160l10 -30l10 -30h-22h-22q-4 0 -6.5 1.5t-4 5.5t-4.5 11q-16 50 -37.5 116.5t-46 140.5t-48.5 148t-45 139t-37 112l16 -12h-45l16 11q-17 -47 -38.5 -108t-46 -131.5t-50.5 -145t-51.5 -148t-48.5 -140.5z" />
    <glyph glyph-name="B" unicode="B" 
d="M334 0h-62.5h-68.5h-59h-33q-5 0 -8 3t-3 8v167v162.5v162.5v167h56l-6 -13v-91v-91v-107.5v-106.5v-106.5v-107.5h56.5h51h55.5q56 0 91.5 16.5t52.5 47.5t17 74v26q0 34 -17 61.5t-60 44t-122 16.5h-143v37h272v-14q61 -15 90.5 -52.5t29.5 -93.5v-25
q0 -61 -23.5 -102.5t-66.5 -62t-100 -20.5zM30 700h140h140q51 0 89 -11t62.5 -32t36.5 -51t12 -67v-25q0 -42 -14.5 -73.5t-44 -53.5t-74.5 -33t-107 -11h-65.5h-65.5l-7 -5v42h71.5h71.5q77 0 116.5 17t54 47.5t14.5 68.5v26q0 25 -6.5 44.5t-21.5 33.5q-17 17 -47 26.5
t-75 9.5h-89.5h-89.5h-90q-5 0 -8 3t-3 8v18v18z" />
    <glyph glyph-name="C" unicode="C" 
d="M325 -20q-60 0 -106.5 18t-78.5 52t-48.5 82t-16.5 109v218q0 61 16.5 109t48.5 82t78.5 52t106.5 18q49 0 86 -9t64 -24.5t45 -33.5q2 -1 2.5 -3l1 -4t0.5 -3v-71.5v-71.5h-19.5h-19.5q-5 0 -8 3t-3 8v51.5v51v50.5l23 -51q-36 32 -77 46t-95 14q-62 0 -106.5 -25
t-68 -73.5t-23.5 -120.5v-208q0 -52 13.5 -94.5t44.5 -74.5q26 -26 61.5 -38t78.5 -12q59 0 102 19t85 54h12v-10.5v-11v-10v-7.5t-1 -5.5t-3 -4.5q-23 -23 -52.5 -38.5t-65.5 -24t-77 -8.5z" />
    <glyph glyph-name="D" unicode="D" horiz-adv-x="650" 
d="M575 245q0 -66 -20 -112.5t-57 -75.5t-86.5 -43t-109.5 -14h-46.5h-40.5h-37h-34.5h-32.5q-4 0 -7.5 3.5t-3.5 7.5v167.5v167v167v167.5h59l-7 -11v-56v-57v-126.5v-127.5v-127.5v-127.5h41h46.5h59.5q78 0 128 21t74 65.5t24 115.5v202q0 38 -6 67.5t-18.5 52.5
t-32.5 39q-21 17 -45 26.5t-56 13t-76 3.5h-70h-63.5h-59h-57.5q-3 0 -5.5 1.5t-4 4t-1.5 5.5v18v18h61h64.5h72h84.5q61 0 109.5 -14t83 -43t52.5 -75.5t18 -112.5v-210z" />
    <glyph glyph-name="E" unicode="E" horiz-adv-x="550" 
d="M20 700h459q4 0 6 -1.5t3.5 -4t1.5 -5.5v-18v-18h-459q-3 0 -5.5 1.5t-4 4t-1.5 5.5v18v18zM110 380h319q3 0 5.5 -1.5t4 -3.5t1.5 -6v-12v-11.5v-12.5h-330v47zM101 0q-2 0 -4 1t-3.5 2.5t-2.5 3.5t-1 4v136v136v135.5v135.5v136h55l-5 -11v-39v-43v-127.5v-140.5v-144
v-138h339q5 0 8 -3t3 -8v-18v-18h-389z" />
    <glyph glyph-name="F" unicode="F" horiz-adv-x="550" 
d="M160 0h-19.5h-19.5q-3 0 -5.5 1.5t-4 4t-1.5 5.5v169.5v170.5v169.5v166.5h56l-6 -10v-41v-42v-178.5v-172.5v-145v-46.5v-51.5zM40 700h439q4 0 6 -1.5t3.5 -4t1.5 -5.5v-12v-11.5v-12.5h-439q-3 0 -5.5 1.5t-4 4t-1.5 5.5v18v18zM130 360h299q5 0 8 -3t3 -8v-12v-11.5
v-12.5h-310v47z" />
    <glyph glyph-name="G" unicode="G" horiz-adv-x="650" 
d="M341 340h269q3 0 5.5 -1.5t4 -4t1.5 -5.5v-36h-269q-3 0 -5 1t-3.5 2.5t-2 3.5t-0.5 4v18v18zM352 720q42 0 77 -5t62 -14t47 -21t33 -26q2 -2 3 -5t1 -5v-47.5v-48.5v-48h-19.5h-19.5q-5 0 -8 3t-3 8v51.5v51v50.5l23 -51q-32 35 -81.5 47.5t-120.5 12.5
q-51 0 -91.5 -14.5t-68.5 -44t-43 -75t-15 -108.5v-192q0 -50 15 -89.5t44 -68.5q25 -25 63.5 -39.5t93.5 -14.5q59 0 99 15.5t60.5 33t20.5 22.5v75.5v69.5v75h54l-4 -11v-110v-110q0 -4 -1 -6.5t-4 -6.5q-20 -27 -54.5 -48.5t-78 -33.5t-90.5 -12q-64 0 -114 18t-85 51
t-53 80t-18 105v202q0 69 18 122t53.5 89t87 54.5t117.5 18.5z" />
    <glyph glyph-name="H" unicode="H" horiz-adv-x="650" 
d="M90 700h19.5h19.5q5 0 8 -3t3 -8v-172v-172.5v-172.5v-172h-19.5h-19.5q-3 0 -5.5 1.5t-4 4t-1.5 5.5v196.5v197v196.5v49.5v49.5zM126 380h356h16h15l22 10v-57h-398q-3 0 -5 1t-3.5 2.5t-2 3.5t-0.5 4v36zM560 0h-19.5h-19.5q-3 0 -5.5 1.5t-4 4t-1.5 5.5v172v172.5
v172.5v172h19.5h19.5q2 0 4 -1t3.5 -2.5t2.5 -3.5t1 -4v-147v-147.5v-147v-147.5v-50v-50z" />
    <glyph glyph-name="I" unicode="I" horiz-adv-x="500" 
d="M275 20h-53l3 11v41v42v141.5v141v141.5v142h56l-6 -11v-33v-34v-145.5v-145.5v-145.5v-145.5zM420 0h-329q-3 0 -5 1t-3.5 2.5t-2 3.5t-0.5 4v12.5v11.5v12h329q3 0 5.5 -1.5t4 -4t1.5 -5.5v-12v-11.5v-12.5zM80 700h329q5 0 8 -3t3 -8v-9.5v-8.5v-8.5v-9.5h-329
q-5 0 -8 3.5t-3 7.5v9.5v8.5v8.5v9.5z" />
    <glyph glyph-name="J" unicode="J" horiz-adv-x="500" 
d="M209 27q35 0 64.5 11t51.5 33q17 17 29 40t19 55.5t7 75.5v103v108.5v113v116.5l10 -35l-19 16l39 -11h-78.5h-76h-76h-78.5q-3 0 -5.5 1.5t-4 4t-1.5 5.5v18v18h83h81.5h81.5h83q4 0 6.5 -1.5t3.5 -3.5t1 -6v-118.5v-115.5v-111v-105q0 -62 -15 -110.5t-44 -81.5
t-70.5 -50t-94.5 -17q-30 0 -58.5 6.5t-50 16.5t-33.5 22q-1 2 -2 3t-1.5 3t-0.5 4v18.5v18.5h12q20 -14 42 -24t46 -15.5t49 -5.5z" />
    <glyph glyph-name="K" unicode="K" 
d="M265 383q51 -75 102.5 -149.5t102.5 -149.5q14 -20 27 -27t33 -7h11.5h8.5h10v-10.5v-11v-10v-7.5q0 -5 -3 -8t-8 -3h-7.5h-7.5h-8q-24 0 -40.5 6t-30.5 19t-29 34q-27 40 -50.5 75t-43.5 66.5t-37 62.5t-32 62h-28zM522 700q3 0 4.5 -1t2.5 -2t1 -3q0 -3 -2.5 -8
t-12 -18t-31.5 -41t-48 -62t-55 -71t-60 -77.5t-64 -82.5t-66.5 -85t-66.5 -86v87h28q13 26 30.5 53.5t38 56.5t43 58.5t44.5 59.5q29 37 57 74t56.5 74t56.5 74h44zM90 700h19.5h19.5q5 0 8 -3t3 -8v-172v-172.5v-172.5v-172h-19.5h-19.5q-5 0 -8 3t-3 8v196.5v197v196.5
v49.5v49.5z" />
    <glyph glyph-name="L" unicode="L" horiz-adv-x="550" 
d="M101 0q-3 0 -5 0.5t-3.5 2t-2 3.5t-0.5 5v173.5v170v145.5v100v50v50h19.5h19.5q4 0 6 -1.5t3.5 -4t1.5 -5.5v-160.5v-160.5v-160.5v-160.5h319q7 0 12.5 -4.5t9.5 -12t6.5 -15.5t2.5 -15h-389zM440 165h13.5h13h12.5q3 0 5.5 -1.5t4 -4t1.5 -5.5v-37.5v-39.5v-39.5
v-37.5q-20 0 -31 3t-15 10t-4 18v44v46v44z" />
    <glyph glyph-name="M" unicode="M" horiz-adv-x="800" 
d="M139 0h-19h-19q-3 0 -5.5 1.5t-4 4t-1.5 5.5v147.5v147.5v148v147v49.5v49.5h23.5h30.5h23q4 0 7 -1t5 -4t4 -8q22 -49 44.5 -101.5t45.5 -107.5t46.5 -111.5t47.5 -113.5t49 -113l-49 62h64l-50 -62q26 57 52 117.5t51.5 121t50 118t46.5 109t41 94.5h23.5h31h22.5
q3 0 5.5 -1.5t4 -3.5t1.5 -6v-36.5v-81.5v-110.5v-124.5v-124.5v-109.5v-34v-34v-34h-24h-15q-3 0 -5.5 1.5t-4 4t-1.5 5.5v50.5v50.5v50v77.5t0.5 78t1 80.5t1.5 84t2.5 89t2.5 95l20 -26h-62l36 35q-23 -53 -48.5 -111.5t-51.5 -119t-51 -118.5t-48 -110.5t-43 -95.5
h-18.5h-18.5q-3 0 -6 1.5t-6 7.5q-10 23 -29 67t-43.5 102t-52 122.5t-55 128.5t-51.5 120l36 -29h-59l14 30q2 -50 3.5 -96.5t2.5 -90t1 -84.5t0.5 -81t0.5 -78.5v-77.5v-80.5v-81.5z" />
    <glyph glyph-name="N" unicode="N" horiz-adv-x="650" 
d="M130 0h-19.5h-19.5q-3 0 -5.5 1.5t-4 4t-1.5 5.5v137.5v137v137v137.5v70v70h26h29.5h25.5q4 0 7 -1t5 -3t4 -6q11 -21 32 -63t50 -98t62.5 -121.5t69 -133.5t69.5 -134t63 -123l-39 35h56l-15 -25q-2 50 -3 101t-1.5 103t-0.5 104v103v100v81.5v80.5h19.5h19.5q5 0 8 -3
t3 -8v-130v-130.5v-130.5v-130v-84v-84h-25.5h-31h-25.5q-6 0 -9.5 2.5t-7.5 9.5q-33 64 -74 143.5t-87 167.5t-93 179t-92 177l34 -39h-47l13 40q2 -57 2.5 -111.5t1 -107.5t1 -104t0.5 -100v-97q-1 -32 -0.5 -76t0.5 -84z" />
    <glyph glyph-name="O" unicode="O" horiz-adv-x="650" 
d="M326 720q71 0 127 -28.5t89 -88t33 -152.5v-210q0 -92 -35 -149.5t-92.5 -84.5t-123.5 -27t-122.5 27t-91.5 85t-35 150v209q0 93 32 152.5t88.5 88t130.5 28.5zM125 236q0 -54 17 -93.5t43 -65.5q22 -21 54.5 -35.5t84.5 -14.5q58 0 103 25t71.5 73t26.5 116v218
q0 39 -8 70t-22 55t-32 41q-22 21 -57.5 34.5t-79.5 13.5q-71 0 -115.5 -27.5t-65 -75.5t-20.5 -111v-223z" />
    <glyph glyph-name="P" unicode="P" 
d="M150 0h-19.5h-19.5q-5 0 -8 3t-3 8v167.5v167v167v167.5h55l-5 -11v-37v-37v-165v-165.5v-164.5v-51v-49zM30 700h141.5h140.5q33 0 65.5 -4.5t61 -15.5t50 -31t34 -52t12.5 -78v-68q0 -43 -14.5 -77t-43 -57.5t-68.5 -36t-91 -12.5h-87h-88l-11 -3v50h91.5h91.5
q42 0 73.5 9t52.5 27t31.5 44t10.5 60v69q0 29 -7.5 51t-24.5 38q-20 20 -55 30t-86 10h-89.5h-89.5h-90q-5 0 -8 3t-3 8v18v18z" />
    <glyph glyph-name="Q" unicode="Q" horiz-adv-x="650" 
d="M442 39q21 -27 41.5 -54.5t41.5 -54.5q14 -18 26 -24t29 -6h11.5h8.5h10v-19.5v-19.5q0 -5 -3 -8t-8 -3h-12.5h-12.5q-20 0 -35 5t-27.5 16t-24.5 27q-21 29 -42.5 58t-42.5 57zM326 720q71 0 127 -28.5t89 -88t33 -152.5v-210q0 -92 -35 -149.5t-92.5 -84.5t-123.5 -27
t-122.5 27t-91.5 85t-35 150v209q0 93 32 152.5t88.5 88t130.5 28.5zM125 236q0 -54 17 -93.5t43 -65.5q22 -21 54.5 -35.5t84.5 -14.5q58 0 103 25t71.5 73t26.5 116v218q0 39 -8 70t-22 55t-32 41q-22 21 -57.5 34.5t-79.5 13.5q-71 0 -115.5 -27.5t-65 -75.5t-20.5 -111
v-223z" />
    <glyph glyph-name="R" unicode="R" 
d="M343 332q32 -60 63.5 -120.5t62.5 -120.5q14 -25 27.5 -34.5t33.5 -9.5h11.5h8.5h10v-18v-18q0 -5 -3 -8t-8 -3h-14h-15q-21 0 -39 8t-32.5 24.5t-28.5 41.5q-30 59 -60.5 117.5t-60.5 116.5zM30 700h144h144q47 0 84 -12.5t62 -36t38 -57.5t13 -77v-41q0 -42 -13.5 -76
t-38.5 -58t-61.5 -36.5t-83.5 -12.5h-87h-88l-11 -9v56h91.5h91.5q50 0 82.5 16t49 47.5t16.5 76.5v33q0 32 -8.5 58.5t-26.5 43.5q-18 18 -45.5 28t-67.5 10h-91.5h-91h-91.5q-5 0 -8 3t-3 8v18v18zM150 0h-19.5h-19.5q-5 0 -8 3t-3 8v167.5v167v167v167.5h62l-12 -11
v-115.5v-115.5v-112.5v-112.5v-113v-51v-49z" />
    <glyph glyph-name="S" unicode="S" 
d="M317 716q65 0 116 -14.5t76 -40.5q5 -4 6.5 -7.5t1.5 -8.5v-41v-41.5v-40.5h-19.5h-19.5q-5 0 -8 3t-3 8v33.5v33v33.5v33l27 -52q-25 27 -69 41t-108 14q-40 0 -72.5 -9.5t-56 -27t-36 -42.5t-12.5 -56v-19q0 -31 10.5 -55t36.5 -41.5t73 -31.5l97 -28
q45 -13 77.5 -27.5t52.5 -32.5t29.5 -42.5t9.5 -58.5v-32q0 -54 -26.5 -95t-77.5 -64t-123 -23q-49 0 -91.5 8t-74.5 22t-50 32q-4 4 -5 7.5t-1 7.5v13.5v13v12.5h12q44 -39 92.5 -54t117.5 -15q80 0 128 35.5t48 102.5v20q0 32 -11.5 53t-39 36.5t-75.5 29.5l-98 29
q-45 13 -75.5 29t-49.5 36.5t-27.5 46.5t-8.5 60v30q0 40 17 72.5t47.5 56t72 36t90.5 12.5z" />
    <glyph glyph-name="T" unicode="T" 
d="M60 700h469q5 0 8 -3t3 -8v-18v-18h-469q-3 0 -5.5 1.5t-4 4t-1.5 5.5v18v18zM325 0h-19.5h-19.5q-5 0 -8 3t-3 8v167.5v167v167v167.5h56l-6 -11v-58v-58.5v-58.5v-131v-131.5v-131.5v-51v-49z" />
    <glyph glyph-name="U" unicode="U" horiz-adv-x="650" 
d="M560 0h-12.5h-13h-13.5q-2 0 -4 0.5t-3 1.5t-2 2.5t-1.5 3t-0.5 3.5v172v172.5v172.5v172h13.5h13h12.5q3 0 5.5 -1.5t4 -4t1.5 -5.5v-147v-147.5v-147v-147.5v-50v-50zM268 -20q-45 0 -79 13t-57 37.5t-35 59t-12 77.5v134v147v153v49.5v49.5h19.5h19.5q3 0 5.5 -1.5
t4 -4t1.5 -5.5v-175v-174.5v-170.5q0 -67 36 -104.5t99 -37.5q47 0 91 18.5t86.5 64.5t83.5 128v-137h-41q-27 -37 -60 -64t-73 -42t-89 -15z" />
    <glyph glyph-name="V" unicode="V" horiz-adv-x="650" 
d="M85 700q2 0 3 -0.5t2 -1.5t2 -4q28 -81 57 -165.5t58.5 -171.5t59.5 -175t60 -177l-38 35h69l-34 -35q23 69 47 138.5t48.5 139.5t49 139.5t48.5 139t47 138.5h22h22q3 0 4 -1.5t1.5 -3.5t-0.5 -6q-19 -58 -39 -116t-40 -116.5l-40 -117t-39.5 -116.5t-39.5 -116.5
t-40 -116.5h-43.5h-43.5q-6 0 -9 3.5t-7 14.5q-16 44 -33 94t-35.5 104.5t-37.5 111t-37.5 112.5t-36.5 108q-9 28 -18.5 54.5t-18.5 53t-19 54.5h24.5h24.5z" />
    <glyph glyph-name="W" unicode="W" horiz-adv-x="900" 
d="M45 700h16h15.5h14.5q4 0 6.5 -1.5t4 -4.5t2.5 -7q15 -67 30 -133.5t30 -133.5t30 -134.5t30.5 -134t30.5 -133.5l-20 22h54l-24 -20q20 72 39.5 145l39 146t39.5 145.5t39 144.5h52q4 0 7.5 -2t4.5 -8q16 -58 31.5 -116.5t31 -116t31 -114.5t30.5 -113.5t29 -112.5
l-23 22h48l-13 -13q14 67 29 134t29.5 134.5t30 134.5t30.5 134.5t31 135.5h15h14h14q5 0 7.5 -2t3 -5.5t-0.5 -8.5q-13 -57 -26.5 -114t-27.5 -114.5t-27.5 -115t-27.5 -115.5t-27.5 -115.5t-27.5 -115.5h-19h-22.5h-22.5h-19q-4 0 -7.5 2.5t-5.5 8.5q-15 58 -30.5 116.5
t-33 123t-38 140.5t-45.5 169l41 -55h-62l31 54q-20 -74 -37 -137t-32 -118t-28.5 -105t-27 -99t-27.5 -100h-26h-30.5h-26.5q-4 0 -7.5 2.5t-5.5 8.5q-15 66 -30.5 132t-30 129.5t-28.5 123.5t-27 115t-24 102q-3 11 -10 39t-14 54z" />
    <glyph glyph-name="X" unicode="X" 
d="M519 0q-5 0 -9.5 2t-8 5t-6.5 6q-34 53 -70 107.5t-70.5 108t-66.5 102.5l-28 20q-36 57 -74 114.5t-76 116.5l-76 118h26h26q5 0 8.5 -2t7 -4.5t5.5 -6.5q34 -51 67 -102t65.5 -101t63.5 -98l32 -28q56 -85 115 -175.5t118 -182.5h-24.5h-24.5zM544 700q6 0 9 -3t3 -7
t-3 -9q-23 -35 -46.5 -70t-47 -70.5t-47 -70.5l-47 -70t-46.5 -70l-29 57h25q15 32 27.5 55.5t25.5 46.5t30.5 51t42.5 66.5t62 93.5h20.5h20.5zM46 0q-5 0 -8.5 3t-3.5 7.5t3 8.5q23 35 45.5 70.5l45 71t45.5 71t45.5 71t45.5 70.5l33 -46h-19q-17 -34 -30 -58.5
t-25.5 -47.5t-30 -51.5t-43 -69t-64.5 -100.5h-19.5h-19.5z" />
    <glyph glyph-name="Y" unicode="Y" horiz-adv-x="650" 
d="M345 0h-12.5h-13h-13.5q-3 0 -5.5 1.5t-4 4t-1.5 5.5v154.5v154.5h50v-72.5v-75v-72.5v-51v-49zM41 700h23h23q6 0 9 -1t5 -3.5t3 -5.5q30 -51 59 -99.5t57 -96.5t55 -96.5t54 -98.5l-24 36h40l-35 -39q32 59 59 107.5t53.5 93.5t56 94t66.5 109h22h21q3 0 5.5 -4t0.5 -9
q-23 -38 -48.5 -79.5t-51.5 -84t-52.5 -85t-52 -83.5t-48.5 -78h-21t-12.5 0.5t-7 1.5t-3.5 2q-24 38 -49.5 80t-52 85t-53 86.5t-52 86t-49.5 81.5z" />
    <glyph glyph-name="Z" unicode="Z" 
d="M540 0h-469q-5 0 -8 3t-3 8v46q42 60 85 119.5t89.5 124t99.5 139.5q28 40 47.5 67.5t34.5 48t29.5 39t32 38.5t42.5 47l-35 -59v55l23 -23h-144h-118.5h-107.5h-24q-7 0 -12.5 1.5t-9.5 6t-7 14t-5 25.5h449q4 0 6 -1.5t3.5 -3.5t1.5 -6v-46q-5 -8 -34 -48t-76 -106.5
t-109 -155.5q-38 -55 -64.5 -92.5t-45 -63.5t-35 -47.5t-35.5 -44t-45 -53.5l22 41v-54l-18 28h145h119h108h57q5 0 8 -3t3 -8v-18v-18zM130 550h-19.5h-19.5q-3 0 -5.5 1.5t-4 4t-1.5 5.5v34.5v35v35v34.5q20 0 31 -3t15 -9.5t4 -18.5v-39v-40v-40z" />
    <glyph glyph-name="bracketleft" unicode="[" horiz-adv-x="450" 
d="M400 -161h-304q-3 0 -5 0.5t-3.5 2t-2 3.5t-0.5 5v207.5v207v207.5v207v40.5v40.5h13.5h13.5h277q5 0 8 -3t3 -8v-17.5v-21.5h-265v-205v-205.5v-205.5v-205h254q5 0 8 -3t3 -8v-19.5v-19.5z" />
    <glyph glyph-name="backslash" unicode="\" 
d="M94 750h22.5h22.5q3 0 5.5 -0.5t4 -2t2.5 -4.5q52 -127 103.5 -254.5l103 -255t102.5 -254.5q11 -27 22 -54.5t22 -54.5h-22h-22q-4 0 -8.5 2.5t-6.5 8.5q-58 145 -116.5 290l-117 290t-117.5 289z" />
    <glyph glyph-name="bracketright" unicode="]" horiz-adv-x="450" 
d="M50 760h304q3 0 5 -0.5t3.5 -2t2 -3.5t0.5 -5v-207.5v-207v-207.5v-207v-40.5v-40.5h-13.5h-13.5h-277q-5 0 -8 3t-3 8v17.5v21.5h265v205v205.5v205.5v205h-254q-5 0 -8 3t-3 8v19.5v19.5z" />
    <glyph glyph-name="asciicircum" unicode="^" 
d="M253 750h34.5h34.5q6 0 9.5 -2t7.5 -9q29 -53 52 -96.5t45 -84.5t45.5 -84.5t52.5 -97.5h-23.5h-23.5q-6 0 -9 1.5t-6 6.5q-26 49 -46.5 87t-39.5 73.5t-40 74.5t-48 89l17 -8h-54l30 15l-52.5 -98t-42 -78.5t-40 -75t-46.5 -87.5h-44q-2 0 -3.5 0.5t-2.5 2t-1 3.5
q0 3 1.5 6.5t6.5 13.5q8 15 27.5 51.5t46 86t55.5 104t57 106.5z" />
    <glyph glyph-name="underscore" unicode="_" 
d="M76 -100h437q4 0 6 -1.5t3.5 -3.5t1.5 -6v-19.5v-19.5h-437q-3 0 -5.5 1.5t-4 4t-1.5 5.5v19.5v19.5z" />
    <glyph glyph-name="grave" unicode="`" horiz-adv-x="350" 
d="M176 720q14 -50 29 -100l30 -100t29 -100h-19h-24q-4 0 -7.5 1.5t-5.5 6.5q-15 35 -30 69.5t-30.5 69.5l-31 70t-30.5 70q-2 6 1 9.5t9 3.5h28h21h31z" />
    <glyph glyph-name="a" unicode="a" 
d="M485 361v-63v-64.5v-64.5v-63q0 -19 3 -30.5t10 -18.5q6 -6 15 -8.5t21 -2.5h4.5h4.5h12v-17.5v-17.5q0 -6 -3 -8.5t-8 -2.5h-7h-5q-20 0 -37.5 5t-31 16.5t-21 30t-7.5 45.5v81v81v32.5v32.5v32q0 51 -12.5 79t-43 39.5t-85.5 11.5q-30 0 -57 -3.5t-52.5 -10.5
t-52.5 -18h-12v19v19q0 3 1 5t2 3q5 5 29 13.5t61 15.5t81 7q50 0 86.5 -9.5t59.5 -30.5t34 -54t11 -81zM135 132q0 -46 27.5 -70t79.5 -24q41 0 75.5 11.5t67.5 40.5t69 82v-89h-30q-19 -30 -45 -51t-60 -31.5t-77 -10.5q-49 0 -84 16.5t-54 48t-19 76.5v28q0 34 10.5 60
t31 44t49.5 27.5t66 9.5h66h65.5h71.5q8 0 11.5 -6t4.5 -16.5t1 -24.5h-75.5h-67h-77.5q-28 0 -48.5 -6.5t-34.5 -20.5q-12 -12 -18 -29t-6 -39v-26z" />
    <glyph glyph-name="b" unicode="b" 
d="M145 0h-8.5h-7h-8.5q-3 0 -5.5 1.5t-4 3.5t-1.5 6v159.5v159.5v159.5v159.5v51.5v49.5h10h9.5h9.5h10q4 0 6 -1.5t3.5 -3.5t1.5 -6v-164v-164.5v-164.5v-164l-1.5 -8.5t-3.5 -20.5t-4 -24.5t-4 -20.5zM145 80v94q43 -78 90 -107.5t99 -29.5q43 0 74.5 19t49 56.5
t17.5 90.5v130q0 39 -10.5 69t-30.5 50q-18 18 -43 27.5t-57 9.5q-35 0 -67.5 -13.5t-62.5 -44t-59 -81.5v92h27q22 30 46.5 51t55.5 32t69 11q39 0 72.5 -13.5t58 -39t38 -61.5t13.5 -82v-144q0 -48 -13.5 -86t-38.5 -65t-59 -41t-75 -14q-36 0 -66 9.5t-55 29.5t-47 51
h-26z" />
    <glyph glyph-name="c" unicode="c" horiz-adv-x="500" 
d="M298 536q39 0 68 -7.5t47 -17.5t25 -17q4 -4 4.5 -6t0.5 -7v-16.5v-16.5h-12q-19 14 -50.5 27.5t-82.5 13.5q-58 0 -96.5 -21t-57.5 -62t-19 -101v-100q0 -40 10.5 -71t31.5 -52q22 -22 55 -33.5t76 -11.5q35 0 59.5 5t42.5 13t31 18h12v-17.5v-17.5q0 -2 -0.5 -4
t-2.5 -4q-8 -8 -25.5 -17.5t-46 -16t-71.5 -6.5q-54 0 -95 13.5t-69.5 41t-43 67.5t-14.5 92v106q0 78 30 128t80.5 74t112.5 24z" />
    <glyph glyph-name="d" unicode="d" 
d="M261 536q37 0 66.5 -10.5t54.5 -31t46 -51.5h27v-99q-43 76 -89.5 110.5t-99.5 34.5q-43 0 -74.5 -19t-49 -56t-17.5 -91v-130q0 -39 11 -69t30 -50q18 -18 43.5 -27.5t56.5 -9.5q35 0 67.5 13.5t63 44.5t58.5 81v-92h-27q-20 -30 -45.5 -51t-56.5 -32t-69 -11
q-39 0 -72.5 13.5t-58 39t-38 61.5t-13.5 82v144q0 48 13.5 86t38.5 65t59 41t75 14zM479 750q4 0 6 -1.5t3.5 -3.5t1.5 -6v-164v-167v-161.5v-146.5v-58.5v-41.5h-10h-9.5h-9.5h-10q-3 0 -5.5 1.5t-4 3.5t-1.5 6v160v159.5v159.5v160v49v51h10h9.5h9.5h10z" />
    <glyph glyph-name="e" unicode="e" 
d="M303 536q52 0 99.5 -21t78 -70t30.5 -135v-65q0 -3 -1.5 -5.5t-3.5 -4t-6 -1.5h-288h-32h-32h-19l-22 47h354v12.5v12.5q0 50 -11.5 86t-34.5 58q-20 20 -48.5 29.5t-63.5 9.5q-78 0 -123 -44t-45 -144v-89q0 -40 11 -72.5t32 -53.5q24 -24 61.5 -36.5t89.5 -12.5
q39 0 66 4.5t50.5 14.5t50.5 26h12v-17v-17q0 -2 -0.5 -4t-2.5 -4q-13 -13 -38 -24.5t-61.5 -18.5t-82.5 -7q-51 0 -94.5 13t-75.5 40t-50 68.5t-18 98.5v94q0 66 18.5 110.5t50 71.5t70.5 38.5t79 11.5z" />
    <glyph glyph-name="f" unicode="f" horiz-adv-x="400" 
d="M40 526h289q3 0 5.5 -1.5t4 -4t1.5 -5.5v-18v-18h-289q-3 0 -5.5 1.5t-4 4t-1.5 5.5v18v18zM170 11q0 -4 -1.5 -6t-3.5 -3.5t-6 -1.5h-19.5h-19.5v49.5v49.5v128v109.5v109.5v127q0 47 10.5 82.5t31.5 58.5t50.5 34.5t66.5 11.5q27 0 49.5 -4.5t38 -11t20.5 -11.5
q2 -1 2.5 -3t0.5 -5v-18.5v-18.5h-12q-13 8 -28.5 13.5t-32.5 8.5t-37 3q-19 0 -37.5 -5t-33.5 -16q-16 -12 -27.5 -41.5t-11.5 -85.5v-111.5v-110.5v-110v-110.5v-111.5z" />
    <glyph glyph-name="g" unicode="g" 
d="M126 92q0 19 6 35.5t17 30t26 22.5v19l45 -16q-22 -16 -33 -37.5t-11 -47.5q0 -25 13.5 -36.5t35.5 -11.5h165q52 0 87 -17.5t52.5 -49t17.5 -72.5v-21q0 -29 -12 -54.5t-34.5 -44.5t-54 -30t-70.5 -11h-174q-52 0 -86.5 18t-52 47.5t-17.5 65.5v17q0 31 11.5 56.5
t34 43.5t54.5 25v25l57 -40q-40 -3 -63.5 -20t-33.5 -41t-10 -49v-17q0 -21 10.5 -40t34 -31t62.5 -12h186q29 0 49.5 10t33.5 23t18.5 27.5t5.5 31.5v19q0 38 -24 64.5t-83 26.5h-164q-28 0 -50.5 10.5t-35.5 31t-13 50.5zM345 490h75v-16q33 -17 46.5 -48t13.5 -64v-26
q0 -49 -25.5 -86t-71.5 -57.5t-108 -20.5t-108 20t-71.5 57t-25.5 86v26q0 52 25.5 90t71.5 59t108 21h136h135v-18v-18q0 -4 -3 -7.5t-8 -3.5h-86.5h-86.5h-87q-71 0 -113 -32t-42 -91v-26q0 -23 7.5 -42t22.5 -34q20 -19 51.5 -30t73.5 -11q71 0 113 31.5t42 86.5v26
q0 26 -8 48t-26.5 42t-50.5 38z" />
    <glyph glyph-name="h" unicode="h" 
d="M121 0q-3 0 -5.5 1.5t-4 3.5t-1.5 6v159.5v160v160.5v159v62v38h13.5h13h12.5q4 0 6 -1.5t3.5 -3.5t1.5 -6v-184.5v-185v-185v-184.5h-12.5h-13h-13.5zM147 363v72h25q20 23 40.5 41.5t43 32t47.5 20.5t53 7q35 0 61 -11t43 -31t26 -45.5t9 -55.5v-96v-95.5v-95.5v-53.5
v-52.5h-19.5h-19.5q-3 0 -5.5 1.5t-4 3.5t-1.5 6v124v124v124q0 54 -27 80t-72 26q-24 0 -47.5 -7.5t-47.5 -23t-49.5 -39t-54.5 -56.5z" />
    <glyph glyph-name="i" unicode="i" horiz-adv-x="350" 
d="M170 11v93.5v93.5v94v93.5v93.5h-20h-22h-22.5h-22.5h-22q-4 0 -7.5 3.5t-3.5 7.5v18v18h32h32h31.5h31.5h32q3 0 5.5 -1.5t4 -4t1.5 -5.5v-107.5v-106.5v-106.5v-107.5v-28.5v-29v-29.5h-19.5h-19.5q-4 0 -7.5 3.5t-3.5 7.5zM157 755h17.5h17h17h17.5q5 0 8 -3t3 -8v-69
h-17.5h-17h-17h-17.5q-5 0 -8 3t-3 8v69z" />
    <glyph glyph-name="j" unicode="j" horiz-adv-x="350" 
d="M234 526q4 0 6.5 -1.5t3.5 -4t1 -5.5v-117.5v-110.5v-108.5v-110.5v-118q0 -34 -8.5 -61.5t-25.5 -47.5t-43.5 -30.5t-62.5 -10.5q-23 0 -42 4t-32 9.5t-18 10.5q-1 2 -2 3.5t-1 4.5v18v18h12q15 -7 27.5 -12t26.5 -7t32 -2q21 0 37 6t27 18q8 9 13 20.5t7.5 26t2.5 32.5
v137v127.5v127.5v137h-11h-30.5h-31h-31h-30.5q-4 0 -7.5 3.5t-3.5 7.5v18v18h46h46h46h46zM180 756h17.5h17h17h17.5q5 0 8 -3t3 -8v-69h-17.5h-17h-17h-17.5q-5 0 -8 3t-3 8v69z" />
    <glyph glyph-name="k" unicode="k" 
d="M160 0h-12.5h-13h-13.5q-3 0 -5.5 1.5t-4 3.5t-1.5 6v160v159.5v159.5v160v62v38h13.5h13h12.5q4 0 6 -1.5t3.5 -3.5t1.5 -6v-184.5v-185v-185v-184.5zM491 0q-7 0 -12 2.5t-9 6.5q-4 5 -18.5 21.5t-34 39.5t-41 48t-39.5 46q-22 26 -35.5 43t-21.5 32t-16 33h-29l30 50
q47 -53 93 -106t92.5 -106.5t95.5 -109.5h-21h-16.5h-17.5zM146 238h25q12 18 23 32.5t22.5 27t24 25t28.5 26.5q21 19 51.5 46.5t67.5 61t76 69.5l50 3q4 0 6 -1.5t3.5 -3.5t1.5 -6q0 -1 -1.5 -4t-7.5 -8q-33 -30 -65 -58.5t-63.5 -56t-62 -54.5t-60.5 -53.5t-59.5 -53
t-59.5 -52.5v60z" />
    <glyph glyph-name="l" unicode="l" horiz-adv-x="350" 
d="M60 750h21.5h26.5h26.5h21.5h13t6 -1.5t3.5 -3.5t1.5 -6v-100v-135v-146v-135v-100q0 -25 2.5 -38.5t12.5 -23.5t26.5 -12t34.5 -2h11.5h8.5h12v-18v-18q0 -4 -1.5 -6t-3.5 -3.5t-6 -1.5h-8.5h-12.5h-17q-28 0 -48.5 6.5t-34 19.5t-20 33.5t-6.5 48.5v102.5v132v140
v127.5v93h-11h-14h-19.5h-14.5t-8 3t-3 8v18v18z" />
    <glyph glyph-name="m" unicode="m" horiz-adv-x="850" 
d="M740 0h-12.5h-13h-13.5q-3 0 -5.5 1.5t-4 3.5t-1.5 6v84v82.5v78v71.5v62q0 48 -20 74t-66 26q-29 0 -58.5 -15.5t-58 -45t-54.5 -72.5l-3 87h27q25 33 49 53.5t49.5 30t52.5 9.5t51 -8t42.5 -24.5t28.5 -43t10 -62.5v-62v-73v-80.5v-83.5v-49.5v-49.5zM450 0h-12.5h-13
h-13.5q-3 0 -5.5 1.5t-4 3.5t-1.5 6v85v82.5v78.5v73v65q0 29 -8.5 50t-26.5 32.5t-49 11.5q-27 0 -56 -15.5t-57.5 -45.5t-56.5 -74v89h25q23 29 46 50t49 32t55 11q31 0 55 -9.5t40.5 -27t25 -42.5t8.5 -57v-88v-98v-105v-109zM160 0h-10h-9.5h-9.5h-10q-3 0 -5 0.5
t-3.5 2t-2 3.5t-0.5 5v138v138.5v138.5v62v38h10h9.5h9.5h10l2 -13t4 -30t3.5 -30.5l1.5 -13.5v-122v-150.5v-166.5z" />
    <glyph glyph-name="n" unicode="n" 
d="M495 0h-19.5h-19.5q-3 0 -5.5 1.5t-4 3.5t-1.5 6v124v124v124q0 54 -27 80t-72 26q-24 0 -47.5 -7.5t-47.5 -23t-49.5 -39t-54.5 -56.5v72h25q26 31 54 53.5t60.5 35t69.5 12.5q35 0 61 -11t43 -31t26 -45.5t9 -55.5v-96v-95.5v-95.5v-53.5v-52.5zM160 0h-12.5h-13h-13.5
q-3 0 -5 0.5t-3.5 2t-2 3.5t-0.5 5v104v103.5v103.5v104v62v38h13.5h13h12.5q4 0 6 -1.5t3.5 -3.5t1.5 -6v-171v-172v-172z" />
    <glyph glyph-name="o" unicode="o" 
d="M300 536q49 0 88.5 -15.5t68 -43.5t43.5 -66t15 -83v-121q0 -64 -29 -113t-78 -76.5t-108 -27.5q-49 0 -88.5 15.5t-68 43.5t-43.5 66t-15 83v121q0 65 29 113.5t78 76t108 27.5zM309 488q-57 0 -95.5 -23.5t-58.5 -61.5t-20 -84v-114q0 -37 12.5 -68.5t34.5 -53.5
q20 -21 48 -33t61 -12q57 0 96 24.5t58.5 63t19.5 81.5v114q0 39 -12 70.5t-34 53.5q-20 20 -48 31.5t-62 11.5z" />
    <glyph glyph-name="p" unicode="p" 
d="M110 526h13.5h13h12.5q4 0 6 -1.5t3.5 -3.5t1.5 -6v-178.5v-179v-179v-178.5h-12.5h-13h-13.5q-3 0 -5.5 1.5t-4 4t-1.5 5.5v154v153.5v153.5v154v48.5v51.5zM343 536q53 0 94 -23.5t64.5 -67.5t23.5 -105v-144q0 -48 -13.5 -86t-38.5 -65t-59 -41t-75 -14q-36 0 -66.5 8
t-55 25t-45.5 45h-27v84q35 -62 82.5 -88.5t106.5 -26.5q43 0 74.5 19t49 56.5t17.5 90.5v130q0 39 -10.5 69t-30.5 50q-18 18 -43 27.5t-57 9.5q-35 0 -67 -15t-62 -47t-60 -85v92h27q21 33 46.5 55.5t56.5 34.5t68 12z" />
    <glyph glyph-name="q" unicode="q" 
d="M440 526h19.5h19.5q4 0 6 -1.5t3.5 -3.5t1.5 -6v-158v-161v-155v-141v-58.5v-41.5h-19.5h-19.5q-3 0 -5.5 1.5t-4 4t-1.5 5.5v154v153.5v153.5v154v32.5v33.5v34zM455 80h-27q-21 -32 -46.5 -52t-56 -29t-68.5 -9q-52 0 -93.5 23.5t-65 67.5t-23.5 105v144q0 48 13.5 86
t38.5 65t59 41t75 14q37 0 66.5 -10.5t54.5 -31t46 -51.5h27v-99q-43 76 -89.5 110.5t-99.5 34.5q-43 0 -74.5 -19t-49 -56t-17.5 -91v-130q0 -39 11 -69t30 -50q18 -18 43.5 -27.5t56.5 -9.5q37 0 68.5 14.5t61 45.5t59.5 82v-99z" />
    <glyph glyph-name="r" unicode="r" horiz-adv-x="450" 
d="M146 428h26q30 42 58.5 65.5t58 33t61.5 9.5q19 0 32.5 -2t24.5 -6q6 -2 8 -6t2 -11v-8.5v-8.5v-8.5v-8.5h-12q-11 3 -24 5t-31 2q-36 0 -69 -12t-65.5 -44t-69.5 -91v91zM160 0h-12.5h-13h-13.5q-3 0 -5 0.5t-3.5 2t-2 3.5t-0.5 5v36v78v101v106.5v93.5v62v38h13.5h13
h12.5q4 0 6 -1.5t3.5 -3.5t1.5 -6v-44v-96v-125.5v-133v-116.5z" />
    <glyph glyph-name="s" unicode="s" horiz-adv-x="550" 
d="M266 39q84 0 123.5 28.5t39.5 74.5q0 25 -11 42.5t-34 30t-60 21.5l-94 23q-51 13 -81.5 30t-44 41.5t-13.5 59.5q0 27 12.5 53t38 46.5t65 32.5t93.5 12q41 0 70 -4t48.5 -10t29.5 -12q4 -2 5.5 -4t2 -4t0.5 -5v-18v-19h-12q-24 12 -45.5 18t-46.5 8.5t-61 2.5
q-45 0 -78.5 -14t-52.5 -36t-19 -46q0 -22 8.5 -37t32 -26t67.5 -22l104 -26q40 -10 68 -29t43 -46t15 -63q0 -46 -26 -80t-73 -52t-111 -18q-36 0 -66 4t-54.5 12t-43 18t-31.5 22q-1 2 -2 3.5t-1 4.5v23.5v22.5h12q19 -17 38.5 -29t41.5 -19.5t47.5 -11t55.5 -3.5z" />
    <glyph glyph-name="t" unicode="t" horiz-adv-x="500" 
d="M50 526h369q5 0 8 -3t3 -8v-12v-11.5v-12.5h-369q-2 0 -4 1t-3.5 2.5t-2.5 3.5t-1 4v12.5v11.5v12zM430 47v-18v-18q0 -6 -2.5 -8.5t-8.5 -2.5h-17.5h-17h-17h-17.5q-45 0 -78.5 10.5t-56 33.5t-34 58.5t-11.5 86.5v100v100v100.5v101.5v54.5v54.5h19.5h19.5
q3 0 5.5 -1.5t4 -4t1.5 -5.5v-123.5v-123.5v-123.5v-123.5q0 -42 8.5 -71t26.5 -47q16 -16 40.5 -23t58.5 -7h20.5h20.5h20h15z" />
    <glyph glyph-name="u" unicode="u" 
d="M148 526q4 0 6 -1.5t3.5 -3.5t1.5 -6v-92.5v-93v-93v-93.5q0 -54 27 -80t72 -26q24 0 47.5 7.5t47.5 23t50 39t54 56.5v-72h-25q-26 -30 -54 -53t-60 -35.5t-70 -12.5q-34 0 -60.5 11t-43.5 31t-26 45.5t-9 55.5v89.5v89.5v89v63v62h19.5h19.5zM483 526q4 0 6 -1.5
t3.5 -3.5t1.5 -6v-138v-138.5v-138.5v-43.5v-34v-22.5h-12.5h-13h-13.5q-3 0 -5.5 1.5t-4 3.5t-1.5 6v172v172v171h13.5h13h12.5z" />
    <glyph glyph-name="v" unicode="v" 
d="M102 526q2 0 3.5 -0.5t2.5 -1.5t2 -4q30 -77 60.5 -154.5t61.5 -159t61 -170.5h13q19 53 37.5 104t37.5 100t37.5 97t37.5 95t37 94h22h21q3 0 5 -1.5t3 -3.5t-1 -6q-25 -64 -50 -128.5l-50 -129t-50 -128.5t-51 -129h-37.5h-35.5q-4 0 -7 1.5t-5.5 5t-5.5 10.5
q-19 50 -39 100.5t-39.5 101t-39.5 102t-40 102.5t-40 103h24.5h24.5z" />
    <glyph glyph-name="w" unicode="w" horiz-adv-x="800" 
d="M368 526h54q3 0 5.5 -1t4.5 -3t3 -7q13 -44 29 -101t33.5 -119t34.5 -123.5t30 -115.5h12q17 70 32.5 131t30.5 117t29.5 110.5t29.5 111.5h13.5h13.5h13q4 0 6.5 -1t4 -4t-0.5 -9q-13 -46 -29.5 -108.5t-35 -132t-37 -139.5t-35.5 -132h-17.5h-17.5h-18.5h-18.5
q-5 0 -7.5 3.5t-4.5 12.5q-6 23 -16.5 60t-24 83t-27 95.5t-26.5 98t-24 90.5h-14q-8 -34 -17.5 -71.5t-20 -76.5l-21 -78t-21.5 -77t-21 -73.5t-19 -66.5h-23h-23.5h-24.5q-5 0 -7.5 4t-5.5 15q-7 27 -19.5 71.5t-28 99t-31.5 113.5t-32 116.5t-29 106.5h14h14.5h14.5
q4 0 6.5 -1.5t4 -3.5t2.5 -6q9 -32 24.5 -86.5t33 -120t35.5 -131.5t31 -121h12q14 57 30 119.5t33 125.5t33.5 121t30.5 104z" />
    <glyph glyph-name="x" unicode="x" 
d="M81 526h25.5h25.5q7 0 12 -4t9 -9q38 -55 77 -110.5t76 -110.5l20 -20l96 -136l96 -136h-12h-12.5h-12.5h-12q-7 0 -11.5 2.5t-10.5 10.5q-21 30 -47.5 69t-54.5 81t-54 80l-19 17q-48 67 -95.5 133t-95.5 133zM273 284l36 -48h-27q-22 -40 -46 -79t-49 -78t-51 -79
l-40 -2q-5 0 -8 3t-3 8q0 4 2.5 8t6.5 10q45 65 89.5 129t89.5 128zM493 526q5 0 8.5 -2t3.5 -7q0 -2 -1 -4.5t-3 -6.5q-44 -63 -89 -127l-90 -128l-32 49h25q20 38 42 75.5t46.5 75.5t48.5 75h41z" />
    <glyph glyph-name="y" unicode="y" 
d="M534 526q5 0 10 -4t2 -12q-29 -81 -59 -163t-58.5 -161t-54 -150t-46.5 -129q-14 -39 -32.5 -62.5t-44.5 -34t-62 -10.5h-21h-23h-19h-11q-5 0 -8 2t-3 9v37h12h37.5h37.5q34 0 56 15t34 49q8 23 25 71t40.5 113.5t49.5 139.5t52.5 149t49.5 141h8.5h9h9h9.5zM92 526
q8 0 11.5 -2t6.5 -9q20 -48 44.5 -106.5t50 -119t47.5 -113.5t38 -90.5t21 -49.5h27l-14 -36h-27q-10 0 -15.5 2.5t-11 14t-16.5 36.5q-10 23 -27 62.5t-39 89t-46 105l-48 111t-46 105.5h10.5h11h11h11.5z" />
    <glyph glyph-name="z" unicode="z" horiz-adv-x="550" 
d="M82 526h375q4 0 6 -1.5t3.5 -3.5t1.5 -6v-46q-28 -36 -57 -73t-58.5 -74t-59 -73.5t-58.5 -72t-58 -70.5q-12 -14 -23 -25.5t-24 -22.5v-11h40.5h40.5h246q5 0 8 -3t3 -8v-18v-18h-375q-3 0 -5.5 1.5t-4 3.5t-1.5 6v56q43 52 86.5 105.5t86.5 106.5t84 105q18 23 35 43
t36 40v12h-55.5h-55.5h-206q-3 0 -5.5 1.5t-4 4t-1.5 5.5v18v18z" />
    <glyph glyph-name="braceleft" unicode="{" horiz-adv-x="550" 
d="M347 149q0 -33 -12 -56.5t-28.5 -42.5t-28.5 -37t-12 -39v-22v-22q7 -21 20 -31t35 -10h84h84h8v-19.5v-19.5q0 -5 -3 -8t-8 -3h-167q-38 0 -61 16t-32.5 38t-9.5 39v54q0 26 12 45.5t28.5 37t28.5 37t12 46.5q0 37 -26.5 64.5t-74 43t-111.5 15.5h-21q-5 0 -8 3t-3 8
v19.5v19.5h32q64 0 111.5 15t74 42t26.5 64q0 27 -12 47t-28.5 37.5t-28.5 37t-12 45.5v54q0 18 9.5 39.5t32.5 37.5t61 16h167q5 0 8 -3t3 -8v-19.5v-19.5h-8h-84h-84q-22 0 -35 -10t-20 -31v-22v-22q0 -21 12 -39t28.5 -37.5t28.5 -43t12 -56.5q0 -50 -31 -87t-88 -59v-6
q61 -22 90 -60.5t29 -87.5z" />
    <glyph glyph-name="bar" unicode="|" horiz-adv-x="300" 
d="M125 760h19.5h19.5q5 0 8 -3t3 -8v-182v-182v-182v-182v-182h-19.5h-19.5q-5 0 -8 3t-3 8v202.5v203v203v202.5v49.5v49.5z" />
    <glyph glyph-name="braceright" unicode="}" horiz-adv-x="550" 
d="M203 450q0 33 12 56.5t28.5 42.5t28.5 37t12 39v22v22q-7 21 -20 31t-35 10h-84h-84h-8v19.5v19.5q0 5 3 8t8 3h167q38 0 61 -16t32.5 -38t9.5 -39v-54q0 -26 -12 -45.5t-28.5 -37t-28.5 -37t-12 -46.5q0 -37 26.5 -64.5t74 -43t111.5 -15.5h21q5 0 8 -3t3 -8v-19.5
v-19.5h-32q-64 0 -111.5 -15t-74 -42t-26.5 -64q0 -27 12 -47t28.5 -37.5t28.5 -37t12 -45.5v-54q0 -18 -9.5 -39.5t-32.5 -37.5t-61 -16h-167q-5 0 -8 3t-3 8v19.5v19.5h8h84h84q22 0 35 10t20 31v22v22q0 21 -12 39t-28.5 37.5t-28.5 43t-12 56.5q0 50 31 87t88 59v6
q-61 22 -90 60.5t-29 87.5z" />
    <glyph glyph-name="asciitilde" unicode="~" 
d="M424 275q35 0 58 12.5t49 41.5h12v-9v-10v-10.5v-10.5q0 -3 -1 -7t-7 -10q-19 -19 -44.5 -31.5t-65.5 -12.5q-36 0 -68.5 15t-62 35t-59 35t-59.5 15q-34 0 -57.5 -12.5t-49.5 -41.5h-12v9.5v9.5v10.5v10.5q0 2 0.5 4.5t2 5.5t5.5 7q19 20 44.5 32t65.5 12q36 0 68.5 -15
t62 -35t59 -35t59.5 -15z" />
    <glyph glyph-name="uni00A0" unicode="&#xa0;" horiz-adv-x="300" 
 />
    <glyph glyph-name="exclamdown" unicode="&#xa1;" horiz-adv-x="350" 
d="M152 286h35q3 0 4.5 -1t3.5 -2q1 -2 2.5 -8t3 -30t3.5 -76t6 -145v-88v-55v-55h-29.5h-29.5q-4 0 -6 1.5t-3.5 3.5t-1.5 6v187q2 43 4 87t4 87.5t4 87.5zM128 531h28h26.5h28.5q3 0 5.5 -1.5t4 -4t1.5 -5.5v-89h-28.5h-26.5h-28q-4 0 -6 1.5t-3.5 3.5t-1.5 6v89z" />
    <glyph glyph-name="cent" unicode="&#xa2;" 
d="M337 625q42 0 74 -8t53 -18t28 -18q4 -4 5 -6.5t1 -6.5v-11v-12.5v-12.5h-12q-31 21 -65 33.5t-84 12.5q-64 0 -105.5 -21.5t-61.5 -64t-20 -105.5v-77q0 -46 12 -81.5t37 -58.5q23 -22 56.5 -33t76.5 -11q35 0 61 5.5t48 16t45 24.5h12v-12.5v-12.5v-13q0 -2 -0.5 -4
t-2.5 -4q-12 -12 -36 -23t-56.5 -17.5t-69.5 -6.5q-56 0 -99.5 14.5t-73 43t-45 70.5t-15.5 96v92q0 78 31.5 129t85 76t120.5 25zM349 404l-27 8q-3 0 -5.5 1.5t-4 4t-1.5 5.5v89.5v90.5v80v42v42h19h16h19q3 0 5.5 -1.5t4 -4t0.5 -7.5q-1 -8 -3 -35t-4.5 -66t-6 -83
t-6.5 -87.5t-6 -78.5zM311 298l27 -8q4 0 6 -1.5t3.5 -3.5t1.5 -6v-87.5v-88v-84.5v-42v-42h-19h-15.5h-19.5q-3 0 -5.5 1.5t-3.5 4.5t-1 7q3 38 6 80.5t6.5 88t7 91.5t6.5 90z" />
    <glyph glyph-name="sterling" unicode="&#xa3;" 
d="M70 370h369q4 0 6 -1.5t3.5 -3.5t1.5 -6v-10.5v-10.5v-11h-369q-3 0 -5.5 1.5t-4 4t-1.5 5.5v11v10.5v10.5zM353 673q-33 0 -58 -9t-42 -26q-16 -16 -24.5 -39.5t-8.5 -53.5v-104.5v-111v-98.5v-66q0 -26 -4.5 -48t-16.5 -42t-36 -40l22 50v-62l-30 20h58h75h70h43h41
h49.5h36.5h12v-16v-16q0 -5 -3 -8t-8 -3h-26.5h-62h-80h-81h-65.5h-33h-12h-32.5h-44.5h-31q-5 0 -8 3t-3 8v8v8v8v8h13q31 0 55 13.5t38 38.5t14 61v62v96.5v111.5v106v17q0 43 20.5 82t61 64t101.5 25q54 0 95 -15.5t63 -38.5q2 -1 2.5 -3t0.5 -5v-12.5v-15.5v-16h-11
q-36 30 -68.5 44.5t-81.5 14.5z" />
    <glyph glyph-name="currency" unicode="&#xa4;" 
d="M214 420l-14 -14l-15 -15q-2 -2 -4 -2.5t-4 0t-4 2.5l-39.5 39.5l-39.5 39.5l14 14l15 15q2 2 3.5 2.5t2.5 0.5q3 0 6 -3l40 -40zM384 420l39 39l40 40q3 3 6 3q2 0 3.5 -0.5t2.5 -2.5l15 -15l14 -14l-39.5 -39.5l-39.5 -39.5q-2 -2 -4 -2.5t-4 0t-4 2.5l-7.5 7.5
l-7.5 7.5l-7.5 7.5zM384 180l14.5 14.5l14.5 14.5q3 3 6 3t6 -3l39.5 -39.5l39.5 -39.5l-14 -14l-15 -15q-1 -1 -2.5 -2t-3.5 -1q-3 0 -6 3l-40 40zM214 180l-39 -39l-40 -40q-3 -3 -6 -3q-1 0 -2.5 1t-3.5 2l-15 15l-14 14l39.5 39.5l39.5 39.5q2 2 4 2.5t4 0t4 -2.5
l7.5 -7.5l7.5 -7.5l7.5 -7.5zM136 321q0 45 20 78t57 51t87 18t87 -18t57 -51t20 -78v-40q0 -45 -20 -78t-57 -51t-87 -18t-87 18t-57 51t-20 78v40zM187 281q0 -22 6.5 -39.5t19.5 -30.5q14 -14 36.5 -21.5t50.5 -7.5q53 0 83 26.5t30 72.5v40q0 22 -6 39t-19 30
q-14 14 -36.5 22t-51.5 8q-53 0 -83 -26t-30 -73v-40z" />
    <glyph glyph-name="yen" unicode="&#xa5;" 
d="M56 450h168v-47h-157q-3 0 -5.5 1.5t-4 4t-1.5 5.5v12v12.5v11.5zM376 450h157q5 0 8 -3t3 -8v-11.5v-12.5v-12h-168v47zM544 153h-477q-5 0 -8 3t-3 8v12v12.5v11.5h477q4 0 6 -1.5t3.5 -3.5t1.5 -6v-11.5v-12.5v-12zM325 283v-71.5v-68v-43.5v-49v-51h-10h-9.5h-9.5
h-10q-3 0 -5.5 1.5t-4 3.5t-1.5 6v70v67.5v67.5v69q-23 40 -46.5 82l-47 84t-47.5 84.5t-47 83.5t-46 81h15.5h15.5h15q6 0 9 -1t5 -3.5t3 -5.5q23 -41 47 -84t49.5 -91t54.5 -104t63 -125l-38 46h40l-35 -46q35 71 65 128.5t56 106.5t50.5 92.5t48.5 86.5h22h21q6 0 7.5 -4
t-1.5 -9q-27 -48 -55.5 -99t-58 -102.5t-58.5 -102.5t-57 -100z" />
    <glyph glyph-name="brokenbar" unicode="&#xa6;" horiz-adv-x="350" 
d="M150 760h19.5h19.5q2 0 4.5 -0.5t3.5 -2.5q2 -1 2.5 -3.5t0.5 -4.5v-380h-19.5h-19.5q-5 0 -8 3t-3 8v281v49.5v49.5zM150 231h19.5h19.5q5 0 8 -3t3 -8v-380h-19.5h-19.5q-3 0 -5.5 1.5t-4 4t-1.5 5.5v380z" />
    <glyph glyph-name="section" unicode="&#xa7;" 
d="M317 716q33 0 62 -4t54 -11t44 -17t32 -23q3 -3 5 -5.5t2.5 -4.5t0.5 -6v-62.5v-60.5h-19.5h-19.5q-5 0 -8 3t-3 8v33.5v33v33.5v33l25 -46q-62 49 -175 49q-40 0 -72.5 -9t-56 -26t-36.5 -41t-13 -53v-32q0 -30 14.5 -50.5t45.5 -36t82 -30.5l97 -28q57 -16 89.5 -40.5
t45.5 -57t13 -73.5v-32q0 -22 -6.5 -41t-19 -34t-30.5 -25v-17l-49 10q22 20 33.5 35.5t16.5 33t5 41.5v18q0 35 -10 59.5t-35.5 42.5t-70.5 31l-98 29q-62 19 -100 40.5t-55 50t-17 65.5v46q0 38 17 69t47.5 54t72 35.5t90.5 12.5zM299 -203q83 0 130 31.5t47 88.5v18
q0 31 -12 49.5t-39 32t-72 26.5l-98 29q-62 19 -98.5 42.5t-51.5 53.5t-15 67v30q0 38 16.5 69t44.5 44v23l57 -18q-31 -19 -45.5 -35.5t-19 -36.5t-4.5 -51v-16q0 -30 12 -52.5t40.5 -40t79.5 -32.5l97 -28q57 -16 91.5 -36.5t50.5 -50t16 -74.5v-14q0 -37 -15.5 -67.5
t-45 -52.5t-71.5 -34t-95 -12q-34 0 -66 5t-60.5 14.5t-52 23t-40.5 30.5q-1 2 -2 3.5t-1 4.5v23.5v23.5h12q47 -45 95 -63t115 -18z" />
    <glyph glyph-name="dieresis" unicode="&#xa8;" 
d="M160 756h34.5h34.5q4 0 6 -1.5t3.5 -3.5t1.5 -6v-69h-34.5h-34.5q-3 0 -5.5 1.5t-4 4t-1.5 5.5v69zM360 756h34.5h34.5q4 0 6 -1.5t3.5 -3.5t1.5 -6v-69h-34.5h-34.5q-3 0 -5.5 1.5t-4 4t-1.5 5.5v69z" />
    <glyph glyph-name="copyright" unicode="&#xa9;" 
d="M300 715q90 0 151.5 -33t93.5 -96.5t32 -156.5v-168q0 -87 -32.5 -149t-94.5 -94.5t-150 -32.5q-89 0 -151 33t-94 97t-32 156v168q0 88 32.5 149.5t94.5 94t150 32.5zM300 668q-73 0 -124 -25.5t-78 -75t-27 -121.5v-191q0 -55 16 -97.5t46 -70.5q29 -27 71 -41t96 -14
q73 0 124 25.5t78 75.5t27 121v191q0 52 -14 92.5t-41 68.5q-29 31 -73 46.5t-101 15.5zM308 566q36 0 62 -12t44 -32q3 -3 4 -5t1 -6v-41v-41h-18h-18q-5 0 -8 3t-3 8v34.5v56.5l19 -49q-19 22 -36.5 30t-46.5 8t-49 -9.5t-29.5 -29t-9.5 -49.5v-158q0 -27 5 -45.5
t17 -29.5q10 -10 26 -14.5t38 -4.5q35 0 58.5 11t44.5 39h12v-20v-20q0 -9 -1 -11.5t-5 -7.5q-13 -18 -43.5 -27.5t-65.5 -9.5q-46 0 -75.5 16.5t-44 47.5t-14.5 75v158q0 66 36 100.5t100 34.5z" />
    <glyph glyph-name="ordfeminine" unicode="&#xaa;" 
d="M261 299q-33 0 -61 11t-48.5 32.5t-32 52t-11.5 69.5v121q0 54 20 92.5t55.5 59.5t81.5 21t79.5 -18.5t58.5 -57.5h21l4 -79q-36 64 -75.5 90t-83.5 26q-36 0 -63 -16t-41.5 -47.5t-14.5 -76.5v-109q0 -33 9.5 -58t25.5 -42q15 -15 36 -23t48 -8q30 0 57 11.5t52.5 37
t49.5 67.5l-3 -77h-22q-25 -40 -60 -59.5t-82 -19.5zM520 346v-14v-15q0 -5 -2 -7t-7 -2h-6.5h-4.5q-26 0 -45 8.5t-29.5 26t-10.5 45.5v89.5v89v88.5v32v31.5v31.5h16.5h16.5q5 0 7 -2.5t2 -7.5v-116v-116v-116q0 -23 9.5 -34.5t31.5 -11.5h6.5h5.5h10z" />
    <glyph glyph-name="guillemotleft" unicode="&#xab;" 
d="M307 90v-12h-20.5h-21.5q-10 0 -14 2t-12 10q-4 4 -20 21t-38 40t-44.5 46.5t-39.5 41.5t-23 24q-7 8 -8.5 12t-1.5 10v20v20q23 25 49.5 52.5t51.5 54.5t45 48t31 32q7 7 12 8.5t14 1.5h20h20v-12q-45 -47 -79.5 -84t-63 -67.5t-55.5 -59.5q29 -31 56.5 -60.5t61.5 -65
t80 -83.5zM537 90v-12h-20.5h-21.5q-10 0 -14 2t-12 10q-4 4 -20 21t-38 40t-44.5 46.5t-39.5 41.5t-23 24q-7 8 -8.5 12t-1.5 10v20v20q23 25 49.5 52.5t51.5 54.5t45 48t31 32q7 7 12 8.5t14 1.5h20h20v-12q-45 -47 -79.5 -84t-63 -67.5t-55.5 -59.5q29 -31 56.5 -60.5
t61.5 -65t80 -83.5z" />
    <glyph glyph-name="logicalnot" unicode="&#xac;" 
d="M76 410h437q4 0 6 -1.5t3.5 -3.5t1.5 -6v-129v-130h-19.5h-19.5q-3 0 -5.5 1.5t-4 4t-1.5 5.5v113v113l23 -17h-410q-3 0 -5.5 1.5t-4 4t-1.5 5.5v19.5v19.5z" />
    <glyph glyph-name="uni00AD" unicode="&#xad;" 
d="M91 325h257q4 0 6 -1.5t3.5 -3.5t1.5 -6v-19.5v-19.5h-257q-3 0 -5 0.5t-3.5 2t-2 3.5t-0.5 5v19.5v19.5z" />
    <glyph glyph-name="registered" unicode="&#xae;" 
d="M300 760q60 0 106 -14.5t77.5 -43.5t47.5 -70.5t16 -95.5v-130q0 -49 -16.5 -87t-48 -64t-77.5 -39.5t-105 -13.5q-72 0 -128 22t-87.5 69.5t-31.5 122.5v130q0 51 16.5 91t48 67t77.5 41.5t105 14.5zM300 713q-48 0 -85 -10.5t-62.5 -31t-38.5 -50t-13 -68.5v-153
q0 -36 13 -64t38 -48q26 -19 63 -29t85 -10t85 10t62.5 29t38.5 47t13 64v153q0 38 -12.5 67t-35.5 50q-25 22 -63 33t-88 11zM212 608h12q9 0 12 -2.5t3 -7.5v-94v-94v-41.5v-41.5h-15.5h-16.5q-5 0 -8 3t-3 8v90v90v90h16zM323 635q31 0 52.5 -9t33 -26.5t11.5 -44.5v-30
q0 -19 -6.5 -35t-18.5 -28t-29 -18.5t-39 -6.5h-48h-49q-2 0 -4 2t-2 4v11v25h109q20 0 32 11.5t12 29.5v32q0 11 -2.5 18.5t-7.5 12.5q-10 10 -34 10h-50h-49.5h-49.5q-5 0 -8 3t-3 8v16v15h75.5h74.5zM343 466q9 -22 17.5 -44t17.5 -45q3 -7 6.5 -9.5t12.5 -2.5h10h10h3
v-14.5v-15.5q0 -6 -2.5 -8.5t-8.5 -2.5h-8q-24 0 -37 7t-24 33q-8 21 -16.5 41.5t-16.5 41.5z" />
    <glyph glyph-name="macron" unicode="&#xaf;" 
d="M126 740h337q5 0 8 -3t3 -8v-12.5v-13v-13.5h-337q-3 0 -5.5 1.5t-4 4t-1.5 5.5v13.5v13v12.5z" />
    <glyph glyph-name="degree" unicode="&#xb0;" 
d="M300 710q50 0 87 -18t57 -51t20 -78v-40q0 -45 -20 -78t-57 -51t-87 -18t-87 18t-57 51t-20 78v40q0 45 20 78t57 51t87 18zM300 424q53 0 83 26.5t30 72.5v40q0 45 -26 69q-14 15 -36 22.5t-51 7.5q-53 0 -83 -26t-30 -73v-40q0 -44 26 -70q14 -14 36 -21.5t51 -7.5z
" />
    <glyph glyph-name="plusminus" unicode="&#xb1;" 
d="M275 577h19.5h19.5q5 0 8 -3t3 -8v-88v-87.5v-87.5v-88h-19.5h-19.5q-5 0 -8 3t-3 8v85t0.5 85.5t-0.5 72.5v54v54zM76 421h437q4 0 6 -1.5t3.5 -3.5t1.5 -6v-19.5v-19.5h-437q-5 0 -8 3t-3 8v19.5v19.5zM76 150h437q4 0 6 -1.5t3.5 -3.5t1.5 -6v-19.5v-19.5h-437
q-3 0 -5.5 1.5t-4 4t-1.5 5.5v19.5v19.5z" />
    <glyph glyph-name="uni00B2" unicode="&#xb2;" horiz-adv-x="400" 
d="M340 372h-21.5h-46.5h-59h-58.5h-46.5h-22t-5.5 1.5t-4 4t-1.5 5.5v24q0 40 9 72.5t35 59t75 46.5q42 17 65 30.5t32 30.5t9 41q0 16 -6.5 29t-17.5 20q-9 6 -24 10.5t-44 4.5q-43 0 -72 -11t-49 -28h-12v9v9.5v9v8.5q0 5 1 9t7 8q14 11 47.5 21.5t75.5 10.5q47 0 78 -13
t46.5 -38t15.5 -63v-6q0 -27 -12 -49.5t-39 -41t-72 -34.5q-48 -16 -70 -38t-29.5 -52.5t-12.5 -74.5l5 64v-72l-25 24q30 8 58 11.5t62 3.5h118q5 0 8 -3t3 -8v-8.5v-9v-9v-8.5z" />
    <glyph glyph-name="uni00B3" unicode="&#xb3;" horiz-adv-x="400" 
d="M333 682q0 -34 -23.5 -62.5t-71.5 -37.5l29 28v-50l-29 26q38 -7 59.5 -22.5t31 -36t9.5 -42.5v-6q0 -35 -15 -61.5t-45 -41t-76 -14.5q-53 0 -87 11t-47 23q-3 3 -4.5 6t-1.5 8v9v8.5v9v8.5h12q26 -22 56.5 -30.5t64.5 -8.5q48 0 72.5 19t24.5 56q0 23 -15.5 41
t-48.5 29t-87 11q-5 0 -8 3t-3 8v9.5v9.5v10q54 0 88.5 8.5t51.5 27t17 47.5q0 33 -21.5 49.5t-70.5 16.5q-38 0 -69.5 -9.5t-50.5 -26.5h-12v8.5v8.5v8v8q0 5 1 9t7 8q14 11 45.5 21.5t75.5 10.5q56 0 86.5 -14.5t42.5 -39t12 -55.5v-6z" />
    <glyph glyph-name="acute" unicode="&#xb4;" 
d="M400 835h26.5h23.5q8 0 9.5 -6t-3.5 -12q-23 -30 -41.5 -54t-38 -48.5t-46.5 -59.5q-2 -3 -6.5 -5.5t-10.5 -2.5h-18.5h-17.5q20 30 40.5 61.5t41.5 63.5t41 63z" />
    <glyph glyph-name="uni00B5" unicode="&#xb5;" 
d="M109 157h29l33 -129l-24 -14q10 -67 14 -107t4 -42v-32v-33h-20h-25q-3 0 -5.5 1.5t-4 4t-1.5 5.5v116v114v116zM148 526q4 0 6 -1.5t3.5 -3.5t1.5 -6v-161v-65v-65.5v-65.5q0 -64 24.5 -92.5t67.5 -28.5q27 0 52 7.5t50.5 24t53 41.5t59.5 61v-89h-38q-23 -36 -51.5 -56
t-60.5 -28t-67 -8q-34 0 -60.5 11t-44 31.5t-26.5 49.5t-9 66v142v142v31.5v31v31.5h19.5h19.5zM451 526h19.5h19.5v-215v-215q0 -16 2.5 -27t8.5 -19q11 -14 33 -14h7.5h7.5h6v-17.5v-17.5q0 -4 -1.5 -6.5t-3.5 -3.5t-6 -1h-5q-29 0 -51.5 10t-35 31t-12.5 55v214.5v214.5
q0 3 1.5 5.5t4 4t5.5 1.5z" />
    <glyph glyph-name="paragraph" unicode="&#xb6;" 
d="M289 653q-59 0 -96 -18t-54.5 -55.5t-17.5 -94.5v-85q0 -57 15.5 -90.5t49 -48t87.5 -14.5h66v-47h-33h-31h-15q-69 0 -110.5 26t-60 71t-18.5 103v85q0 60 20.5 109t65.5 77.5t118 28.5h277q2 0 4.5 -0.5t3.5 -2.5q2 -1 2.5 -3.5t0.5 -4.5v-12v-12v-12h-11h-74h-91.5
h-97.5zM328 670h21q4 0 6 -1.5t3.5 -3.5t1.5 -6v-174.5v-206v-218v-210.5h-19.5h-19.5q-5 0 -8 3t-3 8v134.5v135v135v135v135v134.5h18zM479 670h20q4 0 6 -1.5t3.5 -3.5t1.5 -6v-174.5v-175v-175v-174.5v-58v-52h-19.5h-19.5q-5 0 -8 3t-3 8v162v161.5v161.5v162v162h19z
" />
    <glyph glyph-name="periodcentered" unicode="&#xb7;" horiz-adv-x="350" 
d="M222 260h-28h-26.5h-28.5q-3 0 -5.5 1.5t-4 4t-1.5 5.5v89h28.5h26.5h28q4 0 6 -1.5t3.5 -3.5t1.5 -6v-89z" />
    <glyph glyph-name="cedilla" unicode="&#xb8;" 
d="M326 22q-1 -6 -2.5 -13t-3 -13.5t-2.5 -13.5t-3 -13l-2 -11q38 -2 60 -23t22 -59q0 -41 -31 -68.5t-87 -27.5q-26 0 -43 4.5t-25.5 11.5t-8.5 12v13.5v10.5v10h12q11 -10 25 -15t42 -5q32 0 51.5 14t19.5 39q0 23 -14.5 34.5t-59.5 12.5q-5 0 -8 3t-3 8q2 10 3.5 19.5
t3.5 19t3.5 18.5t3.5 19q1 7 4.5 9.5t13 3t29.5 0.5z" />
    <glyph glyph-name="uni00B9" unicode="&#xb9;" horiz-adv-x="400" 
d="M71 418h267q5 0 8 -3t3 -8v-8.5v-9v-9v-8.5h-267q-5 0 -8 3t-3 8v8v8.5v9.5v9zM237 397h-51l5 13v13v11.5v8.5v31v72v89.5v86v59.5l17 -30h-44l28 26q-8 -22 -19.5 -43.5t-26 -42.5t-35.5 -44q-16 -18 -22 -23t-10 -5q-3 0 -4.5 1.5t-1.5 4.5v51q11 14 25.5 32t24.5 30
q12 14 24.5 30t24.5 29h14.5h14.5h13.5h11.5t8 -3t3 -8v-30.5v-72v-91.5v-91.5v-72v-31.5z" />
    <glyph glyph-name="ordmasculine" unicode="&#xba;" 
d="M300 761q58 0 101 -22.5t66.5 -62t23.5 -90.5v-112q0 -54 -26 -95.5t-69.5 -64.5t-95.5 -23q-58 0 -101 22.5t-66.5 62.5t-23.5 90v113q0 54 26 95t69.5 64t95.5 23zM308 721q-51 0 -86 -19.5t-53 -52t-18 -70.5v-107q0 -32 11.5 -58.5t32.5 -45.5q18 -16 43 -26t54 -10
q52 0 86.5 20.5t52.5 53t18 68.5v106q0 28 -8 51.5t-23 41.5q-19 23 -47 35t-63 13z" />
    <glyph glyph-name="guillemotright" unicode="&#xbb;" 
d="M294 510v12h20.5h21.5q10 0 14 -2t12 -10q4 -4 20 -21t38 -40t44.5 -46.5t39.5 -41.5t23 -24q7 -8 8.5 -12t1.5 -10v-20v-20q-23 -25 -49.5 -52.5t-51.5 -54.5t-45 -48t-31 -32q-7 -7 -12 -8.5t-14 -1.5h-20h-20v12q45 47 79.5 84t63 67.5t55.5 59.5q-29 31 -56.5 60.5
t-61.5 65t-80 83.5zM64 510v12h20.5h21.5q10 0 14 -2t12 -10q4 -4 20 -21t38 -40t44.5 -46.5t39.5 -41.5t23 -24q7 -8 8.5 -12t1.5 -10v-20v-20q-23 -25 -49.5 -52.5t-51.5 -54.5t-45 -48t-31 -32q-7 -7 -12 -8.5t-14 -1.5h-20h-20v12q45 47 79.5 84t63 67.5t55.5 59.5
q-29 31 -56.5 60.5t-61.5 65t-80 83.5z" />
    <glyph glyph-name="onequarter" unicode="&#xbc;" 
d="M373 405l25.5 51t25 50.5l25 51l25 51l25 51t25.5 50.5h8.5h11.5h11.5h9.5q6 0 8.5 -3.5t-0.5 -9.5q-12 -24 -23.5 -47.5t-23.5 -47.5t-24 -47.5t-24 -47.5t-23.5 -47.5t-23.5 -47.5q-2 -4 -4 -5.5t-6 -1.5h-14h-19.5h-14.5zM227 296q-13 -25 -25.5 -50.5l-25 -51
l-25 -51l-25 -51t-25 -50.5l-25.5 -51h-8.5h-11.5h-11.5h-9.5q-6 0 -8.5 3.5t0.5 9.5q12 24 23.5 47.5t23.5 47.5t24 47.5t24 47.5t23.5 47.5t23.5 47.5q2 5 4 6t6 1h14.5h19.5h14zM41 418h267q5 0 8 -3t3 -8v-8.5v-9v-9v-8.5h-267q-5 0 -8 3t-3 8v8v8.5v9.5v9zM207 397h-51
l5 13v13v11.5v8.5v31v72v89.5v86v59.5l17 -30h-44l28 26q-8 -22 -19.5 -43.5t-26 -42.5t-35.5 -44q-16 -18 -22 -23t-10 -5q-3 0 -4.5 1.5t-1.5 4.5v51q11 14 25.5 32t24.5 30q12 14 24.5 30t24.5 29h14.5h14.5h13.5h11.5t8 -3t3 -8v-30.5v-72v-91.5v-91.5v-72v-31.5z
M491 -118h-8.5h-9h-9h-8.5q-5 0 -8 3t-3 8v165q0 2 1 12.5t2.5 24.5t3 27t2.5 19h26q5 0 8 -3t3 -8v-197v-25v-26zM551 -26h-295q-5 0 -8 3t-3 8v23q0 1 9.5 22.5t24.5 55t32 71.5t33 73t26.5 58t11.5 26q3 5 6.5 6.5t7.5 1.5h8h8.5h8.5h8v-12q-1 -3 -11.5 -25.5t-25.5 -56
t-31.5 -71t-32 -72t-26 -58t-12.5 -28.5l11 42v-51l-16 15q15 5 30 8.5t34.5 5t45.5 1.5h145q5 0 8 -3t3 -8v-8.5v-9v-9v-8.5z" />
    <glyph glyph-name="onehalf" unicode="&#xbd;" 
d="M373 405l25.5 51t25 50.5l25 51l25 51l25 51t25.5 50.5h8.5h11.5h11.5h9.5q6 0 8.5 -3.5t-0.5 -9.5q-12 -24 -23.5 -47.5t-23.5 -47.5t-24 -47.5t-24 -47.5t-23.5 -47.5t-23.5 -47.5q-2 -4 -4 -5.5t-6 -1.5h-14h-19.5h-14.5zM227 296q-13 -25 -25.5 -50.5l-25 -51
l-25 -51l-25 -51t-25 -50.5l-25.5 -51h-8.5h-11.5h-11.5h-9.5q-6 0 -8.5 3.5t0.5 9.5q12 24 23.5 47.5t23.5 47.5t24 47.5t24 47.5t23.5 47.5t23.5 47.5q2 5 4 6t6 1h14.5h19.5h14zM41 418h267q5 0 8 -3t3 -8v-8.5v-9v-9v-8.5h-267q-5 0 -8 3t-3 8v8v8.5v9.5v9zM207 397h-51
l5 13v13v11.5v8.5v31v72v89.5v86v59.5l17 -30h-44l28 26q-8 -22 -19.5 -43.5t-26 -42.5t-35.5 -44q-16 -18 -22 -23t-10 -5q-3 0 -4.5 1.5t-1.5 4.5v51q11 14 25.5 32t24.5 30q12 14 24.5 30t24.5 29h14.5h14.5h13.5h11.5t8 -3t3 -8v-30.5v-72v-91.5v-91.5v-72v-31.5z
M540 -108h-21.5h-46.5h-59h-58.5h-46.5h-22t-5.5 1.5t-4 4t-1.5 5.5v24q0 40 9 72.5t35 59t75 46.5q42 17 65 30.5t32 30.5t9 41q0 16 -6.5 29t-17.5 20q-9 6 -24 10.5t-44 4.5q-43 0 -72 -11t-49 -28h-12v9v9.5v9v8.5q0 5 1 9t7 8q14 11 47.5 21.5t75.5 10.5q47 0 78 -13
t46.5 -38t15.5 -63v-6q0 -27 -12 -49.5t-39 -41t-72 -34.5q-48 -16 -70 -38t-29.5 -52.5t-12.5 -74.5l5 64v-72l-25 24q30 8 58 11.5t62 3.5h118q5 0 8 -3t3 -8v-8.5v-9v-9v-8.5z" />
    <glyph glyph-name="threequarters" unicode="&#xbe;" 
d="M373 405l25.5 51t25 50.5l25 51l25 51l25 51t25.5 50.5h8.5h11.5h11.5h9.5q6 0 8.5 -3.5t-0.5 -9.5q-12 -24 -23.5 -47.5t-23.5 -47.5t-24 -47.5t-24 -47.5t-23.5 -47.5t-23.5 -47.5q-2 -4 -4 -5.5t-6 -1.5h-14h-19.5h-14.5zM227 296q-13 -25 -25.5 -50.5l-25 -51
l-25 -51l-25 -51t-25 -50.5l-25.5 -51h-8.5h-11.5h-11.5h-9.5q-6 0 -8.5 3.5t0.5 9.5q12 24 23.5 47.5t23.5 47.5t24 47.5t24 47.5t23.5 47.5t23.5 47.5q2 5 4 6t6 1h14.5h19.5h14zM323 682q0 -34 -23.5 -62.5t-71.5 -37.5l29 28v-50l-29 26q38 -7 59.5 -22.5t31 -36
t9.5 -42.5v-6q0 -35 -15 -61.5t-45 -41t-76 -14.5q-53 0 -87 11t-47 23q-3 3 -4.5 6t-1.5 8v9v8.5v9v8.5h12q26 -22 56.5 -30.5t64.5 -8.5q48 0 72.5 19t24.5 56q0 23 -15.5 41t-48.5 29t-87 11q-5 0 -8 3t-3 8v9.5v9.5v10q54 0 88.5 8.5t51.5 27t17 47.5q0 33 -21.5 49.5
t-70.5 16.5q-38 0 -69.5 -9.5t-50.5 -26.5h-12v8.5v8.5v8v8q0 5 1 9t7 8q14 11 45.5 21.5t75.5 10.5q56 0 86.5 -14.5t42.5 -39t12 -55.5v-6zM491 -118h-8.5h-9h-9h-8.5q-5 0 -8 3t-3 8v165q0 2 1 12.5t2.5 24.5t3 27t2.5 19h26q5 0 8 -3t3 -8v-197v-25v-26zM551 -26h-295
q-5 0 -8 3t-3 8v23q0 1 9.5 22.5t24.5 55t32 71.5t33 73t26.5 58t11.5 26q3 5 6.5 6.5t7.5 1.5h8h8.5h8.5h8v-12q-1 -3 -11.5 -25.5t-25.5 -56t-31.5 -71t-32 -72t-26 -58t-12.5 -28.5l11 42v-51l-16 15q15 5 30 8.5t34.5 5t45.5 1.5h145q5 0 8 -3t3 -8v-8.5v-9v-9v-8.5z
" />
    <glyph glyph-name="questiondown" unicode="&#xbf;" 
d="M254 531h56h57q3 0 5.5 -1.5t4 -4t1.5 -5.5v-109h-57h-56q-4 0 -6 1.5t-3.5 3.5t-1.5 6v109zM300 -194q-53 0 -93 11.5t-67 32t-41 50t-14 65.5v30q0 32 9.5 54.5t30 42.5t53.5 43l44 31q36 25 52.5 41.5t21 32.5t4.5 41v9h39q3 0 5.5 -1.5t4 -4t1.5 -5.5v-8
q0 -29 -7.5 -51t-27.5 -43.5t-58 -46.5l-44 -30q-29 -20 -46 -35t-24.5 -31t-7.5 -38v-13.5v-13.5q0 -57 41 -86.5t124 -29.5q55 0 101.5 18t99.5 62h12v-22v-22q0 -3 -1 -5t-2 -3q-23 -23 -56 -40t-72.5 -26t-81.5 -9z" />
    <glyph glyph-name="Agrave" unicode="&#xc0;" horiz-adv-x="650" 
d="M147 277h292h16h15l22 10l11 -57h-345q-3 0 -5.5 1.5t-4 4t-1.5 5.5v36zM89 0h-19.5h-20.5q-3 0 -5.5 2t-3 5t0.5 7q17 50 34.5 99.5t34.5 99.5t34.5 99.5l35 99t34.5 99.5t34.5 99.5t34.5 99.5h46.5h40.5q4 0 6.5 -1.5t3.5 -4t2 -5.5l52 -160t52 -159.5t52 -159.5
l52 -160l10 -30l10 -30h-22h-22q-4 0 -6.5 1.5t-4 5.5t-4.5 11q-16 50 -37.5 116.5t-46 140.5t-48.5 148t-45 139t-37 112l16 -12h-45l16 11q-17 -47 -38.5 -108t-46 -131.5t-50.5 -145t-51.5 -148t-48.5 -140.5zM240 944q21 -31 39 -58t36 -53.5t37 -56.5h-12.5h-13.5h-14
q-6 0 -10.5 2.5t-6.5 5.5q-27 35 -44 55.5t-32.5 40t-39.5 49.5q-4 5 -1.5 10t8.5 5h17.5h16.5h20z" />
    <glyph glyph-name="Aacute" unicode="&#xc1;" horiz-adv-x="650" 
d="M147 277h292h16h15l22 10l11 -57h-345q-3 0 -5.5 1.5t-4 4t-1.5 5.5v36zM89 0h-19.5h-20.5q-3 0 -5.5 2t-3 5t0.5 7q17 50 34.5 99.5t34.5 99.5t34.5 99.5l35 99t34.5 99.5t34.5 99.5t34.5 99.5h46.5h40.5q4 0 6.5 -1.5t3.5 -4t2 -5.5l52 -160t52 -159.5t52 -159.5
l52 -160l10 -30l10 -30h-22h-22q-4 0 -6.5 1.5t-4 5.5t-4.5 11q-16 50 -37.5 116.5t-46 140.5t-48.5 148t-45 139t-37 112l16 -12h-45l16 11q-17 -47 -38.5 -108t-46 -131.5t-50.5 -145t-51.5 -148t-48.5 -140.5zM416 943h18.5h12h15.5q6 0 9 -5t-2 -10q-18 -22 -31 -38.5
t-24.5 -31t-25.5 -32t-35 -43.5q-2 -3 -6.5 -5.5t-10.5 -2.5h-12.5h-11h-11.5q21 30 39 56.5t36.5 53.5t39.5 58z" />
    <glyph glyph-name="Acircumflex" unicode="&#xc2;" horiz-adv-x="650" 
d="M147 277h292h16h15l22 10l11 -57h-345q-3 0 -5.5 1.5t-4 4t-1.5 5.5v36zM89 0h-19.5h-20.5q-3 0 -5.5 2t-3 5t0.5 7q17 50 34.5 99.5t34.5 99.5t34.5 99.5l35 99t34.5 99.5t34.5 99.5t34.5 99.5h46.5h40.5q4 0 6.5 -1.5t3.5 -4t2 -5.5l52 -160t52 -159.5t52 -159.5
l52 -160l10 -30l10 -30h-22h-22q-4 0 -6.5 1.5t-4 5.5t-4.5 11q-16 50 -37.5 116.5t-46 140.5t-48.5 148t-45 139t-37 112l16 -12h-45l16 11q-17 -47 -38.5 -108t-46 -131.5t-50.5 -145t-51.5 -148t-48.5 -140.5zM299 944h12h12h12q8 0 14 -3.5t22 -17.5q8 -7 27.5 -24.5
t44.5 -39t50.5 -43.5t46.5 -40q-12 1 -22.5 0.5t-22.5 -0.5q-11 0 -16 1.5t-13 8.5q-17 14 -60.5 48.5t-104.5 82.5l54 -19h-32h-32l54 19q-61 -48 -103 -81.5t-74 -59.5h-39q-5 0 -7.5 1t-3.5 2.5t-1 3.5q0 4 4.5 8.5t20.5 18.5q13 11 34.5 29t45.5 38.5t44.5 38.5t32.5 28
z" />
    <glyph glyph-name="Atilde" unicode="&#xc3;" horiz-adv-x="650" 
d="M147 277h292h16h15l22 10l11 -57h-345q-3 0 -5.5 1.5t-4 4t-1.5 5.5v36zM89 0h-19.5h-20.5q-3 0 -5.5 2t-3 5t0.5 7q17 50 34.5 99.5t34.5 99.5t34.5 99.5l35 99t34.5 99.5t34.5 99.5t34.5 99.5h46.5h40.5q4 0 6.5 -1.5t3.5 -4t2 -5.5l52 -160t52 -159.5t52 -159.5
l52 -160l10 -30l10 -30h-22h-22q-4 0 -6.5 1.5t-4 5.5t-4.5 11q-16 50 -37.5 116.5t-46 140.5t-48.5 148t-45 139t-37 112l16 -12h-45l16 11q-17 -47 -38.5 -108t-46 -131.5t-50.5 -145t-51.5 -148t-48.5 -140.5zM410 848q26 0 43 11.5t38 34.5h11v-19v-21q0 -3 -1 -6.5
t-6 -8.5q-16 -16 -35 -26.5t-49 -10.5q-25 0 -47 10t-42.5 22.5t-40.5 22.5t-41 10q-26 0 -43 -11.5t-38 -34.5h-11v19.5v20.5q0 2 1 6t6 9q16 16 35 26.5t49 10.5q25 0 47.5 -10t43 -22.5t40 -22.5t40.5 -10z" />
    <glyph glyph-name="Adieresis" unicode="&#xc4;" horiz-adv-x="650" 
d="M147 277h292h16h15l22 10l11 -57h-345q-3 0 -5.5 1.5t-4 4t-1.5 5.5v36zM89 0h-19.5h-20.5q-3 0 -5.5 2t-3 5t0.5 7q17 50 34.5 99.5t34.5 99.5t34.5 99.5l35 99t34.5 99.5t34.5 99.5t34.5 99.5h46.5h40.5q4 0 6.5 -1.5t3.5 -4t2 -5.5l52 -160t52 -159.5t52 -159.5
l52 -160l10 -30l10 -30h-22h-22q-4 0 -6.5 1.5t-4 5.5t-4.5 11q-16 50 -37.5 116.5t-46 140.5t-48.5 148t-45 139t-37 112l16 -12h-45l16 11q-17 -47 -38.5 -108t-46 -131.5t-50.5 -145t-51.5 -148t-48.5 -140.5zM185 888h34.5h34.5q4 0 6 -1.5t3.5 -3.5t1.5 -6v-69h-34.5
h-34.5q-3 0 -5.5 1.5t-4 4t-1.5 5.5v69zM385 888h34.5h34.5q4 0 6 -1.5t3.5 -3.5t1.5 -6v-69h-34.5h-34.5q-3 0 -5.5 1.5t-4 4t-1.5 5.5v69z" />
    <glyph glyph-name="Aring" unicode="&#xc5;" horiz-adv-x="650" 
d="M147 277h292h16h15l22 10l11 -57h-345q-3 0 -5.5 1.5t-4 4t-1.5 5.5v36zM89 0h-19.5h-20.5q-3 0 -5.5 2t-3 5t0.5 7q17 50 34.5 99.5t34.5 99.5t34.5 99.5l35 99t34.5 99.5t34.5 99.5t34.5 99.5h46.5h40.5q4 0 6.5 -1.5t3.5 -4t2 -5.5l52 -160t52 -159.5t52 -159.5
l52 -160l10 -30l10 -30h-22h-22q-4 0 -6.5 1.5t-4 5.5t-4.5 11q-16 50 -37.5 116.5t-46 140.5t-48.5 148t-45 139t-37 112l16 -12h-45l16 11q-17 -47 -38.5 -108t-46 -131.5t-50.5 -145t-51.5 -148t-48.5 -140.5zM325 896q43 0 74 -12t48.5 -33.5t17.5 -51.5v-26
q0 -30 -17.5 -51.5t-48.5 -33.5t-74 -12t-74.5 12t-49 33.5t-17.5 51.5v26q0 30 17.5 51.5t49 33.5t74.5 12zM325 852q-42 0 -66 -14t-24 -40v-24q0 -12 6 -21.5t17 -17.5q12 -7 29 -10.5t38 -3.5q42 0 66 14t24 39v24q0 12 -5 21.5t-16 16.5q-11 8 -28.5 12t-40.5 4z" />
    <glyph glyph-name="AE" unicode="&#xc6;" horiz-adv-x="800" 
d="M66 0h-13.5h-13.5h-14q-3 0 -7.5 3t-0.5 10q37 78 77.5 166t82.5 178t82 177.5t76 165.5h30h29.5h29.5h305q5 0 8 -3t3 -8v-18v-18h-398l37 27q-40 -85 -79.5 -172t-79 -173t-78 -170.5t-76.5 -164.5zM400 669h55l-4 -11v-14.5v-15.5v-145.5v-145.5v-145.5v-144.5h278
q5 0 8 -3t3 -8v-18v-18h-329q-3 0 -5.5 0.5t-4 2.5t-1.5 5v165.5v165v165.5v165zM146 260h226h16.5h16.5h11v-47h-259q-5 0 -8 2.5t-3 8.5v36zM412 373h277q5 0 8 -3t3 -8v-18v-18h-288v47z" />
    <glyph glyph-name="Ccedilla" unicode="&#xc7;" 
d="M325 -20q-60 0 -106.5 18t-78.5 52t-48.5 82t-16.5 109v218q0 61 16.5 109t48.5 82t78.5 52t106.5 18q49 0 86 -9t64 -24.5t45 -33.5q2 -1 2.5 -3l1 -4t0.5 -3v-71.5v-71.5h-19.5h-19.5q-5 0 -8 3t-3 8v51.5v51v50.5l23 -51q-36 32 -77 46t-95 14q-62 0 -106.5 -25
t-68 -73.5t-23.5 -120.5v-208q0 -52 13.5 -94.5t44.5 -74.5q26 -26 61.5 -38t78.5 -12q59 0 102 19t85 54h12v-10.5v-11v-10v-7.5t-1 -5.5t-3 -4.5q-23 -23 -52.5 -38.5t-65.5 -24t-77 -8.5zM430 -124q0 -41 -31 -68.5t-87 -27.5q-26 0 -43 4.5t-25.5 11.5t-8.5 12v13.5
v10.5v10h12q11 -10 25 -15t42 -5q32 0 51.5 14t19.5 39q0 23 -14.5 34.5t-59.5 12.5q-5 0 -8 3t-3 8q2 10 3.5 19.5t3.5 19t3.5 18.5t3.5 19q1 7 4.5 9.5t13 3t29.5 0.5q-1 -6 -2.5 -12.5t-2.5 -13t-2.5 -13t-2.5 -12.5l-3 -13q38 -2 60 -23t22 -59z" />
    <glyph glyph-name="Egrave" unicode="&#xc8;" horiz-adv-x="550" 
d="M20 700h459q4 0 6 -1.5t3.5 -4t1.5 -5.5v-18v-18h-459q-3 0 -5.5 1.5t-4 4t-1.5 5.5v18v18zM110 380h319q3 0 5.5 -1.5t4 -3.5t1.5 -6v-12v-11.5v-12.5h-330v47zM101 0q-2 0 -4 1t-3.5 2.5t-2.5 3.5t-1 4v136v136v135.5v135.5v136h55l-5 -11v-39v-43v-127.5v-140.5v-144
v-138h339q5 0 8 -3t3 -8v-18v-18h-389zM190 944q21 -31 39 -58t36 -53.5t37 -56.5h-12.5h-13.5h-14q-6 0 -10.5 2.5t-6.5 5.5q-27 35 -44 55.5t-32.5 40t-39.5 49.5q-4 5 -1.5 10t8.5 5h17.5h16.5h20z" />
    <glyph glyph-name="Eacute" unicode="&#xc9;" horiz-adv-x="550" 
d="M20 700h459q4 0 6 -1.5t3.5 -4t1.5 -5.5v-18v-18h-459q-3 0 -5.5 1.5t-4 4t-1.5 5.5v18v18zM110 380h319q3 0 5.5 -1.5t4 -3.5t1.5 -6v-12v-11.5v-12.5h-330v47zM101 0q-2 0 -4 1t-3.5 2.5t-2.5 3.5t-1 4v136v136v135.5v135.5v136h55l-5 -11v-39v-43v-127.5v-140.5v-144
v-138h339q5 0 8 -3t3 -8v-18v-18h-389zM366 943h18.5h12h15.5q6 0 9 -5t-2 -10q-18 -22 -31 -38.5t-24.5 -31t-25.5 -32t-35 -43.5q-2 -3 -6.5 -5.5t-10.5 -2.5h-12.5h-11h-11.5q21 30 39 56.5t36.5 53.5t39.5 58z" />
    <glyph glyph-name="Ecircumflex" unicode="&#xca;" horiz-adv-x="550" 
d="M20 700h459q4 0 6 -1.5t3.5 -4t1.5 -5.5v-18v-18h-459q-3 0 -5.5 1.5t-4 4t-1.5 5.5v18v18zM110 380h319q3 0 5.5 -1.5t4 -3.5t1.5 -6v-12v-11.5v-12.5h-330v47zM101 0q-2 0 -4 1t-3.5 2.5t-2.5 3.5t-1 4v136v136v135.5v135.5v136h55l-5 -11v-39v-43v-127.5v-140.5v-144
v-138h339q5 0 8 -3t3 -8v-18v-18h-389zM249 944h12h12h12q8 0 14 -3.5t22 -17.5q8 -7 27.5 -24.5t44.5 -39t50.5 -43.5t46.5 -40q-12 1 -22.5 0.5t-22.5 -0.5q-11 0 -16 1.5t-13 8.5q-17 14 -60.5 48.5t-104.5 82.5l54 -19h-32h-32l54 19q-61 -48 -103 -81.5t-74 -59.5h-39
q-5 0 -7.5 1t-3.5 2.5t-1 3.5q0 4 4.5 8.5t20.5 18.5q13 11 34.5 29t45.5 38.5t44.5 38.5t32.5 28z" />
    <glyph glyph-name="Edieresis" unicode="&#xcb;" horiz-adv-x="550" 
d="M20 700h459q4 0 6 -1.5t3.5 -4t1.5 -5.5v-18v-18h-459q-3 0 -5.5 1.5t-4 4t-1.5 5.5v18v18zM110 380h319q3 0 5.5 -1.5t4 -3.5t1.5 -6v-12v-11.5v-12.5h-330v47zM101 0q-2 0 -4 1t-3.5 2.5t-2.5 3.5t-1 4v136v136v135.5v135.5v136h55l-5 -11v-39v-43v-127.5v-140.5v-144
v-138h339q5 0 8 -3t3 -8v-18v-18h-389zM135 888h34.5h34.5q4 0 6 -1.5t3.5 -3.5t1.5 -6v-69h-34.5h-34.5q-3 0 -5.5 1.5t-4 4t-1.5 5.5v69zM335 888h34.5h34.5q4 0 6 -1.5t3.5 -3.5t1.5 -6v-69h-34.5h-34.5q-3 0 -5.5 1.5t-4 4t-1.5 5.5v69z" />
    <glyph glyph-name="Igrave" unicode="&#xcc;" horiz-adv-x="500" 
d="M275 20h-53l3 11v41v42v141.5v141v141.5v142h56l-6 -11v-33v-34v-145.5v-145.5v-145.5v-145.5zM420 0h-329q-3 0 -5 1t-3.5 2.5t-2 3.5t-0.5 4v12.5v11.5v12h329q3 0 5.5 -1.5t4 -4t1.5 -5.5v-12v-11.5v-12.5zM80 700h329q5 0 8 -3t3 -8v-9.5v-8.5v-8.5v-9.5h-329
q-5 0 -8 3.5t-3 7.5v9.5v8.5v8.5v9.5zM165 944q21 -31 39 -58t36 -53.5t37 -56.5h-12.5h-13.5h-14q-6 0 -10.5 2.5t-6.5 5.5q-27 35 -44 55.5t-32.5 40t-39.5 49.5q-4 5 -1.5 10t8.5 5h17.5h16.5h20z" />
    <glyph glyph-name="Iacute" unicode="&#xcd;" horiz-adv-x="500" 
d="M275 20h-53l3 11v41v42v141.5v141v141.5v142h56l-6 -11v-33v-34v-145.5v-145.5v-145.5v-145.5zM420 0h-329q-3 0 -5 1t-3.5 2.5t-2 3.5t-0.5 4v12.5v11.5v12h329q3 0 5.5 -1.5t4 -4t1.5 -5.5v-12v-11.5v-12.5zM80 700h329q5 0 8 -3t3 -8v-9.5v-8.5v-8.5v-9.5h-329
q-5 0 -8 3.5t-3 7.5v9.5v8.5v8.5v9.5zM341 943h18.5h12h15.5q6 0 9 -5t-2 -10q-18 -22 -31 -38.5t-24.5 -31t-25.5 -32t-35 -43.5q-2 -3 -6.5 -5.5t-10.5 -2.5h-12.5h-11h-11.5q21 30 39 56.5t36.5 53.5t39.5 58z" />
    <glyph glyph-name="Icircumflex" unicode="&#xce;" horiz-adv-x="500" 
d="M275 20h-53l3 11v41v42v141.5v141v141.5v142h56l-6 -11v-33v-34v-145.5v-145.5v-145.5v-145.5zM420 0h-329q-3 0 -5 1t-3.5 2.5t-2 3.5t-0.5 4v12.5v11.5v12h329q3 0 5.5 -1.5t4 -4t1.5 -5.5v-12v-11.5v-12.5zM80 700h329q5 0 8 -3t3 -8v-9.5v-8.5v-8.5v-9.5h-329
q-5 0 -8 3.5t-3 7.5v9.5v8.5v8.5v9.5zM224 944h12h12h12q8 0 14 -3.5t22 -17.5q8 -7 27.5 -24.5t44.5 -39t50.5 -43.5t46.5 -40q-12 1 -22.5 0.5t-22.5 -0.5q-11 0 -16 1.5t-13 8.5q-17 14 -60.5 48.5t-104.5 82.5l54 -19h-32h-32l54 19q-61 -48 -103 -81.5t-74 -59.5h-39
q-5 0 -7.5 1t-3.5 2.5t-1 3.5q0 4 4.5 8.5t20.5 18.5q13 11 34.5 29t45.5 38.5t44.5 38.5t32.5 28z" />
    <glyph glyph-name="Idieresis" unicode="&#xcf;" horiz-adv-x="500" 
d="M275 20h-53l3 11v41v42v141.5v141v141.5v142h56l-6 -11v-33v-34v-145.5v-145.5v-145.5v-145.5zM420 0h-329q-3 0 -5 1t-3.5 2.5t-2 3.5t-0.5 4v12.5v11.5v12h329q3 0 5.5 -1.5t4 -4t1.5 -5.5v-12v-11.5v-12.5zM80 700h329q5 0 8 -3t3 -8v-9.5v-8.5v-8.5v-9.5h-329
q-5 0 -8 3.5t-3 7.5v9.5v8.5v8.5v9.5zM110 888h34.5h34.5q4 0 6 -1.5t3.5 -3.5t1.5 -6v-69h-34.5h-34.5q-3 0 -5.5 1.5t-4 4t-1.5 5.5v69zM310 888h34.5h34.5q4 0 6 -1.5t3.5 -3.5t1.5 -6v-69h-34.5h-34.5q-3 0 -5.5 1.5t-4 4t-1.5 5.5v69z" />
    <glyph glyph-name="Eth" unicode="&#xd0;" horiz-adv-x="650" 
d="M26 380h337q5 0 8 -3t3 -8v-16v-16h-337q-5 0 -8 3t-3 8v16v16zM575 245q0 -66 -20 -112.5t-57 -75.5t-86.5 -43t-109.5 -14h-46.5h-40.5h-37h-34.5h-32.5q-4 0 -7.5 3.5t-3.5 7.5v167.5v167v167v167.5h59l-7 -11v-56v-57v-126.5v-127.5v-127.5v-127.5h41h46.5h59.5
q78 0 128 21t74 65.5t24 115.5v202q0 38 -6 67.5t-18.5 52.5t-32.5 39q-21 17 -45 26.5t-56 13t-76 3.5h-70h-63.5h-59h-57.5q-3 0 -5.5 1.5t-4 4t-1.5 5.5v18v18h61h64.5h72h84.5q61 0 109.5 -14t83 -43t52.5 -75.5t18 -112.5v-210z" />
    <glyph glyph-name="Ntilde" unicode="&#xd1;" horiz-adv-x="650" 
d="M130 0h-19.5h-19.5q-3 0 -5.5 1.5t-4 4t-1.5 5.5v137.5v137v137v137.5v70v70h26h29.5h25.5q4 0 7 -1t5 -3t4 -6q11 -21 32 -63t50 -98t62.5 -121.5t69 -133.5t69.5 -134t63 -123l-39 35h56l-15 -25q-2 50 -3 101t-1.5 103t-0.5 104v103v100v81.5v80.5h19.5h19.5q5 0 8 -3
t3 -8v-130v-130.5v-130.5v-130v-84v-84h-25.5h-31h-25.5q-6 0 -9.5 2.5t-7.5 9.5q-33 64 -74 143.5t-87 167.5t-93 179t-92 177l34 -39h-47l13 40q2 -57 2.5 -111.5t1 -107.5t1 -104t0.5 -100v-97q-1 -32 -0.5 -76t0.5 -84zM435 848q26 0 43 11.5t38 34.5h11v-19v-21
q0 -3 -1 -6.5t-6 -8.5q-16 -16 -35 -26.5t-49 -10.5q-25 0 -47 10t-42.5 22.5t-40.5 22.5t-41 10q-26 0 -43 -11.5t-38 -34.5h-11v19.5v20.5q0 2 1 6t6 9q16 16 35 26.5t49 10.5q25 0 47.5 -10t43 -22.5t40 -22.5t40.5 -10z" />
    <glyph glyph-name="Ograve" unicode="&#xd2;" horiz-adv-x="650" 
d="M326 720q71 0 127 -28.5t89 -88t33 -152.5v-210q0 -92 -35 -149.5t-92.5 -84.5t-123.5 -27t-122.5 27t-91.5 85t-35 150v209q0 93 32 152.5t88.5 88t130.5 28.5zM125 236q0 -54 17 -93.5t43 -65.5q22 -21 54.5 -35.5t84.5 -14.5q58 0 103 25t71.5 73t26.5 116v218
q0 39 -8 70t-22 55t-32 41q-22 21 -57.5 34.5t-79.5 13.5q-71 0 -115.5 -27.5t-65 -75.5t-20.5 -111v-223zM240 944q21 -31 39 -58t36 -53.5t37 -56.5h-12.5h-13.5h-14q-6 0 -10.5 2.5t-6.5 5.5q-27 35 -44 55.5t-32.5 40t-39.5 49.5q-4 5 -1.5 10t8.5 5h17.5h16.5h20z" />
    <glyph glyph-name="Oacute" unicode="&#xd3;" horiz-adv-x="650" 
d="M326 720q71 0 127 -28.5t89 -88t33 -152.5v-210q0 -92 -35 -149.5t-92.5 -84.5t-123.5 -27t-122.5 27t-91.5 85t-35 150v209q0 93 32 152.5t88.5 88t130.5 28.5zM125 236q0 -54 17 -93.5t43 -65.5q22 -21 54.5 -35.5t84.5 -14.5q58 0 103 25t71.5 73t26.5 116v218
q0 39 -8 70t-22 55t-32 41q-22 21 -57.5 34.5t-79.5 13.5q-71 0 -115.5 -27.5t-65 -75.5t-20.5 -111v-223zM416 943h18.5h12h15.5q6 0 9 -5t-2 -10q-18 -22 -31 -38.5t-24.5 -31t-25.5 -32t-35 -43.5q-2 -3 -6.5 -5.5t-10.5 -2.5h-12.5h-11h-11.5q21 30 39 56.5t36.5 53.5
t39.5 58z" />
    <glyph glyph-name="Ocircumflex" unicode="&#xd4;" horiz-adv-x="650" 
d="M326 720q71 0 127 -28.5t89 -88t33 -152.5v-210q0 -92 -35 -149.5t-92.5 -84.5t-123.5 -27t-122.5 27t-91.5 85t-35 150v209q0 93 32 152.5t88.5 88t130.5 28.5zM125 236q0 -54 17 -93.5t43 -65.5q22 -21 54.5 -35.5t84.5 -14.5q58 0 103 25t71.5 73t26.5 116v218
q0 39 -8 70t-22 55t-32 41q-22 21 -57.5 34.5t-79.5 13.5q-71 0 -115.5 -27.5t-65 -75.5t-20.5 -111v-223zM299 944h12h12h12q8 0 14 -3.5t22 -17.5q8 -7 27.5 -24.5t44.5 -39t50.5 -43.5t46.5 -40q-12 1 -22.5 0.5t-22.5 -0.5q-11 0 -16 1.5t-13 8.5q-17 14 -60.5 48.5
t-104.5 82.5l54 -19h-32h-32l54 19q-61 -48 -103 -81.5t-74 -59.5h-39q-5 0 -7.5 1t-3.5 2.5t-1 3.5q0 4 4.5 8.5t20.5 18.5q13 11 34.5 29t45.5 38.5t44.5 38.5t32.5 28z" />
    <glyph glyph-name="Otilde" unicode="&#xd5;" horiz-adv-x="650" 
d="M326 720q71 0 127 -28.5t89 -88t33 -152.5v-210q0 -92 -35 -149.5t-92.5 -84.5t-123.5 -27t-122.5 27t-91.5 85t-35 150v209q0 93 32 152.5t88.5 88t130.5 28.5zM125 236q0 -54 17 -93.5t43 -65.5q22 -21 54.5 -35.5t84.5 -14.5q58 0 103 25t71.5 73t26.5 116v218
q0 39 -8 70t-22 55t-32 41q-22 21 -57.5 34.5t-79.5 13.5q-71 0 -115.5 -27.5t-65 -75.5t-20.5 -111v-223zM410 848q26 0 43 11.5t38 34.5h11v-19v-21q0 -3 -1 -6.5t-6 -8.5q-16 -16 -35 -26.5t-49 -10.5q-25 0 -47 10t-42.5 22.5t-40.5 22.5t-41 10q-26 0 -43 -11.5
t-38 -34.5h-11v19.5v20.5q0 2 1 6t6 9q16 16 35 26.5t49 10.5q25 0 47.5 -10t43 -22.5t40 -22.5t40.5 -10z" />
    <glyph glyph-name="Odieresis" unicode="&#xd6;" horiz-adv-x="650" 
d="M326 720q71 0 127 -28.5t89 -88t33 -152.5v-210q0 -92 -35 -149.5t-92.5 -84.5t-123.5 -27t-122.5 27t-91.5 85t-35 150v209q0 93 32 152.5t88.5 88t130.5 28.5zM125 236q0 -54 17 -93.5t43 -65.5q22 -21 54.5 -35.5t84.5 -14.5q58 0 103 25t71.5 73t26.5 116v218
q0 39 -8 70t-22 55t-32 41q-22 21 -57.5 34.5t-79.5 13.5q-71 0 -115.5 -27.5t-65 -75.5t-20.5 -111v-223zM185 888h34.5h34.5q4 0 6 -1.5t3.5 -3.5t1.5 -6v-69h-34.5h-34.5q-3 0 -5.5 1.5t-4 4t-1.5 5.5v69zM385 888h34.5h34.5q4 0 6 -1.5t3.5 -3.5t1.5 -6v-69h-34.5h-34.5
q-3 0 -5.5 1.5t-4 4t-1.5 5.5v69z" />
    <glyph glyph-name="multiply" unicode="&#xd7;" 
d="M149 482q3 0 6 -3l165.5 -165.5l163.5 -163.5l-14 -14l-15 -15q-1 -1 -2.5 -2t-3.5 -1q-1 0 -2.5 1t-3.5 2q-51 52 -107.5 108.5l-113 113t-108.5 107.5l14 14l15 15q2 2 3.5 2.5t2.5 0.5zM114 150l163.5 163.5l165.5 165.5q2 2 3.5 2.5t2.5 0.5q2 0 3.5 -0.5t2.5 -2.5
l8 -8l7.5 -7.5l7 -7l6.5 -6.5l-107.5 -107.5l-113 -113l-108.5 -108.5q-1 -1 -2.5 -2t-3.5 -1q-1 0 -2.5 1t-3.5 2l-7.5 7.5l-7.5 7.5l-7.5 7.5z" />
    <glyph glyph-name="Oslash" unicode="&#xd8;" horiz-adv-x="650" 
d="M549 776q-16 -34 -32 -67.5t-32 -66.5l-2 -28h-44l23 6q-4 -22 -13.5 -48.5t-28.5 -66.5q-36 -76 -72 -152.5t-72.5 -153t-72.5 -152.5l-4 -8t-4 -9q-9 -19 -15.5 -32.5t-12.5 -27.5t-16 -34q-4 -9 -7 -10.5t-10 -1.5h-10.5h-10.5h-10h-9q12 25 22 46t19 40l18 38l9 44
h27l-6 -7q1 12 3.5 24t9 28.5t17.5 39.5q38 81 79.5 169t80.5 170.5t69 145.5q2 5 4 9l4 8q11 24 20.5 43.5t16.5 34.5q6 13 10 16t14 3h12.5h11.5h14zM326 720q71 0 127 -28.5t89 -88t33 -152.5v-210q0 -92 -35 -149.5t-92.5 -84.5t-123.5 -27t-122.5 27t-91.5 85t-35 150
v209q0 93 32 152.5t88.5 88t130.5 28.5zM125 236q0 -54 17 -93.5t43 -65.5q22 -21 54.5 -35.5t84.5 -14.5q58 0 103 25t71.5 73t26.5 116v218q0 39 -8 70t-22 55t-32 41q-22 21 -57.5 34.5t-79.5 13.5q-71 0 -115.5 -27.5t-65 -75.5t-20.5 -111v-223z" />
    <glyph glyph-name="Ugrave" unicode="&#xd9;" horiz-adv-x="650" 
d="M560 0h-12.5h-13h-13.5q-2 0 -4 0.5t-3 1.5t-2 2.5t-1.5 3t-0.5 3.5v172v172.5v172.5v172h13.5h13h12.5q3 0 5.5 -1.5t4 -4t1.5 -5.5v-147v-147.5v-147v-147.5v-50v-50zM268 -20q-45 0 -79 13t-57 37.5t-35 59t-12 77.5v134v147v153v49.5v49.5h19.5h19.5q3 0 5.5 -1.5
t4 -4t1.5 -5.5v-175v-174.5v-170.5q0 -67 36 -104.5t99 -37.5q47 0 91 18.5t86.5 64.5t83.5 128v-137h-41q-27 -37 -60 -64t-73 -42t-89 -15zM237 944q21 -31 39 -58t36 -53.5t37 -56.5h-12.5h-13.5h-14q-6 0 -10.5 2.5t-6.5 5.5q-27 35 -44 55.5t-32.5 40t-39.5 49.5
q-4 5 -1.5 10t8.5 5h17.5h16.5h20z" />
    <glyph glyph-name="Uacute" unicode="&#xda;" horiz-adv-x="650" 
d="M560 0h-12.5h-13h-13.5q-2 0 -4 0.5t-3 1.5t-2 2.5t-1.5 3t-0.5 3.5v172v172.5v172.5v172h13.5h13h12.5q3 0 5.5 -1.5t4 -4t1.5 -5.5v-147v-147.5v-147v-147.5v-50v-50zM268 -20q-45 0 -79 13t-57 37.5t-35 59t-12 77.5v134v147v153v49.5v49.5h19.5h19.5q3 0 5.5 -1.5
t4 -4t1.5 -5.5v-175v-174.5v-170.5q0 -67 36 -104.5t99 -37.5q47 0 91 18.5t86.5 64.5t83.5 128v-137h-41q-27 -37 -60 -64t-73 -42t-89 -15zM413 943h18.5h12h15.5q6 0 9 -5t-2 -10q-18 -22 -31 -38.5t-24.5 -31t-25.5 -32t-35 -43.5q-2 -3 -6.5 -5.5t-10.5 -2.5h-12.5h-11
h-11.5q21 30 39 56.5t36.5 53.5t39.5 58z" />
    <glyph glyph-name="Ucircumflex" unicode="&#xdb;" horiz-adv-x="650" 
d="M560 0h-12.5h-13h-13.5q-2 0 -4 0.5t-3 1.5t-2 2.5t-1.5 3t-0.5 3.5v172v172.5v172.5v172h13.5h13h12.5q3 0 5.5 -1.5t4 -4t1.5 -5.5v-147v-147.5v-147v-147.5v-50v-50zM268 -20q-45 0 -79 13t-57 37.5t-35 59t-12 77.5v134v147v153v49.5v49.5h19.5h19.5q3 0 5.5 -1.5
t4 -4t1.5 -5.5v-175v-174.5v-170.5q0 -67 36 -104.5t99 -37.5q47 0 91 18.5t86.5 64.5t83.5 128v-137h-41q-27 -37 -60 -64t-73 -42t-89 -15zM296 944h12h12h12q8 0 14 -3.5t22 -17.5q8 -7 27.5 -24.5t44.5 -39t50.5 -43.5t46.5 -40q-12 1 -22.5 0.5t-22.5 -0.5
q-11 0 -16 1.5t-13 8.5q-17 14 -60.5 48.5t-104.5 82.5l54 -19h-32h-32l54 19q-61 -48 -103 -81.5t-74 -59.5h-39q-5 0 -7.5 1t-3.5 2.5t-1 3.5q0 4 4.5 8.5t20.5 18.5q13 11 34.5 29t45.5 38.5t44.5 38.5t32.5 28z" />
    <glyph glyph-name="Udieresis" unicode="&#xdc;" horiz-adv-x="650" 
d="M560 0h-12.5h-13h-13.5q-2 0 -4 0.5t-3 1.5t-2 2.5t-1.5 3t-0.5 3.5v172v172.5v172.5v172h13.5h13h12.5q3 0 5.5 -1.5t4 -4t1.5 -5.5v-147v-147.5v-147v-147.5v-50v-50zM268 -20q-45 0 -79 13t-57 37.5t-35 59t-12 77.5v134v147v153v49.5v49.5h19.5h19.5q3 0 5.5 -1.5
t4 -4t1.5 -5.5v-175v-174.5v-170.5q0 -67 36 -104.5t99 -37.5q47 0 91 18.5t86.5 64.5t83.5 128v-137h-41q-27 -37 -60 -64t-73 -42t-89 -15zM182 888h34.5h34.5q4 0 6 -1.5t3.5 -3.5t1.5 -6v-69h-34.5h-34.5q-3 0 -5.5 1.5t-4 4t-1.5 5.5v69zM382 888h34.5h34.5q4 0 6 -1.5
t3.5 -3.5t1.5 -6v-69h-34.5h-34.5q-3 0 -5.5 1.5t-4 4t-1.5 5.5v69z" />
    <glyph glyph-name="Yacute" unicode="&#xdd;" horiz-adv-x="650" 
d="M345 0h-12.5h-13h-13.5q-3 0 -5.5 1.5t-4 4t-1.5 5.5v154.5v154.5h50v-72.5v-75v-72.5v-51v-49zM41 700h23h23q6 0 9 -1t5 -3.5t3 -5.5q30 -51 59 -99.5t57 -96.5t55 -96.5t54 -98.5l-24 36h40l-35 -39q32 59 59 107.5t53.5 93.5t56 94t66.5 109h22h21q3 0 5.5 -4t0.5 -9
q-23 -38 -48.5 -79.5t-51.5 -84t-52.5 -85t-52 -83.5t-48.5 -78h-21t-12.5 0.5t-7 1.5t-3.5 2q-24 38 -49.5 80t-52 85t-53 86.5t-52 86t-49.5 81.5zM414 943h18.5h12h15.5q6 0 9 -5t-2 -10q-18 -22 -31 -38.5t-24.5 -31t-25.5 -32t-35 -43.5q-2 -3 -6.5 -5.5t-10.5 -2.5
h-12.5h-11h-11.5q21 30 39 56.5t36.5 53.5t39.5 58z" />
    <glyph glyph-name="Thorn" unicode="&#xde;" 
d="M82 700h19.5h19.5q5 0 8 -3t3 -8v-172v-172.5v-172.5v-172h-19.5h-19.5q-3 0 -5.5 1.5t-4 3.5t-1.5 6v147.5v147.5v148v147v49.5v49.5zM110 566h101h101q42 0 81.5 -7t71.5 -26t51 -55t19 -93v-68q0 -43 -14.5 -77t-43 -57.5t-68.5 -36t-91 -12.5h-98h-99l-11 -9v56
h102.5h102.5q56 0 93.5 16t56 47.5t18.5 76.5v69q0 29 -7.5 50.5t-22.5 37.5q-20 21 -55.5 31t-87.5 10h-62h-63h-32h-32q-5 0 -8 3t-3 8v18v18z" />
    <glyph glyph-name="germandbls" unicode="&#xdf;" 
d="M313 760q35 0 67.5 -7t59 -22t42 -40.5t15.5 -61.5v-6q0 -19 -6 -39t-21 -40.5t-42 -43.5l-40 -35q-30 -26 -42 -45t-12 -39q0 -25 11 -39t42 -30l43 -22q39 -20 61.5 -42.5t31.5 -48.5t9 -57v-7q0 -44 -19.5 -76.5t-54 -49.5t-81.5 -17q-55 0 -86.5 15t-46.5 30
q-1 2 -2 3.5t-1 4.5v22v22h12q29 -28 54 -39t72 -11q26 0 45 7t32 20t19.5 31t6.5 40t-6 42t-24.5 39t-58.5 39l-34 17q-47 23 -61 49t-14 54v7q0 17 6 34.5t20 36t36 37.5l53 45q19 16 29.5 29.5t14.5 27.5t4 30q0 38 -28.5 63.5t-106.5 25.5q-37 0 -65 -9.5t-47 -28.5
q-13 -13 -21.5 -30t-13 -38.5t-4.5 -46.5v-114.5v-115.5v-115.5v-114.5v-33v-33.5v-33.5h-19.5h-19.5q-3 0 -5.5 1.5t-4 3.5t-1.5 6v138.5v139v139v138.5q0 55 22.5 98.5t67.5 69.5t112 26z" />
    <glyph glyph-name="agrave" unicode="&#xe0;" 
d="M485 361v-63v-64.5v-64.5v-63q0 -19 3 -30.5t10 -18.5q6 -6 15 -8.5t21 -2.5h4.5h4.5h12v-17.5v-17.5q0 -6 -3 -8.5t-8 -2.5h-7h-5q-20 0 -37.5 5t-31 16.5t-21 30t-7.5 45.5v81v81v32.5v32.5v32q0 51 -12.5 79t-43 39.5t-85.5 11.5q-30 0 -57 -3.5t-52.5 -10.5
t-52.5 -18h-12v19v19q0 3 1 5t2 3q5 5 29 13.5t61 15.5t81 7q50 0 86.5 -9.5t59.5 -30.5t34 -54t11 -81zM135 132q0 -46 27.5 -70t79.5 -24q41 0 75.5 11.5t67.5 40.5t69 82v-89h-30q-19 -30 -45 -51t-60 -31.5t-77 -10.5q-49 0 -84 16.5t-54 48t-19 76.5v28q0 34 10.5 60
t31 44t49.5 27.5t66 9.5h66h65.5h71.5q8 0 11.5 -6t4.5 -16.5t1 -24.5h-75.5h-67h-77.5q-28 0 -48.5 -6.5t-34.5 -20.5q-12 -12 -18 -29t-6 -39v-26zM210 824q21 -31 41.5 -63t41.5 -63.5t40 -61.5h-18h-20q-6 0 -10.5 2.5t-6.5 5.5q-27 35 -46.5 59.5t-37.5 48.5t-42 54
q-4 6 -2.5 12t8.5 6h17h15.5h19.5z" />
    <glyph glyph-name="aacute" unicode="&#xe1;" 
d="M485 361v-63v-64.5v-64.5v-63q0 -19 3 -30.5t10 -18.5q6 -6 15 -8.5t21 -2.5h4.5h4.5h12v-17.5v-17.5q0 -6 -3 -8.5t-8 -2.5h-7h-5q-20 0 -37.5 5t-31 16.5t-21 30t-7.5 45.5v81v81v32.5v32.5v32q0 51 -12.5 79t-43 39.5t-85.5 11.5q-30 0 -57 -3.5t-52.5 -10.5
t-52.5 -18h-12v19v19q0 3 1 5t2 3q5 5 29 13.5t61 15.5t81 7q50 0 86.5 -9.5t59.5 -30.5t34 -54t11 -81zM135 132q0 -46 27.5 -70t79.5 -24q41 0 75.5 11.5t67.5 40.5t69 82v-89h-30q-19 -30 -45 -51t-60 -31.5t-77 -10.5q-49 0 -84 16.5t-54 48t-19 76.5v28q0 34 10.5 60
t31 44t49.5 27.5t66 9.5h66h65.5h71.5q8 0 11.5 -6t4.5 -16.5t1 -24.5h-75.5h-67h-77.5q-28 0 -48.5 -6.5t-34.5 -20.5q-12 -12 -18 -29t-6 -39v-26zM406 824h26.5h23.5q8 0 9.5 -6t-3.5 -12q-23 -30 -41.5 -54t-38 -48.5t-46.5 -59.5q-2 -3 -6.5 -5.5t-10.5 -2.5h-18.5
h-17.5q20 30 40.5 61.5t41.5 63.5t41 63z" />
    <glyph glyph-name="acircumflex" unicode="&#xe2;" 
d="M485 361v-63v-64.5v-64.5v-63q0 -19 3 -30.5t10 -18.5q6 -6 15 -8.5t21 -2.5h4.5h4.5h12v-17.5v-17.5q0 -6 -3 -8.5t-8 -2.5h-7h-5q-20 0 -37.5 5t-31 16.5t-21 30t-7.5 45.5v81v81v32.5v32.5v32q0 51 -12.5 79t-43 39.5t-85.5 11.5q-30 0 -57 -3.5t-52.5 -10.5
t-52.5 -18h-12v19v19q0 3 1 5t2 3q5 5 29 13.5t61 15.5t81 7q50 0 86.5 -9.5t59.5 -30.5t34 -54t11 -81zM135 132q0 -46 27.5 -70t79.5 -24q41 0 75.5 11.5t67.5 40.5t69 82v-89h-30q-19 -30 -45 -51t-60 -31.5t-77 -10.5q-49 0 -84 16.5t-54 48t-19 76.5v28q0 34 10.5 60
t31 44t49.5 27.5t66 9.5h66h65.5h71.5q8 0 11.5 -6t4.5 -16.5t1 -24.5h-75.5h-67h-77.5q-28 0 -48.5 -6.5t-34.5 -20.5q-12 -12 -18 -29t-6 -39v-26zM283 819h18h18q8 0 13.5 -4t19.5 -18q8 -9 28 -29.5t45.5 -47.5t51.5 -54t47 -49h-22h-22q-11 0 -16.5 2t-12.5 9
q-16 16 -60 61t-104 106l41 -21h-43l41 21q-61 -61 -102.5 -103.5t-73.5 -74.5h-37q-4 0 -6 1t-3 3.5t-1 4.5q0 4 4 8.5t18 19.5q13 14 34.5 36.5t46 47.5t45.5 47t32 34z" />
    <glyph glyph-name="atilde" unicode="&#xe3;" 
d="M485 361v-63v-64.5v-64.5v-63q0 -19 3 -30.5t10 -18.5q6 -6 15 -8.5t21 -2.5h4.5h4.5h12v-17.5v-17.5q0 -6 -3 -8.5t-8 -2.5h-7h-5q-20 0 -37.5 5t-31 16.5t-21 30t-7.5 45.5v81v81v32.5v32.5v32q0 51 -12.5 79t-43 39.5t-85.5 11.5q-30 0 -57 -3.5t-52.5 -10.5
t-52.5 -18h-12v19v19q0 3 1 5t2 3q5 5 29 13.5t61 15.5t81 7q50 0 86.5 -9.5t59.5 -30.5t34 -54t11 -81zM135 132q0 -46 27.5 -70t79.5 -24q41 0 75.5 11.5t67.5 40.5t69 82v-89h-30q-19 -30 -45 -51t-60 -31.5t-77 -10.5q-49 0 -84 16.5t-54 48t-19 76.5v28q0 34 10.5 60
t31 44t49.5 27.5t66 9.5h66h65.5h71.5q8 0 11.5 -6t4.5 -16.5t1 -24.5h-75.5h-67h-77.5q-28 0 -48.5 -6.5t-34.5 -20.5q-12 -12 -18 -29t-6 -39v-26zM381 693q26 0 49.5 15t41.5 41h11v-14v-15v-12q0 -6 -1.5 -10t-7.5 -12q-16 -19 -39 -30t-53 -11q-27 0 -46 9t-35.5 21.5
t-32.5 21.5t-37 9q-26 0 -49.5 -15t-41.5 -41h-11v14v15.5v11.5q0 6 1.5 10.5t7.5 11.5q17 20 39.5 30.5t52.5 10.5q27 0 46 -9t35.5 -21.5t32.5 -21.5t37 -9z" />
    <glyph glyph-name="adieresis" unicode="&#xe4;" 
d="M485 361v-63v-64.5v-64.5v-63q0 -19 3 -30.5t10 -18.5q6 -6 15 -8.5t21 -2.5h4.5h4.5h12v-17.5v-17.5q0 -6 -3 -8.5t-8 -2.5h-7h-5q-20 0 -37.5 5t-31 16.5t-21 30t-7.5 45.5v81v81v32.5v32.5v32q0 51 -12.5 79t-43 39.5t-85.5 11.5q-30 0 -57 -3.5t-52.5 -10.5
t-52.5 -18h-12v19v19q0 3 1 5t2 3q5 5 29 13.5t61 15.5t81 7q50 0 86.5 -9.5t59.5 -30.5t34 -54t11 -81zM135 132q0 -46 27.5 -70t79.5 -24q41 0 75.5 11.5t67.5 40.5t69 82v-89h-30q-19 -30 -45 -51t-60 -31.5t-77 -10.5q-49 0 -84 16.5t-54 48t-19 76.5v28q0 34 10.5 60
t31 44t49.5 27.5t66 9.5h66h65.5h71.5q8 0 11.5 -6t4.5 -16.5t1 -24.5h-75.5h-67h-77.5q-28 0 -48.5 -6.5t-34.5 -20.5q-12 -12 -18 -29t-6 -39v-26zM166 745h34.5h34.5q4 0 6 -1.5t3.5 -3.5t1.5 -6v-69h-34.5h-34.5q-3 0 -5.5 1.5t-4 4t-1.5 5.5v69zM366 745h34.5h34.5
q4 0 6 -1.5t3.5 -3.5t1.5 -6v-69h-34.5h-34.5q-3 0 -5.5 1.5t-4 4t-1.5 5.5v69z" />
    <glyph glyph-name="aring" unicode="&#xe5;" 
d="M485 361v-63v-64.5v-64.5v-63q0 -19 3 -30.5t10 -18.5q6 -6 15 -8.5t21 -2.5h4.5h4.5h12v-17.5v-17.5q0 -6 -3 -8.5t-8 -2.5h-7h-5q-20 0 -37.5 5t-31 16.5t-21 30t-7.5 45.5v81v81v32.5v32.5v32q0 51 -12.5 79t-43 39.5t-85.5 11.5q-30 0 -57 -3.5t-52.5 -10.5
t-52.5 -18h-12v19v19q0 3 1 5t2 3q5 5 29 13.5t61 15.5t81 7q50 0 86.5 -9.5t59.5 -30.5t34 -54t11 -81zM135 132q0 -46 27.5 -70t79.5 -24q41 0 75.5 11.5t67.5 40.5t69 82v-89h-30q-19 -30 -45 -51t-60 -31.5t-77 -10.5q-49 0 -84 16.5t-54 48t-19 76.5v28q0 34 10.5 60
t31 44t49.5 27.5t66 9.5h66h65.5h71.5q8 0 11.5 -6t4.5 -16.5t1 -24.5h-75.5h-67h-77.5q-28 0 -48.5 -6.5t-34.5 -20.5q-12 -12 -18 -29t-6 -39v-26zM306 835q35 0 60 -12.5t38.5 -34t13.5 -50.5v-26q0 -43 -30 -70t-82 -27t-82 27t-30 70v26q0 29 13.5 50.5t39 34
t59.5 12.5zM306 793q-30 0 -47 -15t-17 -41v-24q0 -13 4.5 -22.5t11.5 -17.5q8 -7 20.5 -11t27.5 -4q30 0 47 15t17 40v24q0 12 -3.5 21.5t-10.5 16.5q-8 9 -20.5 13.5t-29.5 4.5z" />
    <glyph glyph-name="ae" unicode="&#xe6;" horiz-adv-x="850" 
d="M255 536q49 0 85 -15.5t59 -43t33 -64.5l-19 30h25l-19 -30q16 56 59.5 89.5t110.5 33.5q54 0 92 -23t58.5 -66.5t20.5 -106.5v-42.5v-42.5q0 -3 -1.5 -5.5t-3.5 -4t-6 -1.5h-75.5h-75.5h-75.5h-75.5h-10v47h68h68.5h68.5h68v14v14.5v14.5q0 44 -8.5 74t-26.5 49
q-16 17 -39.5 24.5t-55.5 7.5q-39 0 -68.5 -18t-45.5 -50t-16 -73v-163q0 -31 10.5 -58t30.5 -47t50.5 -31.5t68.5 -11.5q26 0 49.5 4.5t45 14t41.5 24.5h12v-20v-20q0 -2 -0.5 -4t-2.5 -4q-16 -16 -54.5 -29t-94.5 -13q-51 0 -90 17t-64 46.5t-35 68.5l18 -34h-23l21 34
q-11 -38 -36.5 -68t-64 -47t-88.5 -17q-52 0 -87.5 16t-53.5 47.5t-18 75.5v29q0 33 10 59t30.5 44.5t50.5 28.5t70 10q35 0 66.5 -6t57 -14t41.5 -15h7v-47q-30 12 -56.5 20t-56 11.5t-69.5 3.5q-28 0 -47 -7t-31 -18q-13 -13 -18 -30.5t-5 -37.5v-30q0 -47 27.5 -69.5
t79.5 -22.5h10q42 0 75.5 19t53 51t19.5 71v169q0 42 -15 73t-47 48t-83 17q-40 0 -69.5 -7t-63.5 -23h-12v19v19q0 3 1 5t2 3q6 6 27 14t51 14t64 6z" />
    <glyph glyph-name="ccedilla" unicode="&#xe7;" horiz-adv-x="500" 
d="M298 536q39 0 68 -7.5t47 -17.5t25 -17q4 -4 4.5 -6t0.5 -7v-16.5v-16.5h-12q-19 14 -50.5 27.5t-82.5 13.5q-58 0 -96.5 -21t-57.5 -62t-19 -101v-100q0 -40 10.5 -71t31.5 -52q22 -22 55 -33.5t76 -11.5q35 0 59.5 5t42.5 13t31 18h12v-17.5v-17.5q0 -2 -0.5 -4
t-2.5 -4q-8 -8 -25.5 -17.5t-46 -16t-71.5 -6.5q-54 0 -95 13.5t-69.5 41t-43 67.5t-14.5 92v106q0 78 30 128t80.5 74t112.5 24zM305 22q-1 -6 -2.5 -13t-3 -13.5t-2.5 -13.5t-3 -13l-2 -11q38 -2 60 -23t22 -59q0 -41 -31 -68.5t-87 -27.5q-26 0 -43 4.5t-25.5 11.5
t-8.5 12v13.5v10.5v10h12q11 -10 25 -15t42 -5q32 0 51.5 14t19.5 39q0 23 -14.5 34.5t-59.5 12.5q-5 0 -8 3t-3 8q2 10 3.5 19.5t3.5 19t3.5 18.5t3.5 19q1 7 4.5 9.5t13 3t29.5 0.5z" />
    <glyph glyph-name="egrave" unicode="&#xe8;" 
d="M303 536q52 0 99.5 -21t78 -70t30.5 -135v-65q0 -3 -1.5 -5.5t-3.5 -4t-6 -1.5h-288h-32h-32h-19l-22 47h354v12.5v12.5q0 50 -11.5 86t-34.5 58q-20 20 -48.5 29.5t-63.5 9.5q-78 0 -123 -44t-45 -144v-89q0 -40 11 -72.5t32 -53.5q24 -24 61.5 -36.5t89.5 -12.5
q39 0 66 4.5t50.5 14.5t50.5 26h12v-17v-17q0 -2 -0.5 -4t-2.5 -4q-13 -13 -38 -24.5t-61.5 -18.5t-82.5 -7q-51 0 -94.5 13t-75.5 40t-50 68.5t-18 98.5v94q0 66 18.5 110.5t50 71.5t70.5 38.5t79 11.5zM211 835q21 -31 41.5 -63t41.5 -63.5t40 -61.5h-18h-20
q-6 0 -10.5 2.5t-6.5 5.5q-27 35 -46.5 59.5t-37.5 48.5t-42 54q-4 6 -2.5 12t8.5 6h17h15.5h19.5z" />
    <glyph glyph-name="eacute" unicode="&#xe9;" 
d="M303 536q52 0 99.5 -21t78 -70t30.5 -135v-65q0 -3 -1.5 -5.5t-3.5 -4t-6 -1.5h-288h-32h-32h-19l-22 47h354v12.5v12.5q0 50 -11.5 86t-34.5 58q-20 20 -48.5 29.5t-63.5 9.5q-78 0 -123 -44t-45 -144v-89q0 -40 11 -72.5t32 -53.5q24 -24 61.5 -36.5t89.5 -12.5
q39 0 66 4.5t50.5 14.5t50.5 26h12v-17v-17q0 -2 -0.5 -4t-2.5 -4q-13 -13 -38 -24.5t-61.5 -18.5t-82.5 -7q-51 0 -94.5 13t-75.5 40t-50 68.5t-18 98.5v94q0 66 18.5 110.5t50 71.5t70.5 38.5t79 11.5zM407 835h26.5h23.5q8 0 9.5 -6t-3.5 -12q-23 -30 -41.5 -54
t-38 -48.5t-46.5 -59.5q-2 -3 -6.5 -5.5t-10.5 -2.5h-18.5h-17.5q20 30 40.5 61.5t41.5 63.5t41 63z" />
    <glyph glyph-name="ecircumflex" unicode="&#xea;" 
d="M303 536q52 0 99.5 -21t78 -70t30.5 -135v-65q0 -3 -1.5 -5.5t-3.5 -4t-6 -1.5h-288h-32h-32h-19l-22 47h354v12.5v12.5q0 50 -11.5 86t-34.5 58q-20 20 -48.5 29.5t-63.5 9.5q-78 0 -123 -44t-45 -144v-89q0 -40 11 -72.5t32 -53.5q24 -24 61.5 -36.5t89.5 -12.5
q39 0 66 4.5t50.5 14.5t50.5 26h12v-17v-17q0 -2 -0.5 -4t-2.5 -4q-13 -13 -38 -24.5t-61.5 -18.5t-82.5 -7q-51 0 -94.5 13t-75.5 40t-50 68.5t-18 98.5v94q0 66 18.5 110.5t50 71.5t70.5 38.5t79 11.5zM284 830h18h18q8 0 13.5 -4t19.5 -18q8 -9 28 -29.5t45.5 -47.5
t51.5 -54t47 -49h-22h-22q-11 0 -16.5 2t-12.5 9q-16 16 -60 61t-104 106l41 -21h-43l41 21q-61 -61 -102.5 -103.5t-73.5 -74.5h-37q-4 0 -6 1t-3 3.5t-1 4.5q0 4 4 8.5t18 19.5q13 14 34.5 36.5t46 47.5t45.5 47t32 34z" />
    <glyph glyph-name="edieresis" unicode="&#xeb;" 
d="M303 536q52 0 99.5 -21t78 -70t30.5 -135v-65q0 -3 -1.5 -5.5t-3.5 -4t-6 -1.5h-288h-32h-32h-19l-22 47h354v12.5v12.5q0 50 -11.5 86t-34.5 58q-20 20 -48.5 29.5t-63.5 9.5q-78 0 -123 -44t-45 -144v-89q0 -40 11 -72.5t32 -53.5q24 -24 61.5 -36.5t89.5 -12.5
q39 0 66 4.5t50.5 14.5t50.5 26h12v-17v-17q0 -2 -0.5 -4t-2.5 -4q-13 -13 -38 -24.5t-61.5 -18.5t-82.5 -7q-51 0 -94.5 13t-75.5 40t-50 68.5t-18 98.5v94q0 66 18.5 110.5t50 71.5t70.5 38.5t79 11.5zM167 756h34.5h34.5q4 0 6 -1.5t3.5 -3.5t1.5 -6v-69h-34.5h-34.5
q-3 0 -5.5 1.5t-4 4t-1.5 5.5v69zM367 756h34.5h34.5q4 0 6 -1.5t3.5 -3.5t1.5 -6v-69h-34.5h-34.5q-3 0 -5.5 1.5t-4 4t-1.5 5.5v69z" />
    <glyph glyph-name="igrave" unicode="&#xec;" horiz-adv-x="350" 
d="M170 11v93.5v93.5v94v93.5v93.5h-20h-22h-22.5h-22.5h-22q-4 0 -7.5 3.5t-3.5 7.5v18v18h32h32h31.5h31.5h32q3 0 5.5 -1.5t4 -4t1.5 -5.5v-107.5v-106.5v-106.5v-107.5v-28.5v-29v-29.5h-19.5h-19.5q-4 0 -7.5 3.5t-3.5 7.5zM101 834q21 -31 41.5 -63t41.5 -63.5
t40 -61.5h-18h-20q-6 0 -10.5 2.5t-6.5 5.5q-27 35 -46.5 59.5t-37.5 48.5t-42 54q-4 6 -2.5 12t8.5 6h17h15.5h19.5z" />
    <glyph glyph-name="iacute" unicode="&#xed;" horiz-adv-x="350" 
d="M170 11v93.5v93.5v94v93.5v93.5h-20h-22h-22.5h-22.5h-22q-4 0 -7.5 3.5t-3.5 7.5v18v18h32h32h31.5h31.5h32q3 0 5.5 -1.5t4 -4t1.5 -5.5v-107.5v-106.5v-106.5v-107.5v-28.5v-29v-29.5h-19.5h-19.5q-4 0 -7.5 3.5t-3.5 7.5zM297 834h26.5h23.5q8 0 9.5 -6t-3.5 -12
q-23 -30 -41.5 -54t-38 -48.5t-46.5 -59.5q-2 -3 -6.5 -5.5t-10.5 -2.5h-18.5h-17.5q20 30 40.5 61.5t41.5 63.5t41 63z" />
    <glyph glyph-name="icircumflex" unicode="&#xee;" horiz-adv-x="350" 
d="M170 11v93.5v93.5v94v93.5v93.5h-20h-22h-22.5h-22.5h-22q-4 0 -7.5 3.5t-3.5 7.5v18v18h32h32h31.5h31.5h32q3 0 5.5 -1.5t4 -4t1.5 -5.5v-107.5v-106.5v-106.5v-107.5v-28.5v-29v-29.5h-19.5h-19.5q-4 0 -7.5 3.5t-3.5 7.5zM174 829h18h18q8 0 13.5 -4t19.5 -18
q8 -9 28 -29.5t45.5 -47.5t51.5 -54t47 -49h-22h-22q-11 0 -16.5 2t-12.5 9q-16 16 -60 61t-104 106l41 -21h-43l41 21q-61 -61 -102.5 -103.5t-73.5 -74.5h-37q-4 0 -6 1t-3 3.5t-1 4.5q0 4 4 8.5t18 19.5q13 14 34.5 36.5t46 47.5t45.5 47t32 34z" />
    <glyph glyph-name="idieresis" unicode="&#xef;" horiz-adv-x="350" 
d="M170 11v93.5v93.5v94v93.5v93.5h-20h-22h-22.5h-22.5h-22q-4 0 -7.5 3.5t-3.5 7.5v18v18h32h32h31.5h31.5h32q3 0 5.5 -1.5t4 -4t1.5 -5.5v-107.5v-106.5v-106.5v-107.5v-28.5v-29v-29.5h-19.5h-19.5q-4 0 -7.5 3.5t-3.5 7.5zM57 755h34.5h34.5q4 0 6 -1.5t3.5 -3.5
t1.5 -6v-69h-34.5h-34.5q-3 0 -5.5 1.5t-4 4t-1.5 5.5v69zM257 755h34.5h34.5q4 0 6 -1.5t3.5 -3.5t1.5 -6v-69h-34.5h-34.5q-3 0 -5.5 1.5t-4 4t-1.5 5.5v69z" />
    <glyph glyph-name="eth" unicode="&#xf0;" 
d="M522 720v-14.5v-15.5q0 -5 -1 -8.5t-3.5 -5.5t-8.5 -4l-136 -37q-4 -1 -9.5 -1h-10t-8.5 -1l-228 -62v15v14q0 9 3 12.5t11 5.5l185 50q4 1 8.5 1h9.5t10 1zM277 516q59 0 95 -17t66 -50h38v-89q-31 50 -81 79t-109 29q-49 0 -83 -22t-51 -58t-17 -80v-103
q0 -27 5.5 -50.5t17 -43.5t27.5 -35q20 -18 46.5 -28t59.5 -10q60 0 98.5 23.5t57 62t18.5 83.5v101q0 50 -3.5 87.5t-16 71.5t-39.5 72t-72.5 88.5t-116.5 120.5v12h20.5h20.5q6 0 10.5 -1.5t9.5 -6.5q67 -67 110.5 -117t69 -90t38 -76.5t16 -75t3.5 -85.5v-101
q0 -64 -29 -113t-78 -76.5t-108 -27.5q-66 0 -114 27t-74.5 74t-26.5 107v110q0 62 26 109t70 73t96 26z" />
    <glyph glyph-name="ntilde" unicode="&#xf1;" 
d="M495 0h-19.5h-19.5q-3 0 -5.5 1.5t-4 3.5t-1.5 6v124v124v124q0 54 -27 80t-72 26q-24 0 -47.5 -7.5t-47.5 -23t-49.5 -39t-54.5 -56.5v72h25q26 31 54 53.5t60.5 35t69.5 12.5q35 0 61 -11t43 -31t26 -45.5t9 -55.5v-96v-95.5v-95.5v-53.5v-52.5zM160 0h-12.5h-13h-13.5
q-3 0 -5 0.5t-3.5 2t-2 3.5t-0.5 5v104v103.5v103.5v104v62v38h13.5h13h12.5q4 0 6 -1.5t3.5 -3.5t1.5 -6v-171v-172v-172zM375 704q26 0 49.5 15t41.5 41h11v-14v-15v-12q0 -6 -1.5 -10t-7.5 -12q-16 -19 -39 -30t-53 -11q-27 0 -46 9t-35.5 21.5t-32.5 21.5t-37 9
q-26 0 -49.5 -15t-41.5 -41h-11v14v15.5v11.5q0 6 1.5 10.5t7.5 11.5q17 20 39.5 30.5t52.5 10.5q27 0 46 -9t35.5 -21.5t32.5 -21.5t37 -9z" />
    <glyph glyph-name="ograve" unicode="&#xf2;" 
d="M300 536q49 0 88.5 -15.5t68 -43.5t43.5 -66t15 -83v-121q0 -64 -29 -113t-78 -76.5t-108 -27.5q-49 0 -88.5 15.5t-68 43.5t-43.5 66t-15 83v121q0 65 29 113.5t78 76t108 27.5zM309 488q-57 0 -95.5 -23.5t-58.5 -61.5t-20 -84v-114q0 -37 12.5 -68.5t34.5 -53.5
q20 -21 48 -33t61 -12q57 0 96 24.5t58.5 63t19.5 81.5v114q0 39 -12 70.5t-34 53.5q-20 20 -48 31.5t-62 11.5zM204 835q21 -31 41.5 -63t41.5 -63.5t40 -61.5h-18h-20q-6 0 -10.5 2.5t-6.5 5.5q-27 35 -46.5 59.5t-37.5 48.5t-42 54q-4 6 -2.5 12t8.5 6h17h15.5h19.5z" />
    <glyph glyph-name="oacute" unicode="&#xf3;" 
d="M300 536q49 0 88.5 -15.5t68 -43.5t43.5 -66t15 -83v-121q0 -64 -29 -113t-78 -76.5t-108 -27.5q-49 0 -88.5 15.5t-68 43.5t-43.5 66t-15 83v121q0 65 29 113.5t78 76t108 27.5zM309 488q-57 0 -95.5 -23.5t-58.5 -61.5t-20 -84v-114q0 -37 12.5 -68.5t34.5 -53.5
q20 -21 48 -33t61 -12q57 0 96 24.5t58.5 63t19.5 81.5v114q0 39 -12 70.5t-34 53.5q-20 20 -48 31.5t-62 11.5zM400 835h26.5h23.5q8 0 9.5 -6t-3.5 -12q-23 -30 -41.5 -54t-38 -48.5t-46.5 -59.5q-2 -3 -6.5 -5.5t-10.5 -2.5h-18.5h-17.5q20 30 40.5 61.5t41.5 63.5t41 63
z" />
    <glyph glyph-name="ocircumflex" unicode="&#xf4;" 
d="M300 536q49 0 88.5 -15.5t68 -43.5t43.5 -66t15 -83v-121q0 -64 -29 -113t-78 -76.5t-108 -27.5q-49 0 -88.5 15.5t-68 43.5t-43.5 66t-15 83v121q0 65 29 113.5t78 76t108 27.5zM309 488q-57 0 -95.5 -23.5t-58.5 -61.5t-20 -84v-114q0 -37 12.5 -68.5t34.5 -53.5
q20 -21 48 -33t61 -12q57 0 96 24.5t58.5 63t19.5 81.5v114q0 39 -12 70.5t-34 53.5q-20 20 -48 31.5t-62 11.5zM277 830h18h18q8 0 13.5 -4t19.5 -18q8 -9 28 -29.5t45.5 -47.5t51.5 -54t47 -49h-22h-22q-11 0 -16.5 2t-12.5 9q-16 16 -60 61t-104 106l41 -21h-43l41 21
q-61 -61 -102.5 -103.5t-73.5 -74.5h-37q-4 0 -6 1t-3 3.5t-1 4.5q0 4 4 8.5t18 19.5q13 14 34.5 36.5t46 47.5t45.5 47t32 34z" />
    <glyph glyph-name="otilde" unicode="&#xf5;" 
d="M300 536q49 0 88.5 -15.5t68 -43.5t43.5 -66t15 -83v-121q0 -64 -29 -113t-78 -76.5t-108 -27.5q-49 0 -88.5 15.5t-68 43.5t-43.5 66t-15 83v121q0 65 29 113.5t78 76t108 27.5zM309 488q-57 0 -95.5 -23.5t-58.5 -61.5t-20 -84v-114q0 -37 12.5 -68.5t34.5 -53.5
q20 -21 48 -33t61 -12q57 0 96 24.5t58.5 63t19.5 81.5v114q0 39 -12 70.5t-34 53.5q-20 20 -48 31.5t-62 11.5zM375 704q26 0 49.5 15t41.5 41h11v-14v-15v-12q0 -6 -1.5 -10t-7.5 -12q-16 -19 -39 -30t-53 -11q-27 0 -46 9t-35.5 21.5t-32.5 21.5t-37 9q-26 0 -49.5 -15
t-41.5 -41h-11v14v15.5v11.5q0 6 1.5 10.5t7.5 11.5q17 20 39.5 30.5t52.5 10.5q27 0 46 -9t35.5 -21.5t32.5 -21.5t37 -9z" />
    <glyph glyph-name="odieresis" unicode="&#xf6;" 
d="M300 536q49 0 88.5 -15.5t68 -43.5t43.5 -66t15 -83v-121q0 -64 -29 -113t-78 -76.5t-108 -27.5q-49 0 -88.5 15.5t-68 43.5t-43.5 66t-15 83v121q0 65 29 113.5t78 76t108 27.5zM309 488q-57 0 -95.5 -23.5t-58.5 -61.5t-20 -84v-114q0 -37 12.5 -68.5t34.5 -53.5
q20 -21 48 -33t61 -12q57 0 96 24.5t58.5 63t19.5 81.5v114q0 39 -12 70.5t-34 53.5q-20 20 -48 31.5t-62 11.5zM160 756h34.5h34.5q4 0 6 -1.5t3.5 -3.5t1.5 -6v-69h-34.5h-34.5q-3 0 -5.5 1.5t-4 4t-1.5 5.5v69zM360 756h34.5h34.5q4 0 6 -1.5t3.5 -3.5t1.5 -6v-69h-34.5
h-34.5q-3 0 -5.5 1.5t-4 4t-1.5 5.5v69z" />
    <glyph glyph-name="divide" unicode="&#xf7;" 
d="M76 325h437q5 0 8 -3t3 -8v-19.5v-19.5h-437q-3 0 -5.5 1.5t-4 4t-1.5 5.5v19.5v19.5zM238 531h36h41.5h35.5q4 0 6 -1.5t3.5 -3.5t1.5 -6v-109h-35.5h-41.5h-36q-3 0 -5.5 1.5t-4 4t-1.5 5.5v109zM238 189h36h41.5h35.5q4 0 6 -1.5t3.5 -3.5t1.5 -6v-109h-35.5h-41.5
h-36q-3 0 -5.5 1.5t-4 4t-1.5 5.5v109z" />
    <glyph glyph-name="oslash" unicode="&#xf8;" 
d="M490 582q-9 -17 -17.5 -34t-17.5 -34l-18 -34l-5 -37h-37l14 3q-2 -13 -9.5 -32t-25.5 -54q-43 -81 -86 -162.5t-86 -162.5q0 -2 0.5 -5t0.5 -5q-6 -12 -12.5 -23.5t-12.5 -23.5t-13 -24q-4 -7 -7 -8.5t-8 -1.5h-10.5h-11h-10h-8.5q8 16 16 31.5l16 31t16 30.5l10 52h27
l-7 -3q1 9 3 17t7.5 20.5t15.5 31.5q45 85 90 169.5t90 169.5q2 4 3 8l2 8q8 14 15.5 28.5t14.5 28.5q5 10 8.5 12.5t11.5 2.5h10.5h9h9.5h12zM300 536q49 0 88.5 -15.5t68 -43.5t43.5 -66t15 -83v-121q0 -64 -29 -113t-78 -76.5t-108 -27.5q-49 0 -88.5 15.5t-68 43.5
t-43.5 66t-15 83v121q0 65 29 113.5t78 76t108 27.5zM309 488q-57 0 -95.5 -23.5t-58.5 -61.5t-20 -84v-114q0 -37 12.5 -68.5t34.5 -53.5q20 -21 48 -33t61 -12q57 0 96 24.5t58.5 63t19.5 81.5v114q0 39 -12 70.5t-34 53.5q-20 20 -48 31.5t-62 11.5z" />
    <glyph glyph-name="ugrave" unicode="&#xf9;" 
d="M148 526q4 0 6 -1.5t3.5 -3.5t1.5 -6v-92.5v-93v-93v-93.5q0 -54 27 -80t72 -26q24 0 47.5 7.5t47.5 23t50 39t54 56.5v-72h-25q-26 -30 -54 -53t-60 -35.5t-70 -12.5q-34 0 -60.5 11t-43.5 31t-26 45.5t-9 55.5v89.5v89.5v89v63v62h19.5h19.5zM483 526q4 0 6 -1.5
t3.5 -3.5t1.5 -6v-138v-138.5v-138.5v-43.5v-34v-22.5h-12.5h-13h-13.5q-3 0 -5.5 1.5t-4 3.5t-1.5 6v172v172v171h13.5h13h12.5zM204 835q21 -31 41.5 -63t41.5 -63.5t40 -61.5h-18h-20q-6 0 -10.5 2.5t-6.5 5.5q-27 35 -46.5 59.5t-37.5 48.5t-42 54q-4 6 -2.5 12t8.5 6
h17h15.5h19.5z" />
    <glyph glyph-name="uacute" unicode="&#xfa;" 
d="M148 526q4 0 6 -1.5t3.5 -3.5t1.5 -6v-92.5v-93v-93v-93.5q0 -54 27 -80t72 -26q24 0 47.5 7.5t47.5 23t50 39t54 56.5v-72h-25q-26 -30 -54 -53t-60 -35.5t-70 -12.5q-34 0 -60.5 11t-43.5 31t-26 45.5t-9 55.5v89.5v89.5v89v63v62h19.5h19.5zM483 526q4 0 6 -1.5
t3.5 -3.5t1.5 -6v-138v-138.5v-138.5v-43.5v-34v-22.5h-12.5h-13h-13.5q-3 0 -5.5 1.5t-4 3.5t-1.5 6v172v172v171h13.5h13h12.5zM400 835h26.5h23.5q8 0 9.5 -6t-3.5 -12q-23 -30 -41.5 -54t-38 -48.5t-46.5 -59.5q-2 -3 -6.5 -5.5t-10.5 -2.5h-18.5h-17.5q20 30 40.5 61.5
t41.5 63.5t41 63z" />
    <glyph glyph-name="ucircumflex" unicode="&#xfb;" 
d="M148 526q4 0 6 -1.5t3.5 -3.5t1.5 -6v-92.5v-93v-93v-93.5q0 -54 27 -80t72 -26q24 0 47.5 7.5t47.5 23t50 39t54 56.5v-72h-25q-26 -30 -54 -53t-60 -35.5t-70 -12.5q-34 0 -60.5 11t-43.5 31t-26 45.5t-9 55.5v89.5v89.5v89v63v62h19.5h19.5zM483 526q4 0 6 -1.5
t3.5 -3.5t1.5 -6v-138v-138.5v-138.5v-43.5v-34v-22.5h-12.5h-13h-13.5q-3 0 -5.5 1.5t-4 3.5t-1.5 6v172v172v171h13.5h13h12.5zM277 830h18h18q8 0 13.5 -4t19.5 -18q8 -9 28 -29.5t45.5 -47.5t51.5 -54t47 -49h-22h-22q-11 0 -16.5 2t-12.5 9q-16 16 -60 61t-104 106
l41 -21h-43l41 21q-61 -61 -102.5 -103.5t-73.5 -74.5h-37q-4 0 -6 1t-3 3.5t-1 4.5q0 4 4 8.5t18 19.5q13 14 34.5 36.5t46 47.5t45.5 47t32 34z" />
    <glyph glyph-name="udieresis" unicode="&#xfc;" 
d="M148 526q4 0 6 -1.5t3.5 -3.5t1.5 -6v-92.5v-93v-93v-93.5q0 -54 27 -80t72 -26q24 0 47.5 7.5t47.5 23t50 39t54 56.5v-72h-25q-26 -30 -54 -53t-60 -35.5t-70 -12.5q-34 0 -60.5 11t-43.5 31t-26 45.5t-9 55.5v89.5v89.5v89v63v62h19.5h19.5zM483 526q4 0 6 -1.5
t3.5 -3.5t1.5 -6v-138v-138.5v-138.5v-43.5v-34v-22.5h-12.5h-13h-13.5q-3 0 -5.5 1.5t-4 3.5t-1.5 6v172v172v171h13.5h13h12.5zM160 756h34.5h34.5q4 0 6 -1.5t3.5 -3.5t1.5 -6v-69h-34.5h-34.5q-3 0 -5.5 1.5t-4 4t-1.5 5.5v69zM360 756h34.5h34.5q4 0 6 -1.5t3.5 -3.5
t1.5 -6v-69h-34.5h-34.5q-3 0 -5.5 1.5t-4 4t-1.5 5.5v69z" />
    <glyph glyph-name="yacute" unicode="&#xfd;" 
d="M534 526q5 0 10 -4t2 -12q-29 -81 -59 -163t-58.5 -161t-54 -150t-46.5 -129q-14 -39 -32.5 -62.5t-44.5 -34t-62 -10.5h-21h-23h-19h-11q-5 0 -8 2t-3 9v37h12h37.5h37.5q34 0 56 15t34 49q8 23 25 71t40.5 113.5t49.5 139.5t52.5 149t49.5 141h8.5h9h9h9.5zM92 526
q8 0 11.5 -2t6.5 -9q20 -48 44.5 -106.5t50 -119t47.5 -113.5t38 -90.5t21 -49.5h27l-14 -36h-27q-10 0 -15.5 2.5t-11 14t-16.5 36.5q-10 23 -27 62.5t-39 89t-46 105l-48 111t-46 105.5h10.5h11h11h11.5zM412 835h26.5h23.5q8 0 9.5 -6t-3.5 -12q-23 -30 -41.5 -54
t-38 -48.5t-46.5 -59.5q-2 -3 -6.5 -5.5t-10.5 -2.5h-18.5h-17.5q20 30 40.5 61.5t41.5 63.5t41 63z" />
    <glyph glyph-name="thorn" unicode="&#xfe;" 
d="M110 760h13.5h13h12.5q3 0 5.5 -1.5t4 -4t1.5 -5.5v-194v-193.5v-193.5v-194v-194h-12.5h-13h-13.5q-3 0 -5.5 1.5t-4 4t-1.5 5.5v144.5v145v145v145v145v144.5v48.5v51.5zM344 536q58 0 98 -25.5t61.5 -72t21.5 -109.5v-116q0 -53 -13.5 -94.5t-39 -70t-63 -43.5
t-85.5 -15q-38 0 -65.5 7.5t-48 22t-38.5 33.5h-19v70q30 -33 55 -52t52 -26.5t61 -7.5q53 0 87 20t50.5 61.5t16.5 104.5v86q0 44 -8.5 78t-25.5 56q-17 23 -41.5 34.5t-56.5 11.5q-36 0 -67.5 -10.5t-64 -35t-72.5 -66.5v85h33q26 26 53 42.5t56.5 24t62.5 7.5z" />
    <glyph glyph-name="ydieresis" unicode="&#xff;" 
d="M534 526q5 0 10 -4t2 -12q-29 -81 -59 -163t-58.5 -161t-54 -150t-46.5 -129q-14 -39 -32.5 -62.5t-44.5 -34t-62 -10.5h-21h-23h-19h-11q-5 0 -8 2t-3 9v37h12h37.5h37.5q34 0 56 15t34 49q8 23 25 71t40.5 113.5t49.5 139.5t52.5 149t49.5 141h8.5h9h9h9.5zM92 526
q8 0 11.5 -2t6.5 -9q20 -48 44.5 -106.5t50 -119t47.5 -113.5t38 -90.5t21 -49.5h27l-14 -36h-27q-10 0 -15.5 2.5t-11 14t-16.5 36.5q-10 23 -27 62.5t-39 89t-46 105l-48 111t-46 105.5h10.5h11h11h11.5zM172 756h34.5h34.5q4 0 6 -1.5t3.5 -3.5t1.5 -6v-69h-34.5h-34.5
q-3 0 -5.5 1.5t-4 4t-1.5 5.5v69zM372 756h34.5h34.5q4 0 6 -1.5t3.5 -3.5t1.5 -6v-69h-34.5h-34.5q-3 0 -5.5 1.5t-4 4t-1.5 5.5v69z" />
    <glyph glyph-name="Amacron" unicode="&#x100;" horiz-adv-x="650" 
d="M147 277h292h16h15l22 10l11 -57h-345q-3 0 -5.5 1.5t-4 4t-1.5 5.5v36zM89 0h-19.5h-20.5q-3 0 -5.5 2t-3 5t0.5 7q17 50 34.5 99.5t34.5 99.5t34.5 99.5l35 99t34.5 99.5t34.5 99.5t34.5 99.5h46.5h40.5q4 0 6.5 -1.5t3.5 -4t2 -5.5l52 -160t52 -159.5t52 -159.5
l52 -160l10 -30l10 -30h-22h-22q-4 0 -6.5 1.5t-4 5.5t-4.5 11q-16 50 -37.5 116.5t-46 140.5t-48.5 148t-45 139t-37 112l16 -12h-45l16 11q-17 -47 -38.5 -108t-46 -131.5t-50.5 -145t-51.5 -148t-48.5 -140.5zM151 862h337q5 0 8 -3t3 -8v-19.5v-19.5h-337q-3 0 -5.5 1.5
t-4 4t-1.5 5.5v19.5v19.5z" />
    <glyph glyph-name="amacron" unicode="&#x101;" 
d="M485 361v-63v-64.5v-64.5v-63q0 -19 3 -30.5t10 -18.5q6 -6 15 -8.5t21 -2.5h4.5h4.5h12v-17.5v-17.5q0 -6 -3 -8.5t-8 -2.5h-7h-5q-20 0 -37.5 5t-31 16.5t-21 30t-7.5 45.5v81v81v32.5v32.5v32q0 51 -12.5 79t-43 39.5t-85.5 11.5q-30 0 -57 -3.5t-52.5 -10.5
t-52.5 -18h-12v19v19q0 3 1 5t2 3q5 5 29 13.5t61 15.5t81 7q50 0 86.5 -9.5t59.5 -30.5t34 -54t11 -81zM135 132q0 -46 27.5 -70t79.5 -24q41 0 75.5 11.5t67.5 40.5t69 82v-89h-30q-19 -30 -45 -51t-60 -31.5t-77 -10.5q-49 0 -84 16.5t-54 48t-19 76.5v28q0 34 10.5 60
t31 44t49.5 27.5t66 9.5h66h65.5h71.5q8 0 11.5 -6t4.5 -16.5t1 -24.5h-75.5h-67h-77.5q-28 0 -48.5 -6.5t-34.5 -20.5q-12 -12 -18 -29t-6 -39v-26zM132 729h337q5 0 8 -3t3 -8v-12.5v-13v-13.5h-337q-3 0 -5.5 1.5t-4 4t-1.5 5.5v13.5v13v12.5z" />
    <glyph glyph-name="Abreve" unicode="&#x102;" horiz-adv-x="650" 
d="M147 277h292h16h15l22 10l11 -57h-345q-3 0 -5.5 1.5t-4 4t-1.5 5.5v36zM89 0h-19.5h-20.5q-3 0 -5.5 2t-3 5t0.5 7q17 50 34.5 99.5t34.5 99.5t34.5 99.5l35 99t34.5 99.5t34.5 99.5t34.5 99.5h46.5h40.5q4 0 6.5 -1.5t3.5 -4t2 -5.5l52 -160t52 -159.5t52 -159.5
l52 -160l10 -30l10 -30h-22h-22q-4 0 -6.5 1.5t-4 5.5t-4.5 11q-16 50 -37.5 116.5t-46 140.5t-48.5 148t-45 139t-37 112l16 -12h-45l16 11q-17 -47 -38.5 -108t-46 -131.5t-50.5 -145t-51.5 -148t-48.5 -140.5zM454 935h15.5h15.5q10 0 12.5 -6t-1.5 -17q-11 -33 -35 -57
t-56.5 -37t-72.5 -13h-14q-39 0 -72 13t-56.5 37t-35.5 57q-4 11 -1.5 17t12.5 6h15.5h15.5q20 -46 51 -65t78 -19t78 19t51 65z" />
    <glyph glyph-name="abreve" unicode="&#x103;" 
d="M485 361v-63v-64.5v-64.5v-63q0 -19 3 -30.5t10 -18.5q6 -6 15 -8.5t21 -2.5h4.5h4.5h12v-17.5v-17.5q0 -6 -3 -8.5t-8 -2.5h-7h-5q-20 0 -37.5 5t-31 16.5t-21 30t-7.5 45.5v81v81v32.5v32.5v32q0 51 -12.5 79t-43 39.5t-85.5 11.5q-30 0 -57 -3.5t-52.5 -10.5
t-52.5 -18h-12v19v19q0 3 1 5t2 3q5 5 29 13.5t61 15.5t81 7q50 0 86.5 -9.5t59.5 -30.5t34 -54t11 -81zM135 132q0 -46 27.5 -70t79.5 -24q41 0 75.5 11.5t67.5 40.5t69 82v-89h-30q-19 -30 -45 -51t-60 -31.5t-77 -10.5q-49 0 -84 16.5t-54 48t-19 76.5v28q0 34 10.5 60
t31 44t49.5 27.5t66 9.5h66h65.5h71.5q8 0 11.5 -6t4.5 -16.5t1 -24.5h-75.5h-67h-77.5q-28 0 -48.5 -6.5t-34.5 -20.5q-12 -12 -18 -29t-6 -39v-26zM306 681q53 0 86.5 29t42.5 90h15.5h15.5q10 0 13 -4t1 -18q-4 -39 -26 -71.5t-58 -52t-83 -19.5h-14q-47 0 -83 19.5
t-57.5 52t-26.5 71.5q-1 14 1.5 18t12.5 4h15.5h15.5q9 -61 42.5 -90t86.5 -29z" />
    <glyph glyph-name="Aogonek" unicode="&#x104;" horiz-adv-x="650" 
d="M147 277h292h16h15l22 10l11 -57h-345q-3 0 -5.5 1.5t-4 4t-1.5 5.5v36zM89 0h-19.5h-20.5q-3 0 -5.5 2t-3 5t0.5 7q17 50 34.5 99.5t34.5 99.5t34.5 99.5l35 99t34.5 99.5t34.5 99.5t34.5 99.5h46.5h40.5q4 0 6.5 -1.5t3.5 -4t2 -5.5l52 -160t52 -159.5t52 -159.5
l52 -160l10 -30l10 -30h-22h-22q-4 0 -6.5 1.5t-4 5.5t-4.5 11q-16 50 -37.5 116.5t-46 140.5t-48.5 148t-45 139t-37 112l16 -12h-45l16 11q-17 -47 -38.5 -108t-46 -131.5t-50.5 -145t-51.5 -148t-48.5 -140.5zM557 19q9 2 21.5 -2.5t31.5 -16.5q0 -4 -2 -6.5t-9 -4.5
q-84 -22 -113 -55t-29 -70q0 -34 19.5 -50.5t47.5 -16.5q23 0 39 5.5t32 17.5h12v-11.5v-12.5v-13q0 -10 -22 -21.5t-59 -11.5q-56 0 -88 28.5t-32 77.5q0 46 22.5 79.5t57 54.5t71.5 29z" />
    <glyph glyph-name="aogonek" unicode="&#x105;" 
d="M485 361v-63v-64.5v-64.5v-63q0 -19 3 -30.5t10 -18.5q6 -6 15 -8.5t21 -2.5h4.5h4.5h12v-17.5v-17.5q0 -6 -3 -8.5t-8 -2.5h-7h-5q-20 0 -37.5 5t-31 16.5t-21 30t-7.5 45.5v81v81v32.5v32.5v32q0 51 -12.5 79t-43 39.5t-85.5 11.5q-30 0 -57 -3.5t-52.5 -10.5
t-52.5 -18h-12v19v19q0 3 1 5t2 3q5 5 29 13.5t61 15.5t81 7q50 0 86.5 -9.5t59.5 -30.5t34 -54t11 -81zM135 132q0 -46 27.5 -70t79.5 -24q41 0 75.5 11.5t67.5 40.5t69 82v-89h-30q-19 -30 -45 -51t-60 -31.5t-77 -10.5q-49 0 -84 16.5t-54 48t-19 76.5v28q0 34 10.5 60
t31 44t49.5 27.5t66 9.5h66h65.5h71.5q8 0 11.5 -6t4.5 -16.5t1 -24.5h-75.5h-67h-77.5q-28 0 -48.5 -6.5t-34.5 -20.5q-12 -12 -18 -29t-6 -39v-26zM534 22q7 1 14 -7t7 -13q0 -7 -3 -10.5t-13 -6.5q-64 -19 -88.5 -55t-24.5 -77q0 -29 13.5 -42.5t38.5 -13.5
q20 0 33.5 4.5t28.5 15.5h12v-11v-15v-10q0 -13 -21.5 -22.5t-51.5 -9.5q-49 0 -76.5 27.5t-27.5 71.5q0 45 19.5 81t55 60.5t84.5 32.5z" />
    <glyph glyph-name="Cacute" unicode="&#x106;" 
d="M325 -20q-60 0 -106.5 18t-78.5 52t-48.5 82t-16.5 109v218q0 61 16.5 109t48.5 82t78.5 52t106.5 18q49 0 86 -9t64 -24.5t45 -33.5q2 -1 2.5 -3l1 -4t0.5 -3v-71.5v-71.5h-19.5h-19.5q-5 0 -8 3t-3 8v51.5v51v50.5l23 -51q-36 32 -77 46t-95 14q-62 0 -106.5 -25
t-68 -73.5t-23.5 -120.5v-208q0 -52 13.5 -94.5t44.5 -74.5q26 -26 61.5 -38t78.5 -12q59 0 102 19t85 54h12v-10.5v-11v-10v-7.5t-1 -5.5t-3 -4.5q-23 -23 -52.5 -38.5t-65.5 -24t-77 -8.5zM426 943h18.5h12h15.5q6 0 9 -5t-2 -10q-18 -22 -31 -38.5t-24.5 -31t-25.5 -32
t-35 -43.5q-2 -3 -6.5 -5.5t-10.5 -2.5h-12.5h-11h-11.5q21 30 39 56.5t36.5 53.5t39.5 58z" />
    <glyph glyph-name="cacute" unicode="&#x107;" horiz-adv-x="500" 
d="M298 536q39 0 68 -7.5t47 -17.5t25 -17q4 -4 4.5 -6t0.5 -7v-16.5v-16.5h-12q-19 14 -50.5 27.5t-82.5 13.5q-58 0 -96.5 -21t-57.5 -62t-19 -101v-100q0 -40 10.5 -71t31.5 -52q22 -22 55 -33.5t76 -11.5q35 0 59.5 5t42.5 13t31 18h12v-17.5v-17.5q0 -2 -0.5 -4
t-2.5 -4q-8 -8 -25.5 -17.5t-46 -16t-71.5 -6.5q-54 0 -95 13.5t-69.5 41t-43 67.5t-14.5 92v106q0 78 30 128t80.5 74t112.5 24zM379 835h26.5h23.5q8 0 9.5 -6t-3.5 -12q-23 -30 -41.5 -54t-38 -48.5t-46.5 -59.5q-2 -3 -6.5 -5.5t-10.5 -2.5h-18.5h-17.5q20 30 40.5 61.5
t41.5 63.5t41 63z" />
    <glyph glyph-name="Ccircumflex" unicode="&#x108;" 
d="M325 -20q-60 0 -106.5 18t-78.5 52t-48.5 82t-16.5 109v218q0 61 16.5 109t48.5 82t78.5 52t106.5 18q49 0 86 -9t64 -24.5t45 -33.5q2 -1 2.5 -3l1 -4t0.5 -3v-71.5v-71.5h-19.5h-19.5q-5 0 -8 3t-3 8v51.5v51v50.5l23 -51q-36 32 -77 46t-95 14q-62 0 -106.5 -25
t-68 -73.5t-23.5 -120.5v-208q0 -52 13.5 -94.5t44.5 -74.5q26 -26 61.5 -38t78.5 -12q59 0 102 19t85 54h12v-10.5v-11v-10v-7.5t-1 -5.5t-3 -4.5q-23 -23 -52.5 -38.5t-65.5 -24t-77 -8.5zM309 944h12h12h12q8 0 14 -3.5t22 -17.5q8 -7 27.5 -24.5t44.5 -39t50.5 -43.5
t46.5 -40q-12 1 -22.5 0.5t-22.5 -0.5q-11 0 -16 1.5t-13 8.5q-17 14 -60.5 48.5t-104.5 82.5l54 -19h-32h-32l54 19q-61 -48 -103 -81.5t-74 -59.5h-39q-5 0 -7.5 1t-3.5 2.5t-1 3.5q0 4 4.5 8.5t20.5 18.5q13 11 34.5 29t45.5 38.5t44.5 38.5t32.5 28z" />
    <glyph glyph-name="ccircumflex" unicode="&#x109;" horiz-adv-x="500" 
d="M298 536q39 0 68 -7.5t47 -17.5t25 -17q4 -4 4.5 -6t0.5 -7v-16.5v-16.5h-12q-19 14 -50.5 27.5t-82.5 13.5q-58 0 -96.5 -21t-57.5 -62t-19 -101v-100q0 -40 10.5 -71t31.5 -52q22 -22 55 -33.5t76 -11.5q35 0 59.5 5t42.5 13t31 18h12v-17.5v-17.5q0 -2 -0.5 -4
t-2.5 -4q-8 -8 -25.5 -17.5t-46 -16t-71.5 -6.5q-54 0 -95 13.5t-69.5 41t-43 67.5t-14.5 92v106q0 78 30 128t80.5 74t112.5 24zM256 830h18h18q8 0 13.5 -4t19.5 -18q8 -9 28 -29.5t45.5 -47.5t51.5 -54t47 -49h-22h-22q-11 0 -16.5 2t-12.5 9q-16 16 -60 61t-104 106
l41 -21h-43l41 21q-61 -61 -102.5 -103.5t-73.5 -74.5h-37q-4 0 -6 1t-3 3.5t-1 4.5q0 4 4 8.5t18 19.5q13 14 34.5 36.5t46 47.5t45.5 47t32 34z" />
    <glyph glyph-name="Cdotaccent" unicode="&#x10a;" 
d="M325 -20q-60 0 -106.5 18t-78.5 52t-48.5 82t-16.5 109v218q0 61 16.5 109t48.5 82t78.5 52t106.5 18q49 0 86 -9t64 -24.5t45 -33.5q2 -1 2.5 -3l1 -4t0.5 -3v-71.5v-71.5h-19.5h-19.5q-5 0 -8 3t-3 8v51.5v51v50.5l23 -51q-36 32 -77 46t-95 14q-62 0 -106.5 -25
t-68 -73.5t-23.5 -120.5v-208q0 -52 13.5 -94.5t44.5 -74.5q26 -26 61.5 -38t78.5 -12q59 0 102 19t85 54h12v-10.5v-11v-10v-7.5t-1 -5.5t-3 -4.5q-23 -23 -52.5 -38.5t-65.5 -24t-77 -8.5zM295 888h17.5h17h17h17.5q5 0 8 -3t3 -8v-69h-17.5h-17h-17h-17.5q-5 0 -8 3t-3 8
v69z" />
    <glyph glyph-name="cdotaccent" unicode="&#x10b;" horiz-adv-x="500" 
d="M298 536q39 0 68 -7.5t47 -17.5t25 -17q4 -4 4.5 -6t0.5 -7v-16.5v-16.5h-12q-19 14 -50.5 27.5t-82.5 13.5q-58 0 -96.5 -21t-57.5 -62t-19 -101v-100q0 -40 10.5 -71t31.5 -52q22 -22 55 -33.5t76 -11.5q35 0 59.5 5t42.5 13t31 18h12v-17.5v-17.5q0 -2 -0.5 -4
t-2.5 -4q-8 -8 -25.5 -17.5t-46 -16t-71.5 -6.5q-54 0 -95 13.5t-69.5 41t-43 67.5t-14.5 92v106q0 78 30 128t80.5 74t112.5 24zM239 756h17.5h17h17h17.5q5 0 8 -3t3 -8v-69h-17.5h-17h-17h-17.5q-5 0 -8 3t-3 8v69z" />
    <glyph glyph-name="Ccaron" unicode="&#x10c;" 
d="M325 -20q-60 0 -106.5 18t-78.5 52t-48.5 82t-16.5 109v218q0 61 16.5 109t48.5 82t78.5 52t106.5 18q49 0 86 -9t64 -24.5t45 -33.5q2 -1 2.5 -3l1 -4t0.5 -3v-71.5v-71.5h-19.5h-19.5q-5 0 -8 3t-3 8v51.5v51v50.5l23 -51q-36 32 -77 46t-95 14q-62 0 -106.5 -25
t-68 -73.5t-23.5 -120.5v-208q0 -52 13.5 -94.5t44.5 -74.5q26 -26 61.5 -38t78.5 -12q59 0 102 19t85 54h12v-10.5v-11v-10v-7.5t-1 -5.5t-3 -4.5q-23 -23 -52.5 -38.5t-65.5 -24t-77 -8.5zM360 776h-12h-12h-12q-8 0 -14 3.5t-22 17.5q-8 7 -27.5 24.5t-44.5 39
t-50.5 43.5t-46.5 40q12 -1 22.5 -0.5t22.5 0.5q11 0 16 -1.5t13 -8.5q17 -14 60.5 -48.5t104.5 -82.5l-54 19h32h32l-54 -19q61 48 103 81.5t74 59.5h39q5 0 7.5 -1t3.5 -2.5t1 -3.5q0 -4 -4.5 -8.5t-20.5 -18.5q-13 -11 -34.5 -29t-45.5 -38.5t-44.5 -38.5t-32.5 -28z" />
    <glyph glyph-name="ccaron" unicode="&#x10d;" horiz-adv-x="500" 
d="M298 536q39 0 68 -7.5t47 -17.5t25 -17q4 -4 4.5 -6t0.5 -7v-16.5v-16.5h-12q-19 14 -50.5 27.5t-82.5 13.5q-58 0 -96.5 -21t-57.5 -62t-19 -101v-100q0 -40 10.5 -71t31.5 -52q22 -22 55 -33.5t76 -11.5q35 0 59.5 5t42.5 13t31 18h12v-17.5v-17.5q0 -2 -0.5 -4
t-2.5 -4q-8 -8 -25.5 -17.5t-46 -16t-71.5 -6.5q-54 0 -95 13.5t-69.5 41t-43 67.5t-14.5 92v106q0 78 30 128t80.5 74t112.5 24zM303 629h-18h-18q-8 0 -13.5 4t-19.5 18q-8 9 -28 29.5t-45.5 47.5t-51.5 54t-47 49h22h22q11 0 16.5 -2t12.5 -9q16 -16 60 -61t104 -106
l-41 21h43l-41 -21q61 61 102.5 103.5t73.5 74.5h37q4 0 6 -1t3 -3.5t1 -4.5q0 -4 -4 -8.5t-18 -19.5q-13 -14 -34.5 -36.5t-46 -47.5t-45.5 -47t-32 -34z" />
    <glyph glyph-name="Dcaron" unicode="&#x10e;" horiz-adv-x="650" 
d="M575 245q0 -66 -20 -112.5t-57 -75.5t-86.5 -43t-109.5 -14h-46.5h-40.5h-37h-34.5h-32.5q-4 0 -7.5 3.5t-3.5 7.5v167.5v167v167v167.5h59l-7 -11v-56v-57v-126.5v-127.5v-127.5v-127.5h41h46.5h59.5q78 0 128 21t74 65.5t24 115.5v202q0 38 -6 67.5t-18.5 52.5
t-32.5 39q-21 17 -45 26.5t-56 13t-76 3.5h-70h-63.5h-59h-57.5q-3 0 -5.5 1.5t-4 4t-1.5 5.5v18v18h61h64.5h72h84.5q61 0 109.5 -14t83 -43t52.5 -75.5t18 -112.5v-210zM327 776h-12h-12h-12q-8 0 -14 3.5t-22 17.5q-8 7 -27.5 24.5t-44.5 39t-50.5 43.5t-46.5 40
q12 -1 22.5 -0.5t22.5 0.5q11 0 16 -1.5t13 -8.5q17 -14 60.5 -48.5t104.5 -82.5l-54 19h32h32l-54 -19q61 48 103 81.5t74 59.5h39q5 0 7.5 -1t3.5 -2.5t1 -3.5q0 -4 -4.5 -8.5t-20.5 -18.5q-13 -11 -34.5 -29t-45.5 -38.5t-44.5 -38.5t-32.5 -28z" />
    <glyph glyph-name="dcaron" unicode="&#x10f;" horiz-adv-x="700" 
d="M75 186v144q0 48 13.5 86t38.5 65t59 41t75 14q37 0 66.5 -10.5t54.5 -31t46 -51.5h27v-99q-43 76 -89.5 110.5t-99.5 34.5q-43 0 -74.5 -19t-49 -56t-17.5 -91v-130q0 -39 11 -69t30 -50q18 -18 43.5 -27.5t56.5 -9.5q26 0 51 7.5t48.5 24t46 43t43.5 64.5v-92h-27
q-20 -30 -45.5 -51t-56.5 -32t-69 -11q-39 0 -72.5 13.5t-58 39t-38 61.5t-13.5 82zM440 650v49v51h10h9.5h9.5h10q4 0 6 -1.5t3.5 -3.5t1.5 -6v-164v-167v-161.5v-146.5v-58.5v-41.5h-10h-9.5h-9.5h-10q-3 0 -5.5 1.5t-4 3.5t-1.5 6v160v159.5v159.5v160zM642 588h-16.5
h-13.5q4 37 6.5 60.5t5 46.5t5.5 55h17.5h14.5h15q10 0 13 -4.5t1 -10.5q-7 -31 -11.5 -48.5t-9 -36t-12.5 -52.5q-1 -4 -4 -7t-11 -3z" />
    <glyph glyph-name="Dcroat" unicode="&#x110;" horiz-adv-x="650" 
d="M26 380h337q5 0 8 -3t3 -8v-16v-16h-337q-5 0 -8 3t-3 8v16v16zM575 245q0 -66 -20 -112.5t-57 -75.5t-86.5 -43t-109.5 -14h-46.5h-40.5h-37h-34.5h-32.5q-4 0 -7.5 3.5t-3.5 7.5v167.5v167v167v167.5h59l-7 -11v-56v-57v-126.5v-127.5v-127.5v-127.5h41h46.5h59.5
q78 0 128 21t74 65.5t24 115.5v202q0 38 -6 67.5t-18.5 52.5t-32.5 39q-21 17 -45 26.5t-56 13t-76 3.5h-70h-63.5h-59h-57.5q-3 0 -5.5 1.5t-4 4t-1.5 5.5v18v18h61h64.5h72h84.5q61 0 109.5 -14t83 -43t52.5 -75.5t18 -112.5v-210z" />
    <glyph glyph-name="dcroat" unicode="&#x111;" 
d="M206 655h357q5 0 8 -3t3 -8v-16v-16h-357q-5 0 -8 3t-3 8v16v16zM261 536q37 0 66.5 -10.5t54.5 -31t46 -51.5h27v-99q-43 76 -89.5 110.5t-99.5 34.5q-43 0 -74.5 -19t-49 -56t-17.5 -91v-130q0 -39 11 -69t30 -50q18 -18 43.5 -27.5t56.5 -9.5q35 0 67.5 13.5t63 44.5
t58.5 81v-92h-27q-20 -30 -45.5 -51t-56.5 -32t-69 -11q-39 0 -72.5 13.5t-58 39t-38 61.5t-13.5 82v144q0 48 13.5 86t38.5 65t59 41t75 14zM479 750q4 0 6 -1.5t3.5 -3.5t1.5 -6v-164v-167v-161.5v-146.5v-58.5v-41.5h-10h-9.5h-9.5h-10q-3 0 -5.5 1.5t-4 3.5t-1.5 6v160
v159.5v159.5v160v49v51h10h9.5h9.5h10z" />
    <glyph glyph-name="Emacron" unicode="&#x112;" horiz-adv-x="550" 
d="M20 700h459q4 0 6 -1.5t3.5 -4t1.5 -5.5v-18v-18h-459q-3 0 -5.5 1.5t-4 4t-1.5 5.5v18v18zM110 380h319q3 0 5.5 -1.5t4 -3.5t1.5 -6v-12v-11.5v-12.5h-330v47zM101 0q-2 0 -4 1t-3.5 2.5t-2.5 3.5t-1 4v136v136v135.5v135.5v136h55l-5 -11v-39v-43v-127.5v-140.5v-144
v-138h339q5 0 8 -3t3 -8v-18v-18h-389zM101 862h337q5 0 8 -3t3 -8v-19.5v-19.5h-337q-3 0 -5.5 1.5t-4 4t-1.5 5.5v19.5v19.5z" />
    <glyph glyph-name="emacron" unicode="&#x113;" 
d="M303 536q52 0 99.5 -21t78 -70t30.5 -135v-65q0 -3 -1.5 -5.5t-3.5 -4t-6 -1.5h-288h-32h-32h-19l-22 47h354v12.5v12.5q0 50 -11.5 86t-34.5 58q-20 20 -48.5 29.5t-63.5 9.5q-78 0 -123 -44t-45 -144v-89q0 -40 11 -72.5t32 -53.5q24 -24 61.5 -36.5t89.5 -12.5
q39 0 66 4.5t50.5 14.5t50.5 26h12v-17v-17q0 -2 -0.5 -4t-2.5 -4q-13 -13 -38 -24.5t-61.5 -18.5t-82.5 -7q-51 0 -94.5 13t-75.5 40t-50 68.5t-18 98.5v94q0 66 18.5 110.5t50 71.5t70.5 38.5t79 11.5zM133 740h337q5 0 8 -3t3 -8v-12.5v-13v-13.5h-337q-3 0 -5.5 1.5
t-4 4t-1.5 5.5v13.5v13v12.5z" />
    <glyph glyph-name="Ebreve" unicode="&#x114;" horiz-adv-x="550" 
d="M20 700h459q4 0 6 -1.5t3.5 -4t1.5 -5.5v-18v-18h-459q-3 0 -5.5 1.5t-4 4t-1.5 5.5v18v18zM110 380h319q3 0 5.5 -1.5t4 -3.5t1.5 -6v-12v-11.5v-12.5h-330v47zM101 0q-2 0 -4 1t-3.5 2.5t-2.5 3.5t-1 4v136v136v135.5v135.5v136h55l-5 -11v-39v-43v-127.5v-140.5v-144
v-138h339q5 0 8 -3t3 -8v-18v-18h-389zM404 935h15.5h15.5q10 0 12.5 -6t-1.5 -17q-11 -33 -35 -57t-56.5 -37t-72.5 -13h-14q-39 0 -72 13t-56.5 37t-35.5 57q-4 11 -1.5 17t12.5 6h15.5h15.5q20 -46 51 -65t78 -19t78 19t51 65z" />
    <glyph glyph-name="ebreve" unicode="&#x115;" 
d="M303 536q52 0 99.5 -21t78 -70t30.5 -135v-65q0 -3 -1.5 -5.5t-3.5 -4t-6 -1.5h-288h-32h-32h-19l-22 47h354v12.5v12.5q0 50 -11.5 86t-34.5 58q-20 20 -48.5 29.5t-63.5 9.5q-78 0 -123 -44t-45 -144v-89q0 -40 11 -72.5t32 -53.5q24 -24 61.5 -36.5t89.5 -12.5
q39 0 66 4.5t50.5 14.5t50.5 26h12v-17v-17q0 -2 -0.5 -4t-2.5 -4q-13 -13 -38 -24.5t-61.5 -18.5t-82.5 -7q-51 0 -94.5 13t-75.5 40t-50 68.5t-18 98.5v94q0 66 18.5 110.5t50 71.5t70.5 38.5t79 11.5zM307 692q53 0 86.5 29t42.5 90h15.5h15.5q10 0 13 -4t1 -18
q-4 -39 -26 -71.5t-58 -52t-83 -19.5h-14q-47 0 -83 19.5t-57.5 52t-26.5 71.5q-1 14 1.5 18t12.5 4h15.5h15.5q9 -61 42.5 -90t86.5 -29z" />
    <glyph glyph-name="Edotaccent" unicode="&#x116;" horiz-adv-x="550" 
d="M20 700h459q4 0 6 -1.5t3.5 -4t1.5 -5.5v-18v-18h-459q-3 0 -5.5 1.5t-4 4t-1.5 5.5v18v18zM110 380h319q3 0 5.5 -1.5t4 -3.5t1.5 -6v-12v-11.5v-12.5h-330v47zM101 0q-2 0 -4 1t-3.5 2.5t-2.5 3.5t-1 4v136v136v135.5v135.5v136h55l-5 -11v-39v-43v-127.5v-140.5v-144
v-138h339q5 0 8 -3t3 -8v-18v-18h-389zM235 888h17.5h17h17h17.5q5 0 8 -3t3 -8v-69h-17.5h-17h-17h-17.5q-5 0 -8 3t-3 8v69z" />
    <glyph glyph-name="edotaccent" unicode="&#x117;" 
d="M303 536q52 0 99.5 -21t78 -70t30.5 -135v-65q0 -3 -1.5 -5.5t-3.5 -4t-6 -1.5h-288h-32h-32h-19l-22 47h354v12.5v12.5q0 50 -11.5 86t-34.5 58q-20 20 -48.5 29.5t-63.5 9.5q-78 0 -123 -44t-45 -144v-89q0 -40 11 -72.5t32 -53.5q24 -24 61.5 -36.5t89.5 -12.5
q39 0 66 4.5t50.5 14.5t50.5 26h12v-17v-17q0 -2 -0.5 -4t-2.5 -4q-13 -13 -38 -24.5t-61.5 -18.5t-82.5 -7q-51 0 -94.5 13t-75.5 40t-50 68.5t-18 98.5v94q0 66 18.5 110.5t50 71.5t70.5 38.5t79 11.5zM267 756h17.5h17h17h17.5q5 0 8 -3t3 -8v-69h-17.5h-17h-17h-17.5
q-5 0 -8 3t-3 8v69z" />
    <glyph glyph-name="Eogonek" unicode="&#x118;" horiz-adv-x="550" 
d="M20 700h459q4 0 6 -1.5t3.5 -4t1.5 -5.5v-18v-18h-459q-3 0 -5.5 1.5t-4 4t-1.5 5.5v18v18zM110 380h319q3 0 5.5 -1.5t4 -3.5t1.5 -6v-12v-11.5v-12.5h-330v47zM101 0q-2 0 -4 1t-3.5 2.5t-2.5 3.5t-1 4v136v136v135.5v135.5v136h55l-5 -11v-39v-43v-127.5v-140.5v-144
v-138h339q5 0 8 -3t3 -8v-18v-18h-389zM437 19q9 2 21.5 -2.5t31.5 -16.5q0 -4 -2 -6.5t-9 -4.5q-84 -22 -113 -55t-29 -70q0 -34 19.5 -50.5t47.5 -16.5q23 0 39 5.5t32 17.5h12v-11.5v-12.5v-13q0 -10 -22 -21.5t-59 -11.5q-56 0 -88 28.5t-32 77.5q0 46 22.5 79.5
t57 54.5t71.5 29z" />
    <glyph glyph-name="eogonek" unicode="&#x119;" 
d="M325 -146q0 36 14.5 66.5t39.5 55.5t56 44t63 32q4 2 6 1t3 -2.5t1 -2.5q0 -13 -4 -20.5t-15 -14.5q-55 -34 -84.5 -73t-29.5 -86q0 -27 15.5 -41.5t38.5 -14.5q21 0 35 5.5t29 17.5h12v-11v-15v-10q0 -13 -22 -24t-54 -11t-55.5 12.5t-36 35.5t-12.5 56zM303 536
q52 0 99.5 -21t78 -70t30.5 -135v-65q0 -3 -1.5 -5.5t-3.5 -4t-6 -1.5h-288h-32h-32h-19l-22 47h354v12.5v12.5q0 50 -11.5 86t-34.5 58q-20 20 -48.5 29.5t-63.5 9.5q-78 0 -123 -44t-45 -144v-89q0 -40 11 -72.5t32 -53.5q24 -24 61.5 -36.5t89.5 -12.5q39 0 66 4.5
t50.5 14.5t50.5 26h12v-17v-17q0 -2 -0.5 -4t-2.5 -4q-13 -13 -38 -24.5t-61.5 -18.5t-82.5 -7q-51 0 -94.5 13t-75.5 40t-50 68.5t-18 98.5v94q0 66 18.5 110.5t50 71.5t70.5 38.5t79 11.5z" />
    <glyph glyph-name="Ecaron" unicode="&#x11a;" horiz-adv-x="550" 
d="M20 700h459q4 0 6 -1.5t3.5 -4t1.5 -5.5v-18v-18h-459q-3 0 -5.5 1.5t-4 4t-1.5 5.5v18v18zM110 380h319q3 0 5.5 -1.5t4 -3.5t1.5 -6v-12v-11.5v-12.5h-330v47zM101 0q-2 0 -4 1t-3.5 2.5t-2.5 3.5t-1 4v136v136v135.5v135.5v136h55l-5 -11v-39v-43v-127.5v-140.5v-144
v-138h339q5 0 8 -3t3 -8v-18v-18h-389zM300 776h-12h-12h-12q-8 0 -14 3.5t-22 17.5q-8 7 -27.5 24.5t-44.5 39t-50.5 43.5t-46.5 40q12 -1 22.5 -0.5t22.5 0.5q11 0 16 -1.5t13 -8.5q17 -14 60.5 -48.5t104.5 -82.5l-54 19h32h32l-54 -19q61 48 103 81.5t74 59.5h39
q5 0 7.5 -1t3.5 -2.5t1 -3.5q0 -4 -4.5 -8.5t-20.5 -18.5q-13 -11 -34.5 -29t-45.5 -38.5t-44.5 -38.5t-32.5 -28z" />
    <glyph glyph-name="ecaron" unicode="&#x11b;" 
d="M303 536q52 0 99.5 -21t78 -70t30.5 -135v-65q0 -3 -1.5 -5.5t-3.5 -4t-6 -1.5h-288h-32h-32h-19l-22 47h354v12.5v12.5q0 50 -11.5 86t-34.5 58q-20 20 -48.5 29.5t-63.5 9.5q-78 0 -123 -44t-45 -144v-89q0 -40 11 -72.5t32 -53.5q24 -24 61.5 -36.5t89.5 -12.5
q39 0 66 4.5t50.5 14.5t50.5 26h12v-17v-17q0 -2 -0.5 -4t-2.5 -4q-13 -13 -38 -24.5t-61.5 -18.5t-82.5 -7q-51 0 -94.5 13t-75.5 40t-50 68.5t-18 98.5v94q0 66 18.5 110.5t50 71.5t70.5 38.5t79 11.5zM331 629h-18h-18q-8 0 -13.5 4t-19.5 18q-8 9 -28 29.5t-45.5 47.5
t-51.5 54t-47 49h22h22q11 0 16.5 -2t12.5 -9q16 -16 60 -61t104 -106l-41 21h43l-41 -21q61 61 102.5 103.5t73.5 74.5h37q4 0 6 -1t3 -3.5t1 -4.5q0 -4 -4 -8.5t-18 -19.5q-13 -14 -34.5 -36.5t-46 -47.5t-45.5 -47t-32 -34z" />
    <glyph glyph-name="Gcircumflex" unicode="&#x11c;" horiz-adv-x="650" 
d="M341 340h269q3 0 5.5 -1.5t4 -4t1.5 -5.5v-36h-269q-3 0 -5 1t-3.5 2.5t-2 3.5t-0.5 4v18v18zM352 720q42 0 77 -5t62 -14t47 -21t33 -26q2 -2 3 -5t1 -5v-47.5v-48.5v-48h-19.5h-19.5q-5 0 -8 3t-3 8v51.5v51v50.5l23 -51q-32 35 -81.5 47.5t-120.5 12.5
q-51 0 -91.5 -14.5t-68.5 -44t-43 -75t-15 -108.5v-192q0 -50 15 -89.5t44 -68.5q25 -25 63.5 -39.5t93.5 -14.5q59 0 99 15.5t60.5 33t20.5 22.5v75.5v69.5v75h54l-4 -11v-110v-110q0 -4 -1 -6.5t-4 -6.5q-20 -27 -54.5 -48.5t-78 -33.5t-90.5 -12q-64 0 -114 18t-85 51
t-53 80t-18 105v202q0 69 18 122t53.5 89t87 54.5t117.5 18.5zM322 944h12h12h12q8 0 14 -3.5t22 -17.5q8 -7 27.5 -24.5t44.5 -39t50.5 -43.5t46.5 -40q-12 1 -22.5 0.5t-22.5 -0.5q-11 0 -16 1.5t-13 8.5q-17 14 -60.5 48.5t-104.5 82.5l54 -19h-32h-32l54 19
q-61 -48 -103 -81.5t-74 -59.5h-39q-5 0 -7.5 1t-3.5 2.5t-1 3.5q0 4 4.5 8.5t20.5 18.5q13 11 34.5 29t45.5 38.5t44.5 38.5t32.5 28z" />
    <glyph glyph-name="gcircumflex" unicode="&#x11d;" 
d="M126 92q0 19 6 35.5t17 30t26 22.5v19l45 -16q-22 -16 -33 -37.5t-11 -47.5q0 -25 13.5 -36.5t35.5 -11.5h165q52 0 87 -17.5t52.5 -49t17.5 -72.5v-21q0 -29 -12 -54.5t-34.5 -44.5t-54 -30t-70.5 -11h-174q-52 0 -86.5 18t-52 47.5t-17.5 65.5v17q0 31 11.5 56.5
t34 43.5t54.5 25v25l57 -40q-40 -3 -63.5 -20t-33.5 -41t-10 -49v-17q0 -21 10.5 -40t34 -31t62.5 -12h186q29 0 49.5 10t33.5 23t18.5 27.5t5.5 31.5v19q0 38 -24 64.5t-83 26.5h-164q-28 0 -50.5 10.5t-35.5 31t-13 50.5zM345 490h75v-16q33 -17 46.5 -48t13.5 -64v-26
q0 -49 -25.5 -86t-71.5 -57.5t-108 -20.5t-108 20t-71.5 57t-25.5 86v26q0 52 25.5 90t71.5 59t108 21h136h135v-18v-18q0 -4 -3 -7.5t-8 -3.5h-86.5h-86.5h-87q-71 0 -113 -32t-42 -91v-26q0 -23 7.5 -42t22.5 -34q20 -19 51.5 -30t73.5 -11q71 0 113 31.5t42 86.5v26
q0 26 -8 48t-26.5 42t-50.5 38zM287 830h18h18q8 0 13.5 -4t19.5 -18q8 -9 28 -29.5t45.5 -47.5t51.5 -54t47 -49h-22h-22q-11 0 -16.5 2t-12.5 9q-16 16 -60 61t-104 106l41 -21h-43l41 21q-61 -61 -102.5 -103.5t-73.5 -74.5h-37q-4 0 -6 1t-3 3.5t-1 4.5q0 4 4 8.5
t18 19.5q13 14 34.5 36.5t46 47.5t45.5 47t32 34z" />
    <glyph glyph-name="Gbreve" unicode="&#x11e;" horiz-adv-x="650" 
d="M341 340h269q3 0 5.5 -1.5t4 -4t1.5 -5.5v-36h-269q-3 0 -5 1t-3.5 2.5t-2 3.5t-0.5 4v18v18zM352 720q42 0 77 -5t62 -14t47 -21t33 -26q2 -2 3 -5t1 -5v-47.5v-48.5v-48h-19.5h-19.5q-5 0 -8 3t-3 8v51.5v51v50.5l23 -51q-32 35 -81.5 47.5t-120.5 12.5
q-51 0 -91.5 -14.5t-68.5 -44t-43 -75t-15 -108.5v-192q0 -50 15 -89.5t44 -68.5q25 -25 63.5 -39.5t93.5 -14.5q59 0 99 15.5t60.5 33t20.5 22.5v75.5v69.5v75h54l-4 -11v-110v-110q0 -4 -1 -6.5t-4 -6.5q-20 -27 -54.5 -48.5t-78 -33.5t-90.5 -12q-64 0 -114 18t-85 51
t-53 80t-18 105v202q0 69 18 122t53.5 89t87 54.5t117.5 18.5zM477 935h15.5h15.5q10 0 12.5 -6t-1.5 -17q-11 -33 -35 -57t-56.5 -37t-72.5 -13h-14q-39 0 -72 13t-56.5 37t-35.5 57q-4 11 -1.5 17t12.5 6h15.5h15.5q20 -46 51 -65t78 -19t78 19t51 65z" />
    <glyph glyph-name="gbreve" unicode="&#x11f;" 
d="M126 92q0 19 6 35.5t17 30t26 22.5v19l45 -16q-22 -16 -33 -37.5t-11 -47.5q0 -25 13.5 -36.5t35.5 -11.5h165q52 0 87 -17.5t52.5 -49t17.5 -72.5v-21q0 -29 -12 -54.5t-34.5 -44.5t-54 -30t-70.5 -11h-174q-52 0 -86.5 18t-52 47.5t-17.5 65.5v17q0 31 11.5 56.5
t34 43.5t54.5 25v25l57 -40q-40 -3 -63.5 -20t-33.5 -41t-10 -49v-17q0 -21 10.5 -40t34 -31t62.5 -12h186q29 0 49.5 10t33.5 23t18.5 27.5t5.5 31.5v19q0 38 -24 64.5t-83 26.5h-164q-28 0 -50.5 10.5t-35.5 31t-13 50.5zM345 490h75v-16q33 -17 46.5 -48t13.5 -64v-26
q0 -49 -25.5 -86t-71.5 -57.5t-108 -20.5t-108 20t-71.5 57t-25.5 86v26q0 52 25.5 90t71.5 59t108 21h136h135v-18v-18q0 -4 -3 -7.5t-8 -3.5h-86.5h-86.5h-87q-71 0 -113 -32t-42 -91v-26q0 -23 7.5 -42t22.5 -34q20 -19 51.5 -30t73.5 -11q71 0 113 31.5t42 86.5v26
q0 26 -8 48t-26.5 42t-50.5 38zM310 692q53 0 86.5 29t42.5 90h15.5h15.5q10 0 13 -4t1 -18q-4 -39 -26 -71.5t-58 -52t-83 -19.5h-14q-47 0 -83 19.5t-57.5 52t-26.5 71.5q-1 14 1.5 18t12.5 4h15.5h15.5q9 -61 42.5 -90t86.5 -29z" />
    <glyph glyph-name="Gdotaccent" unicode="&#x120;" horiz-adv-x="650" 
d="M341 340h269q3 0 5.5 -1.5t4 -4t1.5 -5.5v-36h-269q-3 0 -5 1t-3.5 2.5t-2 3.5t-0.5 4v18v18zM352 720q42 0 77 -5t62 -14t47 -21t33 -26q2 -2 3 -5t1 -5v-47.5v-48.5v-48h-19.5h-19.5q-5 0 -8 3t-3 8v51.5v51v50.5l23 -51q-32 35 -81.5 47.5t-120.5 12.5
q-51 0 -91.5 -14.5t-68.5 -44t-43 -75t-15 -108.5v-192q0 -50 15 -89.5t44 -68.5q25 -25 63.5 -39.5t93.5 -14.5q59 0 99 15.5t60.5 33t20.5 22.5v75.5v69.5v75h54l-4 -11v-110v-110q0 -4 -1 -6.5t-4 -6.5q-20 -27 -54.5 -48.5t-78 -33.5t-90.5 -12q-64 0 -114 18t-85 51
t-53 80t-18 105v202q0 69 18 122t53.5 89t87 54.5t117.5 18.5zM308 888h17.5h17h17h17.5q5 0 8 -3t3 -8v-69h-17.5h-17h-17h-17.5q-5 0 -8 3t-3 8v69z" />
    <glyph glyph-name="gdotaccent" unicode="&#x121;" 
d="M126 92q0 19 6 35.5t17 30t26 22.5v19l45 -16q-22 -16 -33 -37.5t-11 -47.5q0 -25 13.5 -36.5t35.5 -11.5h165q52 0 87 -17.5t52.5 -49t17.5 -72.5v-21q0 -29 -12 -54.5t-34.5 -44.5t-54 -30t-70.5 -11h-174q-52 0 -86.5 18t-52 47.5t-17.5 65.5v17q0 31 11.5 56.5
t34 43.5t54.5 25v25l57 -40q-40 -3 -63.5 -20t-33.5 -41t-10 -49v-17q0 -21 10.5 -40t34 -31t62.5 -12h186q29 0 49.5 10t33.5 23t18.5 27.5t5.5 31.5v19q0 38 -24 64.5t-83 26.5h-164q-28 0 -50.5 10.5t-35.5 31t-13 50.5zM345 490h75v-16q33 -17 46.5 -48t13.5 -64v-26
q0 -49 -25.5 -86t-71.5 -57.5t-108 -20.5t-108 20t-71.5 57t-25.5 86v26q0 52 25.5 90t71.5 59t108 21h136h135v-18v-18q0 -4 -3 -7.5t-8 -3.5h-86.5h-86.5h-87q-71 0 -113 -32t-42 -91v-26q0 -23 7.5 -42t22.5 -34q20 -19 51.5 -30t73.5 -11q71 0 113 31.5t42 86.5v26
q0 26 -8 48t-26.5 42t-50.5 38zM270 756h17.5h17h17h17.5q5 0 8 -3t3 -8v-69h-17.5h-17h-17h-17.5q-5 0 -8 3t-3 8v69z" />
    <glyph glyph-name="uni0122" unicode="&#x122;" horiz-adv-x="650" 
d="M341 340h269q3 0 5.5 -1.5t4 -4t1.5 -5.5v-36h-269q-3 0 -5 1t-3.5 2.5t-2 3.5t-0.5 4v18v18zM352 720q42 0 77 -5t62 -14t47 -21t33 -26q2 -2 3 -5t1 -5v-47.5v-48.5v-48h-19.5h-19.5q-5 0 -8 3t-3 8v51.5v51v50.5l23 -51q-32 35 -81.5 47.5t-120.5 12.5
q-51 0 -91.5 -14.5t-68.5 -44t-43 -75t-15 -108.5v-192q0 -50 15 -89.5t44 -68.5q25 -25 63.5 -39.5t93.5 -14.5q59 0 99 15.5t60.5 33t20.5 22.5v75.5v69.5v75h54l-4 -11v-110v-110q0 -4 -1 -6.5t-4 -6.5q-20 -27 -54.5 -48.5t-78 -33.5t-90.5 -12q-64 0 -114 18t-85 51
t-53 80t-18 105v202q0 69 18 122t53.5 89t87 54.5t117.5 18.5zM334 -70h18h14h14q6 0 9 -4t1 -10q-11 -29 -18.5 -48.5t-14.5 -39t-19 -50.5q-1 -4 -4.5 -7t-10.5 -3h-16.5h-19.5q10 33 17.5 59.5t15 51.5t14.5 51z" />
    <glyph glyph-name="uni0123" unicode="&#x123;" 
d="M126 92q0 19 6 35.5t17 30t26 22.5v19l45 -16q-22 -16 -33 -37.5t-11 -47.5q0 -25 13.5 -36.5t35.5 -11.5h165q52 0 87 -17.5t52.5 -49t17.5 -72.5v-21q0 -29 -12 -54.5t-34.5 -44.5t-54 -30t-70.5 -11h-174q-52 0 -86.5 18t-52 47.5t-17.5 65.5v17q0 31 11.5 56.5
t34 43.5t54.5 25v25l57 -40q-40 -3 -63.5 -20t-33.5 -41t-10 -49v-17q0 -21 10.5 -40t34 -31t62.5 -12h186q29 0 49.5 10t33.5 23t18.5 27.5t5.5 31.5v19q0 38 -24 64.5t-83 26.5h-164q-28 0 -50.5 10.5t-35.5 31t-13 50.5zM345 490h75v-16q33 -17 46.5 -48t13.5 -64v-26
q0 -49 -25.5 -86t-71.5 -57.5t-108 -20.5t-108 20t-71.5 57t-25.5 86v26q0 52 25.5 90t71.5 59t108 21h136h135v-18v-18q0 -4 -3 -7.5t-8 -3.5h-86.5h-86.5h-87q-71 0 -113 -32t-42 -91v-26q0 -23 7.5 -42t22.5 -34q20 -19 51.5 -30t73.5 -11q71 0 113 31.5t42 86.5v26
q0 26 -8 48t-26.5 42t-50.5 38zM280 634q-10 0 -13 4.5t-1 10.5q7 31 11.5 48.5t9 36t12.5 52.5q1 4 4 7t11 3h15h12q-5 -35 -8 -60.5t-6.5 -49.5t-6.5 -52h-21h-19z" />
    <glyph glyph-name="Hcircumflex" unicode="&#x124;" horiz-adv-x="650" 
d="M90 700h19.5h19.5q5 0 8 -3t3 -8v-172v-172.5v-172.5v-172h-19.5h-19.5q-3 0 -5.5 1.5t-4 4t-1.5 5.5v196.5v197v196.5v49.5v49.5zM126 380h356h16h15l22 10v-57h-398q-3 0 -5 1t-3.5 2.5t-2 3.5t-0.5 4v36zM560 0h-19.5h-19.5q-3 0 -5.5 1.5t-4 4t-1.5 5.5v172v172.5
v172.5v172h19.5h19.5q2 0 4 -1t3.5 -2.5t2.5 -3.5t1 -4v-147v-147.5v-147v-147.5v-50v-50zM299 944h12h12h12q8 0 14 -3.5t22 -17.5q8 -7 27.5 -24.5t44.5 -39t50.5 -43.5t46.5 -40q-12 1 -22.5 0.5t-22.5 -0.5q-11 0 -16 1.5t-13 8.5q-17 14 -60.5 48.5t-104.5 82.5l54 -19
h-32h-32l54 19q-61 -48 -103 -81.5t-74 -59.5h-39q-5 0 -7.5 1t-3.5 2.5t-1 3.5q0 4 4.5 8.5t20.5 18.5q13 11 34.5 29t45.5 38.5t44.5 38.5t32.5 28z" />
    <glyph glyph-name="hcircumflex" unicode="&#x125;" 
d="M121 0q-3 0 -5.5 1.5t-4 3.5t-1.5 6v159.5v160v160.5v159v62v38h13.5h13h12.5q4 0 6 -1.5t3.5 -3.5t1.5 -6v-184.5v-185v-185v-184.5h-12.5h-13h-13.5zM147 363v72h25q20 23 40.5 41.5t43 32t47.5 20.5t53 7q35 0 61 -11t43 -31t26 -45.5t9 -55.5v-96v-95.5v-95.5v-53.5
v-52.5h-19.5h-19.5q-3 0 -5.5 1.5t-4 3.5t-1.5 6v124v124v124q0 54 -27 80t-72 26q-24 0 -47.5 -7.5t-47.5 -23t-49.5 -39t-54.5 -56.5zM119 1023h18h18q8 0 13.5 -4t19.5 -18q8 -9 28 -29.5t45.5 -47.5t51.5 -54t47 -49h-22h-22q-11 0 -16.5 2t-12.5 9q-16 16 -60 61
t-104 106l41 -21h-43l41 21q-61 -61 -102.5 -103.5t-73.5 -74.5h-37q-4 0 -6 1t-3 3.5t-1 4.5q0 4 4 8.5t18 19.5q13 14 34.5 36.5t46 47.5t45.5 47t32 34z" />
    <glyph glyph-name="Hbar" unicode="&#x126;" horiz-adv-x="650" 
d="M20 570h599q5 0 8 -3t3 -8v-18v-18h-599q-5 0 -8 3t-3 8v18v18zM90 700h19.5h19.5q5 0 8 -3t3 -8v-172v-172.5v-172.5v-172h-19.5h-19.5q-3 0 -5.5 1.5t-4 4t-1.5 5.5v196.5v197v196.5v49.5v49.5zM126 380h356h16h15l22 10v-57h-398q-3 0 -5 1t-3.5 2.5t-2 3.5t-0.5 4v36
zM560 0h-19.5h-19.5q-3 0 -5.5 1.5t-4 4t-1.5 5.5v172v172.5v172.5v172h19.5h19.5q2 0 4 -1t3.5 -2.5t2.5 -3.5t1 -4v-147v-147.5v-147v-147.5v-50v-50z" />
    <glyph glyph-name="hbar" unicode="&#x127;" 
d="M36 655h357q5 0 8 -3t3 -8v-16v-16h-357q-5 0 -8 3t-3 8v16v16zM121 0q-3 0 -5.5 1.5t-4 3.5t-1.5 6v159.5v160v160.5v159v62v38h13.5h13h12.5q4 0 6 -1.5t3.5 -3.5t1.5 -6v-184.5v-185v-185v-184.5h-12.5h-13h-13.5zM147 363v72h25q20 23 40.5 41.5t43 32t47.5 20.5
t53 7q35 0 61 -11t43 -31t26 -45.5t9 -55.5v-96v-95.5v-95.5v-53.5v-52.5h-19.5h-19.5q-3 0 -5.5 1.5t-4 3.5t-1.5 6v124v124v124q0 54 -27 80t-72 26q-24 0 -47.5 -7.5t-47.5 -23t-49.5 -39t-54.5 -56.5z" />
    <glyph glyph-name="Itilde" unicode="&#x128;" horiz-adv-x="500" 
d="M275 20h-53l3 11v41v42v141.5v141v141.5v142h56l-6 -11v-33v-34v-145.5v-145.5v-145.5v-145.5zM420 0h-329q-3 0 -5 1t-3.5 2.5t-2 3.5t-0.5 4v12.5v11.5v12h329q3 0 5.5 -1.5t4 -4t1.5 -5.5v-12v-11.5v-12.5zM80 700h329q5 0 8 -3t3 -8v-9.5v-8.5v-8.5v-9.5h-329
q-5 0 -8 3.5t-3 7.5v9.5v8.5v8.5v9.5zM335 848q26 0 43 11.5t38 34.5h11v-19v-21q0 -3 -1 -6.5t-6 -8.5q-16 -16 -35 -26.5t-49 -10.5q-25 0 -47 10t-42.5 22.5t-40.5 22.5t-41 10q-26 0 -43 -11.5t-38 -34.5h-11v19.5v20.5q0 2 1 6t6 9q16 16 35 26.5t49 10.5
q25 0 47.5 -10t43 -22.5t40 -22.5t40.5 -10z" />
    <glyph glyph-name="itilde" unicode="&#x129;" horiz-adv-x="350" 
d="M170 11v93.5v93.5v94v93.5v93.5h-20h-22h-22.5h-22.5h-22q-4 0 -7.5 3.5t-3.5 7.5v18v18h32h32h31.5h31.5h32q3 0 5.5 -1.5t4 -4t1.5 -5.5v-107.5v-106.5v-106.5v-107.5v-28.5v-29v-29.5h-19.5h-19.5q-4 0 -7.5 3.5t-3.5 7.5zM272 703q26 0 49.5 15t41.5 41h11v-14v-15
v-12q0 -6 -1.5 -10t-7.5 -12q-16 -19 -39 -30t-53 -11q-27 0 -46 9t-35.5 21.5t-32.5 21.5t-37 9q-26 0 -49.5 -15t-41.5 -41h-11v14v15.5v11.5q0 6 1.5 10.5t7.5 11.5q17 20 39.5 30.5t52.5 10.5q27 0 46 -9t35.5 -21.5t32.5 -21.5t37 -9z" />
    <glyph glyph-name="Imacron" unicode="&#x12a;" horiz-adv-x="500" 
d="M275 20h-53l3 11v41v42v141.5v141v141.5v142h56l-6 -11v-33v-34v-145.5v-145.5v-145.5v-145.5zM420 0h-329q-3 0 -5 1t-3.5 2.5t-2 3.5t-0.5 4v12.5v11.5v12h329q3 0 5.5 -1.5t4 -4t1.5 -5.5v-12v-11.5v-12.5zM80 700h329q5 0 8 -3t3 -8v-9.5v-8.5v-8.5v-9.5h-329
q-5 0 -8 3.5t-3 7.5v9.5v8.5v8.5v9.5zM76 862h337q5 0 8 -3t3 -8v-19.5v-19.5h-337q-3 0 -5.5 1.5t-4 4t-1.5 5.5v19.5v19.5z" />
    <glyph glyph-name="imacron" unicode="&#x12b;" horiz-adv-x="350" 
d="M170 11v93.5v93.5v94v93.5v93.5h-20h-22h-22.5h-22.5h-22q-4 0 -7.5 3.5t-3.5 7.5v18v18h32h32h31.5h31.5h32q3 0 5.5 -1.5t4 -4t1.5 -5.5v-107.5v-106.5v-106.5v-107.5v-28.5v-29v-29.5h-19.5h-19.5q-4 0 -7.5 3.5t-3.5 7.5zM23 739h337q5 0 8 -3t3 -8v-12.5v-13v-13.5
h-337q-3 0 -5.5 1.5t-4 4t-1.5 5.5v13.5v13v12.5z" />
    <glyph glyph-name="Ibreve" unicode="&#x12c;" horiz-adv-x="500" 
d="M275 20h-53l3 11v41v42v141.5v141v141.5v142h56l-6 -11v-33v-34v-145.5v-145.5v-145.5v-145.5zM420 0h-329q-3 0 -5 1t-3.5 2.5t-2 3.5t-0.5 4v12.5v11.5v12h329q3 0 5.5 -1.5t4 -4t1.5 -5.5v-12v-11.5v-12.5zM80 700h329q5 0 8 -3t3 -8v-9.5v-8.5v-8.5v-9.5h-329
q-5 0 -8 3.5t-3 7.5v9.5v8.5v8.5v9.5zM379 935h15.5h15.5q10 0 12.5 -6t-1.5 -17q-11 -33 -35 -57t-56.5 -37t-72.5 -13h-14q-39 0 -72 13t-56.5 37t-35.5 57q-4 11 -1.5 17t12.5 6h15.5h15.5q20 -46 51 -65t78 -19t78 19t51 65z" />
    <glyph glyph-name="ibreve" unicode="&#x12d;" horiz-adv-x="350" 
d="M170 11v93.5v93.5v94v93.5v93.5h-20h-22h-22.5h-22.5h-22q-4 0 -7.5 3.5t-3.5 7.5v18v18h32h32h31.5h31.5h32q3 0 5.5 -1.5t4 -4t1.5 -5.5v-107.5v-106.5v-106.5v-107.5v-28.5v-29v-29.5h-19.5h-19.5q-4 0 -7.5 3.5t-3.5 7.5zM197 691q53 0 86.5 29t42.5 90h15.5h15.5
q10 0 13 -4t1 -18q-4 -39 -26 -71.5t-58 -52t-83 -19.5h-14q-47 0 -83 19.5t-57.5 52t-26.5 71.5q-1 14 1.5 18t12.5 4h15.5h15.5q9 -61 42.5 -90t86.5 -29z" />
    <glyph glyph-name="Iogonek" unicode="&#x12e;" horiz-adv-x="500" 
d="M275 20h-53l3 11v41v42v141.5v141v141.5v142h56l-6 -11v-33v-34v-145.5v-145.5v-145.5v-145.5zM420 0h-329q-3 0 -5 1t-3.5 2.5t-2 3.5t-0.5 4v12.5v11.5v12h329q3 0 5.5 -1.5t4 -4t1.5 -5.5v-12v-11.5v-12.5zM80 700h329q5 0 8 -3t3 -8v-9.5v-8.5v-8.5v-9.5h-329
q-5 0 -8 3.5t-3 7.5v9.5v8.5v8.5v9.5zM367 19q9 2 21.5 -2.5t31.5 -16.5q0 -4 -2 -6.5t-9 -4.5q-84 -22 -113 -55t-29 -70q0 -34 19.5 -50.5t47.5 -16.5q23 0 39 5.5t32 17.5h12v-11.5v-12.5v-13q0 -10 -22 -21.5t-59 -11.5q-56 0 -88 28.5t-32 77.5q0 46 22.5 79.5t57 54.5
t71.5 29z" />
    <glyph glyph-name="iogonek" unicode="&#x12f;" horiz-adv-x="350" 
d="M170 11v93.5v93.5v94v93.5v93.5h-20h-22h-22.5h-22.5h-22q-4 0 -7.5 3.5t-3.5 7.5v18v18h32h32h31.5h31.5h32q3 0 5.5 -1.5t4 -4t1.5 -5.5v-107.5v-106.5v-106.5v-107.5v-28.5v-29v-29.5h-19.5h-19.5q-4 0 -7.5 3.5t-3.5 7.5zM199 12q7 1 14 -7t7 -13q0 -7 -3 -10.5
t-13 -6.5q-64 -19 -88.5 -55t-24.5 -77q0 -29 13.5 -42.5t38.5 -13.5q20 0 33.5 4.5t28.5 15.5h12v-11v-15v-10q0 -13 -21.5 -22.5t-51.5 -9.5q-49 0 -76.5 27.5t-27.5 71.5q0 45 19.5 81t55 60.5t84.5 32.5zM157 755h17.5h17h17h17.5q5 0 8 -3t3 -8v-69h-17.5h-17h-17
h-17.5q-5 0 -8 3t-3 8v69z" />
    <glyph glyph-name="Idotaccent" unicode="&#x130;" horiz-adv-x="500" 
d="M275 20h-53l3 11v41v42v141.5v141v141.5v142h56l-6 -11v-33v-34v-145.5v-145.5v-145.5v-145.5zM420 0h-329q-3 0 -5 1t-3.5 2.5t-2 3.5t-0.5 4v12.5v11.5v12h329q3 0 5.5 -1.5t4 -4t1.5 -5.5v-12v-11.5v-12.5zM80 700h329q5 0 8 -3t3 -8v-9.5v-8.5v-8.5v-9.5h-329
q-5 0 -8 3.5t-3 7.5v9.5v8.5v8.5v9.5zM210 888h17.5h17h17h17.5q5 0 8 -3t3 -8v-69h-17.5h-17h-17h-17.5q-5 0 -8 3t-3 8v69z" />
    <glyph glyph-name="dotlessi" unicode="&#x131;" horiz-adv-x="350" 
d="M170 11v93.5v93.5v94v93.5v93.5h-20h-22h-22.5h-22.5h-22q-4 0 -7.5 3.5t-3.5 7.5v18v18h32h32h31.5h31.5h32q3 0 5.5 -1.5t4 -4t1.5 -5.5v-107.5v-106.5v-106.5v-107.5v-28.5v-29v-29.5h-19.5h-19.5q-4 0 -7.5 3.5t-3.5 7.5z" />
    <glyph glyph-name="IJ" unicode="&#x132;" 
d="M102 700h19.5h19.5q5 0 8 -3t3 -8v-130v-129.5v-129.5v-130h-19.5h-19.5q-5 0 -8 3t-3 8v140v140v140v49.5v49.5zM290 27q46 0 81.5 10.5t58.5 33.5q17 17 27.5 38.5t15.5 49t5 59.5v117v115.5v115.5v117l10 -35l-19 16l39 -11h-60.5h-55.5h-55.5h-60.5q-5 0 -8 3t-3 8
v18v18h86.5h81h86.5q4 0 6 -1.5t3.5 -3.5t1.5 -6v-119v-118v-118v-119q0 -58 -15.5 -102t-45.5 -73.5t-75 -44.5t-104 -15q-37 0 -72.5 6.5t-62.5 17.5t-41 24q-2 2 -3 4t-1 6v18v18h12q38 -25 76.5 -36t91.5 -11z" />
    <glyph glyph-name="ij" unicode="&#x133;" 
d="M174 676h-17.5h-17h-17h-17.5q-3 0 -5.5 1.5t-4 4t-1.5 5.5v69h17.5h17h17h17.5q5 0 8 -3t3 -8v-69zM502 676h-17.5h-17h-17h-17.5q-3 0 -5.5 1.5t-4 4t-1.5 5.5v69h17.5h17h17h17.5q5 0 8 -3t3 -8v-69zM149 526q2 0 4.5 -0.5t3.5 -2.5q2 -1 2.5 -3.5t0.5 -4.5v-95.5v-95
v-95v-95.5q0 -27 5 -44.5t17 -27.5q10 -8 25 -11.5t37 -3.5h14h14h8v-18v-18q0 -6 -3 -8.5t-8 -2.5h-12.5h-12.5q-36 0 -61.5 8t-41.5 24.5t-23.5 42.5t-7.5 62v107v106v106v35v35h13.5h13h12.5zM479 526q4 0 6 -1.5t3.5 -3.5t1.5 -6v-122.5v-115v-115v-122.5
q0 -82 -25.5 -137.5t-77 -84t-130.5 -28.5q-28 0 -55 3.5t-47 9.5t-27 13q-1 2 -2 3.5t-1 4.5v19v19h12q17 -8 36 -14t41.5 -8.5t49.5 -2.5q43 0 75 11.5t54 35.5q23 25 35 64t12 92v143.5v133v142.5v34v33h19.5h19.5z" />
    <glyph glyph-name="Jcircumflex" unicode="&#x134;" horiz-adv-x="500" 
d="M209 27q35 0 64.5 11t51.5 33q17 17 29 40t19 55.5t7 75.5v103v108.5v113v116.5l10 -35l-19 16l39 -11h-78.5h-76h-76h-78.5q-3 0 -5.5 1.5t-4 4t-1.5 5.5v18v18h83h81.5h81.5h83q4 0 6.5 -1.5t3.5 -3.5t1 -6v-118.5v-115.5v-111v-105q0 -62 -15 -110.5t-44 -81.5
t-70.5 -50t-94.5 -17q-30 0 -58.5 6.5t-50 16.5t-33.5 22q-1 2 -2 3t-1.5 3t-0.5 4v18.5v18.5h12q20 -14 42 -24t46 -15.5t49 -5.5zM229 944h12h12h12q8 0 14 -3.5t22 -17.5q8 -7 27.5 -24.5t44.5 -39t50.5 -43.5t46.5 -40q-12 1 -22.5 0.5t-22.5 -0.5q-11 0 -16 1.5
t-13 8.5q-17 14 -60.5 48.5t-104.5 82.5l54 -19h-32h-32l54 19q-61 -48 -103 -81.5t-74 -59.5h-39q-5 0 -7.5 1t-3.5 2.5t-1 3.5q0 4 4.5 8.5t20.5 18.5q13 11 34.5 29t45.5 38.5t44.5 38.5t32.5 28z" />
    <glyph glyph-name="jcircumflex" unicode="&#x135;" horiz-adv-x="350" 
d="M234 526q4 0 6.5 -1.5t3.5 -4t1 -5.5v-117.5v-110.5v-108.5v-110.5v-118q0 -34 -8.5 -61.5t-25.5 -47.5t-43.5 -30.5t-62.5 -10.5q-23 0 -42 4t-32 9.5t-18 10.5q-1 2 -2 3.5t-1 4.5v18v18h12q15 -7 27.5 -12t26.5 -7t32 -2q21 0 37 6t27 18q8 9 13 20.5t7.5 26t2.5 32.5
v137v127.5v127.5v137h-11h-30.5h-31h-31h-30.5q-4 0 -7.5 3.5t-3.5 7.5v18v18h46h46h46h46zM197 830h18h18q8 0 13.5 -4t19.5 -18q8 -9 28 -29.5t45.5 -47.5t51.5 -54t47 -49h-22h-22q-11 0 -16.5 2t-12.5 9q-16 16 -60 61t-104 106l41 -21h-43l41 21q-61 -61 -102.5 -103.5
t-73.5 -74.5h-37q-4 0 -6 1t-3 3.5t-1 4.5q0 4 4 8.5t18 19.5q13 14 34.5 36.5t46 47.5t45.5 47t32 34z" />
    <glyph glyph-name="uni0136" unicode="&#x136;" 
d="M265 383q51 -75 102.5 -149.5t102.5 -149.5q14 -20 27 -27t33 -7h11.5h8.5h10v-10.5v-11v-10v-7.5q0 -5 -3 -8t-8 -3h-7.5h-7.5h-8q-24 0 -40.5 6t-30.5 19t-29 34q-27 40 -50.5 75t-43.5 66.5t-37 62.5t-32 62h-28zM522 700q3 0 4.5 -1t2.5 -2t1 -3q0 -3 -2.5 -8
t-12 -18t-31.5 -41t-48 -62t-55 -71t-60 -77.5t-64 -82.5t-66.5 -85t-66.5 -86v87h28q13 26 30.5 53.5t38 56.5t43 58.5t44.5 59.5q29 37 57 74t56.5 74t56.5 74h44zM90 700h19.5h19.5q5 0 8 -3t3 -8v-172v-172.5v-172.5v-172h-19.5h-19.5q-5 0 -8 3t-3 8v196.5v197v196.5
v49.5v49.5zM311 -70h18h14h14q6 0 9 -4t1 -10q-11 -29 -18.5 -48.5t-14.5 -39t-19 -50.5q-1 -4 -4.5 -7t-10.5 -3h-16.5h-19.5q10 33 17.5 59.5t15 51.5t14.5 51z" />
    <glyph glyph-name="uni0137" unicode="&#x137;" 
d="M160 0h-12.5h-13h-13.5q-3 0 -5.5 1.5t-4 3.5t-1.5 6v160v159.5v159.5v160v62v38h13.5h13h12.5q4 0 6 -1.5t3.5 -3.5t1.5 -6v-184.5v-185v-185v-184.5zM491 0q-7 0 -12 2.5t-9 6.5q-4 5 -18.5 21.5t-34 39.5t-41 48t-39.5 46q-22 26 -35.5 43t-21.5 32t-16 33h-29l30 50
q47 -53 93 -106t92.5 -106.5t95.5 -109.5h-21h-16.5h-17.5zM146 238h25q12 18 23 32.5t22.5 27t24 25t28.5 26.5q21 19 51.5 46.5t67.5 61t76 69.5l50 3q4 0 6 -1.5t3.5 -3.5t1.5 -6q0 -1 -1.5 -4t-7.5 -8q-33 -30 -65 -58.5t-63.5 -56t-62 -54.5t-60.5 -53.5t-59.5 -53
t-59.5 -52.5v60zM276 -70h24.5h27.5q6 0 9 -4t1 -10q-11 -29 -21 -56t-20 -54.5t-22 -58.5q-1 -4 -4.5 -7t-10.5 -3h-16.5h-18.5l18 66t17.5 65t15.5 62z" />
    <glyph glyph-name="kgreenlandic" unicode="&#x138;" 
d="M160 0h-12.5h-13h-13.5q-3 0 -5.5 1.5t-4 3.5t-1.5 6v415v62v38h13.5h13h12.5q2 0 4.5 -0.5t3.5 -2.5q1 -1 1.5 -2.5t1 -2.5t0.5 -3v-515zM464 526l50 3q4 0 6 -1.5t3.5 -3.5t1.5 -6q0 -1 -0.5 -2.5t-2.5 -3.5l-6 -6q-33 -30 -65 -58.5t-63.5 -56t-62 -54.5t-60.5 -53.5
t-59.5 -53t-59.5 -52.5l-30 34q58 53 116 105t116 104.5t116 104.5zM491 0q-7 0 -12 2.5t-9 6.5q-4 5 -21 24.5t-41 47.5t-51 59t-51 59t-41 48t-22 26l22 49q47 -53 93 -106t92.5 -106.5t95.5 -109.5h-21h-16.5h-17.5z" />
    <glyph glyph-name="Lacute" unicode="&#x139;" horiz-adv-x="550" 
d="M101 0q-3 0 -5 0.5t-3.5 2t-2 3.5t-0.5 5v173.5v170v145.5v100v50v50h19.5h19.5q4 0 6 -1.5t3.5 -4t1.5 -5.5v-160.5v-160.5v-160.5v-160.5h319q7 0 12.5 -4.5t9.5 -12t6.5 -15.5t2.5 -15h-389zM440 165h13.5h13h12.5q3 0 5.5 -1.5t4 -4t1.5 -5.5v-37.5v-39.5v-39.5
v-37.5q-20 0 -31 3t-15 10t-4 18v44v46v44zM208 943h18.5h12h15.5q6 0 9 -5t-2 -10q-18 -22 -31 -38.5t-24.5 -31t-25.5 -32t-35 -43.5q-2 -3 -6.5 -5.5t-10.5 -2.5h-12.5h-11h-11.5q21 30 39 56.5t36.5 53.5t39.5 58z" />
    <glyph glyph-name="lacute" unicode="&#x13a;" horiz-adv-x="350" 
d="M60 750h21.5h26.5h26.5h21.5h13t6 -1.5t3.5 -3.5t1.5 -6v-100v-135v-146v-135v-100q0 -25 2.5 -38.5t12.5 -23.5t26.5 -12t34.5 -2h11.5h8.5h12v-18v-18q0 -4 -1.5 -6t-3.5 -3.5t-6 -1.5h-8.5h-12.5h-17q-28 0 -48.5 6.5t-34 19.5t-20 33.5t-6.5 48.5v102.5v132v140
v127.5v93h-11h-14h-19.5h-14.5t-8 3t-3 8v18v18zM245 963h18.5h12h15.5q6 0 9 -5t-2 -10q-18 -22 -31 -38.5t-24.5 -31t-25.5 -32t-35 -43.5q-2 -3 -6.5 -5.5t-10.5 -2.5h-12.5h-11h-11.5q21 30 39 56.5t36.5 53.5t39.5 58z" />
    <glyph glyph-name="uni013B" unicode="&#x13b;" horiz-adv-x="550" 
d="M101 0q-3 0 -5 0.5t-3.5 2t-2 3.5t-0.5 5v173.5v170v145.5v100v50v50h19.5h19.5q4 0 6 -1.5t3.5 -4t1.5 -5.5v-160.5v-160.5v-160.5v-160.5h319q7 0 12.5 -4.5t9.5 -12t6.5 -15.5t2.5 -15h-389zM440 165h13.5h13h12.5q3 0 5.5 -1.5t4 -4t1.5 -5.5v-37.5v-39.5v-39.5
v-37.5q-20 0 -31 3t-15 10t-4 18v44v46v44zM276 -70h18h14h14q6 0 9 -4t1 -10q-11 -29 -18.5 -48.5t-14.5 -39t-19 -50.5q-1 -4 -4.5 -7t-10.5 -3h-16.5h-19.5q10 33 17.5 59.5t15 51.5t14.5 51z" />
    <glyph glyph-name="uni013C" unicode="&#x13c;" horiz-adv-x="350" 
d="M60 750h21.5h26.5h26.5h21.5h13t6 -1.5t3.5 -3.5t1.5 -6v-100v-135v-146v-135v-100q0 -25 2.5 -38.5t12.5 -23.5t26.5 -12t34.5 -2h11.5h8.5h12v-18v-18q0 -4 -1.5 -6t-3.5 -3.5t-6 -1.5h-8.5h-12.5h-17q-28 0 -48.5 6.5t-34 19.5t-20 33.5t-6.5 48.5v102.5v132v140
v127.5v93h-11h-14h-19.5h-14.5t-8 3t-3 8v18v18zM163 -70h24.5h27.5q6 0 9 -4t1 -10q-11 -29 -21 -56t-20 -54.5t-22 -58.5q-1 -4 -4.5 -7t-10.5 -3h-16.5h-18.5l18 66t17.5 65t15.5 62z" />
    <glyph glyph-name="Lcaron" unicode="&#x13d;" horiz-adv-x="550" 
d="M101 0q-3 0 -5 0.5t-3.5 2t-2 3.5t-0.5 5v173.5v170v145.5v100v50v50h19.5h19.5q4 0 6 -1.5t3.5 -4t1.5 -5.5v-160.5v-160.5v-160.5v-160.5h319q7 0 12.5 -4.5t9.5 -12t6.5 -15.5t2.5 -15h-389zM440 165h13.5h13h12.5q3 0 5.5 -1.5t4 -4t1.5 -5.5v-37.5v-39.5v-39.5
v-37.5q-20 0 -31 3t-15 10t-4 18v44v46v44zM410 701q10 0 13 -4.5t1 -10.5q-7 -31 -11.5 -48.5t-9 -36t-12.5 -52.5q-1 -4 -4 -7t-11 -3h-15h-12q5 35 8 60.5t6.5 49.5t6.5 52h21h19z" />
    <glyph glyph-name="lcaron" unicode="&#x13e;" horiz-adv-x="450" 
d="M60 750h21.5h26.5h26.5h21.5h13t6 -1.5t3.5 -3.5t1.5 -6v-100v-135v-146v-135v-100q0 -25 2.5 -38.5t12.5 -23.5t26.5 -12t34.5 -2h11.5h8.5h12v-18v-18q0 -4 -1.5 -6t-3.5 -3.5t-6 -1.5h-8.5h-12.5h-17q-28 0 -48.5 6.5t-34 19.5t-20 33.5t-6.5 48.5v102.5v132v140
v127.5v93h-11h-14h-19.5h-14.5t-8 3t-3 8v18v18zM353 588h-16.5h-13.5q4 37 6.5 60.5t5 46.5t5.5 55h17h15h15q10 0 13 -4.5t1 -10.5q-7 -31 -11.5 -48.5t-9 -36t-12.5 -52.5q-1 -4 -4 -7t-11 -3z" />
    <glyph glyph-name="Ldot" unicode="&#x13f;" horiz-adv-x="550" 
d="M330 462h25h24.5h24.5q5 0 8 -3t3 -8v-74h-24.5h-24.5h-25q-5 0 -8 3t-3 8v74zM101 0q-3 0 -5 0.5t-3.5 2t-2 3.5t-0.5 5v173.5v170v145.5v100v50v50h19.5h19.5q4 0 6 -1.5t3.5 -4t1.5 -5.5v-160.5v-160.5v-160.5v-160.5h319q7 0 12.5 -4.5t9.5 -12t6.5 -15.5t2.5 -15
h-389zM440 165h13.5h13h12.5q3 0 5.5 -1.5t4 -4t1.5 -5.5v-37.5v-39.5v-39.5v-37.5q-20 0 -31 3t-15 10t-4 18v44v46v44z" />
    <glyph glyph-name="ldot" unicode="&#x140;" horiz-adv-x="450" 
d="M60 750h21.5h26.5h26.5h21.5h13t6 -1.5t3.5 -3.5t1.5 -6v-100v-135v-146v-135v-100q0 -25 2.5 -38.5t12.5 -23.5t26.5 -12t34.5 -2h11.5h8.5h12v-18v-18q0 -4 -1.5 -6t-3.5 -3.5t-6 -1.5h-8.5h-12.5h-17q-28 0 -48.5 6.5t-34 19.5t-20 33.5t-6.5 48.5v102.5v132v140
v127.5v93h-11h-14h-19.5h-14.5t-8 3t-3 8v18v18zM405 360h-34.5h-34.5q-3 0 -5.5 1.5t-4 4t-1.5 5.5v69h34.5h34.5q4 0 6 -1.5t3.5 -3.5t1.5 -6v-69z" />
    <glyph glyph-name="Lslash" unicode="&#x141;" horiz-adv-x="550" 
d="M101 0q-3 0 -5 0.5t-3.5 2t-2 3.5t-0.5 5v173.5v170v145.5v100v50v50h19.5h19.5q4 0 6 -1.5t3.5 -4t1.5 -5.5v-160.5v-160.5v-160.5v-160.5h319q7 0 12.5 -4.5t9.5 -12t6.5 -15.5t2.5 -15h-389zM440 165h13.5h13h12.5q3 0 5.5 -1.5t4 -4t1.5 -5.5v-37.5v-39.5v-39.5
v-37.5q-20 0 -31 3t-15 10t-4 18v44v46v44zM301 475v-10v-27q0 -5 -1 -8t-2.5 -5.5t-5.5 -4.5l-166 -88q-4 -2 -9.5 -3t-10 -1.5t-8.5 -2.5l-119 -63v7v6.5v22.5q0 8 1 12t7 7l111 58q4 2 8.5 2.5t9.5 1.5t10 3z" />
    <glyph glyph-name="lslash" unicode="&#x142;" horiz-adv-x="350" 
d="M60 750h21.5h26.5h26.5h21.5h13t6 -1.5t3.5 -3.5t1.5 -6v-100v-135v-146v-135v-100q0 -25 2.5 -38.5t12.5 -23.5t26.5 -12t34.5 -2h11.5h8.5h12v-18v-18q0 -4 -1.5 -6t-3.5 -3.5t-6 -1.5h-8.5h-12.5h-17q-28 0 -48.5 6.5t-34 19.5t-20 33.5t-6.5 48.5v102.5v132v140
v127.5v93h-11h-14h-19.5h-14.5t-8 3t-3 8v18v18zM302 468v-10v-27q0 -5 -1 -8t-2.5 -5.5t-5.5 -4.5l-127 -64q-4 -2 -9.5 -3t-10 -1.5t-8.5 -2.5l-119 -63v7v6.5v22.5q0 8 1 12t7 7l111 58q4 2 8.5 2.5t9.5 1.5t10 3z" />
    <glyph glyph-name="Nacute" unicode="&#x143;" horiz-adv-x="650" 
d="M130 0h-19.5h-19.5q-3 0 -5.5 1.5t-4 4t-1.5 5.5v137.5v137v137v137.5v70v70h26h29.5h25.5q4 0 7 -1t5 -3t4 -6q11 -21 32 -63t50 -98t62.5 -121.5t69 -133.5t69.5 -134t63 -123l-39 35h56l-15 -25q-2 50 -3 101t-1.5 103t-0.5 104v103v100v81.5v80.5h19.5h19.5q5 0 8 -3
t3 -8v-130v-130.5v-130.5v-130v-84v-84h-25.5h-31h-25.5q-6 0 -9.5 2.5t-7.5 9.5q-33 64 -74 143.5t-87 167.5t-93 179t-92 177l34 -39h-47l13 40q2 -57 2.5 -111.5t1 -107.5t1 -104t0.5 -100v-97q-1 -32 -0.5 -76t0.5 -84zM441 943h18.5h12h15.5q6 0 9 -5t-2 -10
q-18 -22 -31 -38.5t-24.5 -31t-25.5 -32t-35 -43.5q-2 -3 -6.5 -5.5t-10.5 -2.5h-12.5h-11h-11.5q21 30 39 56.5t36.5 53.5t39.5 58z" />
    <glyph glyph-name="nacute" unicode="&#x144;" 
d="M495 0h-19.5h-19.5q-3 0 -5.5 1.5t-4 3.5t-1.5 6v124v124v124q0 54 -27 80t-72 26q-24 0 -47.5 -7.5t-47.5 -23t-49.5 -39t-54.5 -56.5v72h25q26 31 54 53.5t60.5 35t69.5 12.5q35 0 61 -11t43 -31t26 -45.5t9 -55.5v-96v-95.5v-95.5v-53.5v-52.5zM160 0h-12.5h-13h-13.5
q-3 0 -5 0.5t-3.5 2t-2 3.5t-0.5 5v104v103.5v103.5v104v62v38h13.5h13h12.5q4 0 6 -1.5t3.5 -3.5t1.5 -6v-171v-172v-172zM400 835h26.5h23.5q8 0 9.5 -6t-3.5 -12q-23 -30 -41.5 -54t-38 -48.5t-46.5 -59.5q-2 -3 -6.5 -5.5t-10.5 -2.5h-18.5h-17.5q20 30 40.5 61.5
t41.5 63.5t41 63z" />
    <glyph glyph-name="uni0145" unicode="&#x145;" horiz-adv-x="650" 
d="M130 0h-19.5h-19.5q-3 0 -5.5 1.5t-4 4t-1.5 5.5v137.5v137v137v137.5v70v70h26h29.5h25.5q4 0 7 -1t5 -3t4 -6q11 -21 32 -63t50 -98t62.5 -121.5t69 -133.5t69.5 -134t63 -123l-39 35h56l-15 -25q-2 50 -3 101t-1.5 103t-0.5 104v103v100v81.5v80.5h19.5h19.5q5 0 8 -3
t3 -8v-130v-130.5v-130.5v-130v-84v-84h-25.5h-31h-25.5q-6 0 -9.5 2.5t-7.5 9.5q-33 64 -74 143.5t-87 167.5t-93 179t-92 177l34 -39h-47l13 40q2 -57 2.5 -111.5t1 -107.5t1 -104t0.5 -100v-97q-1 -32 -0.5 -76t0.5 -84zM336 -70h18h14h14q6 0 9 -4t1 -10
q-11 -29 -18.5 -48.5t-14.5 -39t-19 -50.5q-1 -4 -4.5 -7t-10.5 -3h-16.5h-19.5q10 33 17.5 59.5t15 51.5t14.5 51z" />
    <glyph glyph-name="uni0146" unicode="&#x146;" 
d="M495 0h-19.5h-19.5q-3 0 -5.5 1.5t-4 3.5t-1.5 6v124v124v124q0 54 -27 80t-72 26q-24 0 -47.5 -7.5t-47.5 -23t-49.5 -39t-54.5 -56.5v72h25q26 31 54 53.5t60.5 35t69.5 12.5q35 0 61 -11t43 -31t26 -45.5t9 -55.5v-96v-95.5v-95.5v-53.5v-52.5zM160 0h-12.5h-13h-13.5
q-3 0 -5 0.5t-3.5 2t-2 3.5t-0.5 5v104v103.5v103.5v104v62v38h13.5h13h12.5q4 0 6 -1.5t3.5 -3.5t1.5 -6v-171v-172v-172zM280 -70h24.5h27.5q6 0 9 -4t1 -10q-11 -29 -21 -56t-20 -54.5t-22 -58.5q-1 -4 -4.5 -7t-10.5 -3h-16.5h-18.5l18 66t17.5 65t15.5 62z" />
    <glyph glyph-name="Ncaron" unicode="&#x147;" horiz-adv-x="650" 
d="M130 0h-19.5h-19.5q-3 0 -5.5 1.5t-4 4t-1.5 5.5v137.5v137v137v137.5v70v70h26h29.5h25.5q4 0 7 -1t5 -3t4 -6q11 -21 32 -63t50 -98t62.5 -121.5t69 -133.5t69.5 -134t63 -123l-39 35h56l-15 -25q-2 50 -3 101t-1.5 103t-0.5 104v103v100v81.5v80.5h19.5h19.5q5 0 8 -3
t3 -8v-130v-130.5v-130.5v-130v-84v-84h-25.5h-31h-25.5q-6 0 -9.5 2.5t-7.5 9.5q-33 64 -74 143.5t-87 167.5t-93 179t-92 177l34 -39h-47l13 40q2 -57 2.5 -111.5t1 -107.5t1 -104t0.5 -100v-97q-1 -32 -0.5 -76t0.5 -84zM375 776h-12h-12h-12q-8 0 -14 3.5t-22 17.5
q-8 7 -27.5 24.5t-44.5 39t-50.5 43.5t-46.5 40q12 -1 22.5 -0.5t22.5 0.5q11 0 16 -1.5t13 -8.5q17 -14 60.5 -48.5t104.5 -82.5l-54 19h32h32l-54 -19q61 48 103 81.5t74 59.5h39q5 0 7.5 -1t3.5 -2.5t1 -3.5q0 -4 -4.5 -8.5t-20.5 -18.5q-13 -11 -34.5 -29t-45.5 -38.5
t-44.5 -38.5t-32.5 -28z" />
    <glyph glyph-name="ncaron" unicode="&#x148;" 
d="M495 0h-19.5h-19.5q-3 0 -5.5 1.5t-4 3.5t-1.5 6v124v124v124q0 54 -27 80t-72 26q-24 0 -47.5 -7.5t-47.5 -23t-49.5 -39t-54.5 -56.5v72h25q26 31 54 53.5t60.5 35t69.5 12.5q35 0 61 -11t43 -31t26 -45.5t9 -55.5v-96v-95.5v-95.5v-53.5v-52.5zM160 0h-12.5h-13h-13.5
q-3 0 -5 0.5t-3.5 2t-2 3.5t-0.5 5v104v103.5v103.5v104v62v38h13.5h13h12.5q4 0 6 -1.5t3.5 -3.5t1.5 -6v-171v-172v-172zM324 629h-18h-18q-8 0 -13.5 4t-19.5 18q-8 9 -28 29.5t-45.5 47.5t-51.5 54t-47 49h22h22q11 0 16.5 -2t12.5 -9q16 -16 60 -61t104 -106l-41 21h43
l-41 -21q61 61 102.5 103.5t73.5 74.5h37q4 0 6 -1t3 -3.5t1 -4.5q0 -4 -4 -8.5t-18 -19.5q-13 -14 -34.5 -36.5t-46 -47.5t-45.5 -47t-32 -34z" />
    <glyph glyph-name="napostrophe" unicode="&#x149;" 
d="M495 0h-19.5h-19.5q-3 0 -5.5 1.5t-4 3.5t-1.5 6v124v124v124q0 54 -27 80t-72 26q-24 0 -47.5 -7.5t-47.5 -23t-49.5 -39t-54.5 -56.5v72h25q26 31 54 53.5t60.5 35t69.5 12.5q35 0 61 -11t43 -31t26 -45.5t9 -55.5v-96v-95.5v-95.5v-53.5v-52.5zM160 0h-12.5h-13h-13.5
q-3 0 -5 0.5t-3.5 2t-2 3.5t-0.5 5v104v103.5v103.5v104v62v38h13.5h13h12.5q4 0 6 -1.5t3.5 -3.5t1.5 -6v-171v-172v-172zM97 783q10 0 13 -4.5t1 -10.5q-7 -31 -11.5 -48.5t-9 -36t-12.5 -52.5q-1 -4 -4 -7t-11 -3h-15h-12q5 35 8 60.5t6.5 49.5t6.5 52h21h19z" />
    <glyph glyph-name="Eng" unicode="&#x14a;" horiz-adv-x="700" 
d="M380 -203q55 0 91.5 22.5t55 69.5t18.5 122q15 0 24.5 -0.5t15.5 -2t8 -3.5t2 -5q0 -59 -14 -105.5t-41.5 -78.5t-69 -49t-97.5 -17q-28 0 -54 4.5t-45 11.5t-27 14q-1 2 -2 3.5t-1 4.5v18v18h12q26 -13 55 -20t69 -7zM155 0h-19.5h-19.5q-3 0 -5.5 1.5t-4 4t-1.5 5.5
v137.5v137v137v137.5v70v70h26h29.5h25.5q4 0 7 -1t5 -3t4 -6q11 -21 32 -63t50 -98t62.5 -121.5t69 -133.5t69.5 -134t63 -123l-39 35h56l-15 -25q-2 50 -3 101t-1.5 103t-0.5 104v103v100v81.5v80.5h19.5h19.5q5 0 8 -3t3 -8v-130v-130.5v-130.5v-130v-84v-84h-25.5h-31
h-25.5q-6 0 -9.5 2.5t-7.5 9.5q-33 64 -74 143.5t-87 167.5t-93 179t-92 177l34 -39h-47l13 40q2 -57 2.5 -111.5t1 -107.5t1 -104t0.5 -100v-97q-1 -32 -0.5 -76t0.5 -84z" />
    <glyph glyph-name="eng" unicode="&#x14b;" 
d="M303 -203q48 0 79.5 18.5t47 65.5t15.5 132l50 -12v-9.5v-8.5v-9q0 -55 -12.5 -97t-37 -70t-62 -42.5t-87.5 -14.5q-42 0 -78.5 9.5t-47.5 20.5q-1 2 -2 3.5t-1 4.5v18v18h12q26 -13 55 -20t69 -7zM356 536q35 0 61 -11t43 -31t26 -45.5t9 -55.5v-96v-95.5v-95.5v-53.5
v-52.5h-19.5h-19.5q-5 0 -8 3t-3 8v93.5v93v93v92.5q0 54 -27 80t-72 26q-24 0 -47.5 -7.5t-47.5 -23t-49.5 -39t-54.5 -56.5v72h25q26 31 54 53.5t60.5 35t69.5 12.5zM149 526q4 0 6 -1.5t3.5 -3.5t1.5 -6v-171v-172v-172h-12.5h-13h-13.5q-3 0 -5 0.5t-3.5 2t-2 3.5
t-0.5 5v104v103.5v103.5v104v62v38h13.5h13h12.5z" />
    <glyph glyph-name="Omacron" unicode="&#x14c;" horiz-adv-x="650" 
d="M326 720q71 0 127 -28.5t89 -88t33 -152.5v-210q0 -92 -35 -149.5t-92.5 -84.5t-123.5 -27t-122.5 27t-91.5 85t-35 150v209q0 93 32 152.5t88.5 88t130.5 28.5zM125 236q0 -54 17 -93.5t43 -65.5q22 -21 54.5 -35.5t84.5 -14.5q58 0 103 25t71.5 73t26.5 116v218
q0 39 -8 70t-22 55t-32 41q-22 21 -57.5 34.5t-79.5 13.5q-71 0 -115.5 -27.5t-65 -75.5t-20.5 -111v-223zM151 862h337q5 0 8 -3t3 -8v-19.5v-19.5h-337q-3 0 -5.5 1.5t-4 4t-1.5 5.5v19.5v19.5z" />
    <glyph glyph-name="omacron" unicode="&#x14d;" 
d="M300 536q49 0 88.5 -15.5t68 -43.5t43.5 -66t15 -83v-121q0 -64 -29 -113t-78 -76.5t-108 -27.5q-49 0 -88.5 15.5t-68 43.5t-43.5 66t-15 83v121q0 65 29 113.5t78 76t108 27.5zM309 488q-57 0 -95.5 -23.5t-58.5 -61.5t-20 -84v-114q0 -37 12.5 -68.5t34.5 -53.5
q20 -21 48 -33t61 -12q57 0 96 24.5t58.5 63t19.5 81.5v114q0 39 -12 70.5t-34 53.5q-20 20 -48 31.5t-62 11.5zM126 740h337q5 0 8 -3t3 -8v-12.5v-13v-13.5h-337q-3 0 -5.5 1.5t-4 4t-1.5 5.5v13.5v13v12.5z" />
    <glyph glyph-name="Obreve" unicode="&#x14e;" horiz-adv-x="650" 
d="M326 720q71 0 127 -28.5t89 -88t33 -152.5v-210q0 -92 -35 -149.5t-92.5 -84.5t-123.5 -27t-122.5 27t-91.5 85t-35 150v209q0 93 32 152.5t88.5 88t130.5 28.5zM125 236q0 -54 17 -93.5t43 -65.5q22 -21 54.5 -35.5t84.5 -14.5q58 0 103 25t71.5 73t26.5 116v218
q0 39 -8 70t-22 55t-32 41q-22 21 -57.5 34.5t-79.5 13.5q-71 0 -115.5 -27.5t-65 -75.5t-20.5 -111v-223zM454 935h15.5h15.5q10 0 12.5 -6t-1.5 -17q-11 -33 -35 -57t-56.5 -37t-72.5 -13h-14q-39 0 -72 13t-56.5 37t-35.5 57q-4 11 -1.5 17t12.5 6h15.5h15.5
q20 -46 51 -65t78 -19t78 19t51 65z" />
    <glyph glyph-name="obreve" unicode="&#x14f;" 
d="M300 536q49 0 88.5 -15.5t68 -43.5t43.5 -66t15 -83v-121q0 -64 -29 -113t-78 -76.5t-108 -27.5q-49 0 -88.5 15.5t-68 43.5t-43.5 66t-15 83v121q0 65 29 113.5t78 76t108 27.5zM309 488q-57 0 -95.5 -23.5t-58.5 -61.5t-20 -84v-114q0 -37 12.5 -68.5t34.5 -53.5
q20 -21 48 -33t61 -12q57 0 96 24.5t58.5 63t19.5 81.5v114q0 39 -12 70.5t-34 53.5q-20 20 -48 31.5t-62 11.5zM300 692q53 0 86.5 29t42.5 90h15.5h15.5q10 0 13 -4t1 -18q-4 -39 -26 -71.5t-58 -52t-83 -19.5h-14q-47 0 -83 19.5t-57.5 52t-26.5 71.5q-1 14 1.5 18
t12.5 4h15.5h15.5q9 -61 42.5 -90t86.5 -29z" />
    <glyph glyph-name="Ohungarumlaut" unicode="&#x150;" horiz-adv-x="650" 
d="M326 720q71 0 127 -28.5t89 -88t33 -152.5v-210q0 -92 -35 -149.5t-92.5 -84.5t-123.5 -27t-122.5 27t-91.5 85t-35 150v209q0 93 32 152.5t88.5 88t130.5 28.5zM125 236q0 -54 17 -93.5t43 -65.5q22 -21 54.5 -35.5t84.5 -14.5q58 0 103 25t71.5 73t26.5 116v218
q0 39 -8 70t-22 55t-32 41q-22 21 -57.5 34.5t-79.5 13.5q-71 0 -115.5 -27.5t-65 -75.5t-20.5 -111v-223zM326 943h18.5h12h15.5q6 0 9 -5t-2 -10q-18 -22 -31 -38.5t-24.5 -31t-25.5 -32t-35 -43.5q-2 -3 -6.5 -5.5t-10.5 -2.5h-12.5h-11h-11.5q21 30 39 56.5t36.5 53.5
t39.5 58zM556 943h18.5h12h15.5q6 0 9 -5t-2 -10q-18 -22 -31 -38.5t-24.5 -31t-25.5 -32t-35 -43.5q-2 -3 -6.5 -5.5t-10.5 -2.5h-12.5h-11h-11.5q21 30 39 56.5t36.5 53.5t39.5 58z" />
    <glyph glyph-name="ohungarumlaut" unicode="&#x151;" 
d="M300 536q49 0 88.5 -15.5t68 -43.5t43.5 -66t15 -83v-121q0 -64 -29 -113t-78 -76.5t-108 -27.5q-49 0 -88.5 15.5t-68 43.5t-43.5 66t-15 83v121q0 65 29 113.5t78 76t108 27.5zM309 488q-57 0 -95.5 -23.5t-58.5 -61.5t-20 -84v-114q0 -37 12.5 -68.5t34.5 -53.5
q20 -21 48 -33t61 -12q57 0 96 24.5t58.5 63t19.5 81.5v114q0 39 -12 70.5t-34 53.5q-20 20 -48 31.5t-62 11.5zM283 835h26.5h23.5q8 0 9.5 -6t-3.5 -12q-23 -30 -41.5 -54t-38 -48.5t-46.5 -59.5q-2 -3 -6.5 -5.5t-10.5 -2.5h-18.5h-17.5q20 30 40.5 61.5t41.5 63.5t41 63
zM483 835h26.5h23.5q8 0 9.5 -6t-3.5 -12q-23 -30 -41.5 -54t-38 -48.5t-46.5 -59.5q-2 -3 -6.5 -5.5t-10.5 -2.5h-18.5h-17.5q20 30 40.5 61.5t41.5 63.5t41 63z" />
    <glyph glyph-name="OE" unicode="&#x152;" horiz-adv-x="800" 
d="M285 706q35 0 61.5 -7.5t44.5 -20t29 -27.5v49h309q5 0 8 -3t3 -8v-18v-18h-276l-44 -61q-22 29 -55 48t-74 19q-51 0 -87.5 -22t-56.5 -64t-20 -102v-244q0 -86 42.5 -136t126.5 -50q28 0 50.5 8t41 23t32.5 34v131.5v134v134.5v131l52 37l-2 -19v-17.5v-17.5v-143
v-143.5v-143.5v-143h259q5 0 8 -3t3 -8v-18v-18h-309q-4 0 -7.5 3.5t-3.5 7.5v69l19 -7q-28 -40 -66.5 -59.5t-87.5 -19.5q-53 0 -101 24.5t-77.5 75.5t-29.5 132v244q0 65 19 110t50.5 73t68 40.5t70.5 12.5zM445 378h243q5 0 8 -3t3 -8v-18v-18h-254v47z" />
    <glyph glyph-name="oe" unicode="&#x153;" horiz-adv-x="850" 
d="M271 536q40 0 73.5 -14.5t58.5 -41.5t38 -65l-17 -2q16 56 59 89.5t109 33.5q55 0 93.5 -23t59 -66.5t20.5 -106.5v-85q0 -5 -3 -8t-8 -3h-75.5h-75.5h-75.5h-75.5h-10v47h45.5h45h44.5h69.5h68.5v47q0 42 -9 71.5t-26 47.5q-16 17 -39.5 24.5t-55.5 7.5q-39 0 -68.5 -18
t-45.5 -50t-16 -73v-163q0 -31 10.5 -58t30.5 -47t50.5 -31.5t68.5 -11.5q39 0 72 10t64 33h12v-20v-20q0 -2 -0.5 -4t-2.5 -4q-16 -16 -54.5 -29t-94.5 -13q-51 0 -90 17t-64 46.5t-35 68.5l14 2q-7 -37 -32.5 -67.5t-61.5 -48.5t-76 -18q-58 0 -99.5 24.5t-63.5 71.5
t-22 112v121q0 63 24.5 112t67.5 77t98 28zM129 205q0 -32 5 -57.5t15.5 -45t24.5 -33.5q17 -16 39.5 -23.5t52.5 -7.5q46 0 76.5 24.5t46.5 63t16 81.5v114q0 46 -11.5 80t-34.5 55q-16 16 -38 24t-49 8q-45 0 -77 -20t-49 -57.5t-17 -91.5v-114z" />
    <glyph glyph-name="Racute" unicode="&#x154;" 
d="M343 332q32 -60 63.5 -120.5t62.5 -120.5q14 -25 27.5 -34.5t33.5 -9.5h11.5h8.5h10v-18v-18q0 -5 -3 -8t-8 -3h-14h-15q-21 0 -39 8t-32.5 24.5t-28.5 41.5q-30 59 -60.5 117.5t-60.5 116.5zM30 700h144h144q47 0 84 -12.5t62 -36t38 -57.5t13 -77v-41q0 -42 -13.5 -76
t-38.5 -58t-61.5 -36.5t-83.5 -12.5h-87h-88l-11 -9v56h91.5h91.5q50 0 82.5 16t49 47.5t16.5 76.5v33q0 32 -8.5 58.5t-26.5 43.5q-18 18 -45.5 28t-67.5 10h-91.5h-91h-91.5q-5 0 -8 3t-3 8v18v18zM150 0h-19.5h-19.5q-5 0 -8 3t-3 8v167.5v167v167v167.5h62l-12 -11
v-115.5v-115.5v-112.5v-112.5v-113v-51v-49zM386 943h18.5h12h15.5q6 0 9 -5t-2 -10q-18 -22 -31 -38.5t-24.5 -31t-25.5 -32t-35 -43.5q-2 -3 -6.5 -5.5t-10.5 -2.5h-12.5h-11h-11.5q21 30 39 56.5t36.5 53.5t39.5 58z" />
    <glyph glyph-name="racute" unicode="&#x155;" horiz-adv-x="450" 
d="M146 428h26q30 42 58.5 65.5t58 33t61.5 9.5q19 0 32.5 -2t24.5 -6q6 -2 8 -6t2 -11v-8.5v-8.5v-8.5v-8.5h-12q-11 3 -24 5t-31 2q-36 0 -69 -12t-65.5 -44t-69.5 -91v91zM160 0h-12.5h-13h-13.5q-3 0 -5 0.5t-3.5 2t-2 3.5t-0.5 5v36v78v101v106.5v93.5v62v38h13.5h13
h12.5q4 0 6 -1.5t3.5 -3.5t1.5 -6v-44v-96v-125.5v-133v-116.5zM353 835h26.5h23.5q8 0 9.5 -6t-3.5 -12q-23 -30 -41.5 -54t-38 -48.5t-46.5 -59.5q-2 -3 -6.5 -5.5t-10.5 -2.5h-18.5h-17.5q20 30 40.5 61.5t41.5 63.5t41 63z" />
    <glyph glyph-name="uni0156" unicode="&#x156;" 
d="M343 332q32 -60 63.5 -120.5t62.5 -120.5q14 -25 27.5 -34.5t33.5 -9.5h11.5h8.5h10v-18v-18q0 -5 -3 -8t-8 -3h-14h-15q-21 0 -39 8t-32.5 24.5t-28.5 41.5q-30 59 -60.5 117.5t-60.5 116.5zM30 700h144h144q47 0 84 -12.5t62 -36t38 -57.5t13 -77v-41q0 -42 -13.5 -76
t-38.5 -58t-61.5 -36.5t-83.5 -12.5h-87h-88l-11 -9v56h91.5h91.5q50 0 82.5 16t49 47.5t16.5 76.5v33q0 32 -8.5 58.5t-26.5 43.5q-18 18 -45.5 28t-67.5 10h-91.5h-91h-91.5q-5 0 -8 3t-3 8v18v18zM150 0h-19.5h-19.5q-5 0 -8 3t-3 8v167.5v167v167v167.5h62l-12 -11
v-115.5v-115.5v-112.5v-112.5v-113v-51v-49zM281 -70h18h14h14q6 0 9 -4t1 -10q-11 -29 -18.5 -48.5t-14.5 -39t-19 -50.5q-1 -4 -4.5 -7t-10.5 -3h-16.5h-19.5q10 33 17.5 59.5t15 51.5t14.5 51z" />
    <glyph glyph-name="uni0157" unicode="&#x157;" horiz-adv-x="450" 
d="M146 428h26q30 42 58.5 65.5t58 33t61.5 9.5q19 0 32.5 -2t24.5 -6q6 -2 8 -6t2 -11v-8.5v-8.5v-8.5v-8.5h-12q-11 3 -24 5t-31 2q-36 0 -69 -12t-65.5 -44t-69.5 -91v91zM160 0h-12.5h-13h-13.5q-3 0 -5 0.5t-3.5 2t-2 3.5t-0.5 5v36v78v101v106.5v93.5v62v38h13.5h13
h12.5q4 0 6 -1.5t3.5 -3.5t1.5 -6v-44v-96v-125.5v-133v-116.5zM114 -70h24.5h27.5q6 0 9 -4t1 -10q-11 -29 -21 -56t-20 -54.5t-22 -58.5q-1 -4 -4.5 -7t-10.5 -3h-16.5h-18.5l18 66t17.5 65t15.5 62z" />
    <glyph glyph-name="Rcaron" unicode="&#x158;" 
d="M343 332q32 -60 63.5 -120.5t62.5 -120.5q14 -25 27.5 -34.5t33.5 -9.5h11.5h8.5h10v-18v-18q0 -5 -3 -8t-8 -3h-14h-15q-21 0 -39 8t-32.5 24.5t-28.5 41.5q-30 59 -60.5 117.5t-60.5 116.5zM30 700h144h144q47 0 84 -12.5t62 -36t38 -57.5t13 -77v-41q0 -42 -13.5 -76
t-38.5 -58t-61.5 -36.5t-83.5 -12.5h-87h-88l-11 -9v56h91.5h91.5q50 0 82.5 16t49 47.5t16.5 76.5v33q0 32 -8.5 58.5t-26.5 43.5q-18 18 -45.5 28t-67.5 10h-91.5h-91h-91.5q-5 0 -8 3t-3 8v18v18zM150 0h-19.5h-19.5q-5 0 -8 3t-3 8v167.5v167v167v167.5h62l-12 -11
v-115.5v-115.5v-112.5v-112.5v-113v-51v-49zM320 776h-12h-12h-12q-8 0 -14 3.5t-22 17.5q-8 7 -27.5 24.5t-44.5 39t-50.5 43.5t-46.5 40q12 -1 22.5 -0.5t22.5 0.5q11 0 16 -1.5t13 -8.5q17 -14 60.5 -48.5t104.5 -82.5l-54 19h32h32l-54 -19q61 48 103 81.5t74 59.5h39
q5 0 7.5 -1t3.5 -2.5t1 -3.5q0 -4 -4.5 -8.5t-20.5 -18.5q-13 -11 -34.5 -29t-45.5 -38.5t-44.5 -38.5t-32.5 -28z" />
    <glyph glyph-name="rcaron" unicode="&#x159;" horiz-adv-x="450" 
d="M146 428h26q30 42 58.5 65.5t58 33t61.5 9.5q19 0 32.5 -2t24.5 -6q6 -2 8 -6t2 -11v-8.5v-8.5v-8.5v-8.5h-12q-11 3 -24 5t-31 2q-36 0 -69 -12t-65.5 -44t-69.5 -91v91zM160 0h-12.5h-13h-13.5q-3 0 -5 0.5t-3.5 2t-2 3.5t-0.5 5v36v78v101v106.5v93.5v62v38h13.5h13
h12.5q4 0 6 -1.5t3.5 -3.5t1.5 -6v-44v-96v-125.5v-133v-116.5zM277 629h-18h-18q-8 0 -13.5 4t-19.5 18q-8 9 -28 29.5t-45.5 47.5t-51.5 54t-47 49h22h22q11 0 16.5 -2t12.5 -9q16 -16 60 -61t104 -106l-41 21h43l-41 -21q61 61 102.5 103.5t73.5 74.5h37q4 0 6 -1t3 -3.5
t1 -4.5q0 -4 -4 -8.5t-18 -19.5q-13 -14 -34.5 -36.5t-46 -47.5t-45.5 -47t-32 -34z" />
    <glyph glyph-name="Sacute" unicode="&#x15a;" 
d="M317 716q65 0 116 -14.5t76 -40.5q5 -4 6.5 -7.5t1.5 -8.5v-41v-41.5v-40.5h-19.5h-19.5q-5 0 -8 3t-3 8v33.5v33v33.5v33l27 -52q-25 27 -69 41t-108 14q-40 0 -72.5 -9.5t-56 -27t-36 -42.5t-12.5 -56v-19q0 -31 10.5 -55t36.5 -41.5t73 -31.5l97 -28
q45 -13 77.5 -27.5t52.5 -32.5t29.5 -42.5t9.5 -58.5v-32q0 -54 -26.5 -95t-77.5 -64t-123 -23q-49 0 -91.5 8t-74.5 22t-50 32q-4 4 -5 7.5t-1 7.5v13.5v13v12.5h12q44 -39 92.5 -54t117.5 -15q80 0 128 35.5t48 102.5v20q0 32 -11.5 53t-39 36.5t-75.5 29.5l-98 29
q-45 13 -75.5 29t-49.5 36.5t-27.5 46.5t-8.5 60v30q0 40 17 72.5t47.5 56t72 36t90.5 12.5zM392 943h18.5h12h15.5q6 0 9 -5t-2 -10q-18 -22 -31 -38.5t-24.5 -31t-25.5 -32t-35 -43.5q-2 -3 -6.5 -5.5t-10.5 -2.5h-12.5h-11h-11.5q21 30 39 56.5t36.5 53.5t39.5 58z" />
    <glyph glyph-name="sacute" unicode="&#x15b;" horiz-adv-x="550" 
d="M266 39q84 0 123.5 28.5t39.5 74.5q0 25 -11 42.5t-34 30t-60 21.5l-94 23q-51 13 -81.5 30t-44 41.5t-13.5 59.5q0 27 12.5 53t38 46.5t65 32.5t93.5 12q41 0 70 -4t48.5 -10t29.5 -12q4 -2 5.5 -4t2 -4t0.5 -5v-18v-19h-12q-24 12 -45.5 18t-46.5 8.5t-61 2.5
q-45 0 -78.5 -14t-52.5 -36t-19 -46q0 -22 8.5 -37t32 -26t67.5 -22l104 -26q40 -10 68 -29t43 -46t15 -63q0 -46 -26 -80t-73 -52t-111 -18q-36 0 -66 4t-54.5 12t-43 18t-31.5 22q-1 2 -2 3.5t-1 4.5v23.5v22.5h12q19 -17 38.5 -29t41.5 -19.5t47.5 -11t55.5 -3.5z
M375 835h26.5h23.5q8 0 9.5 -6t-3.5 -12q-23 -30 -41.5 -54t-38 -48.5t-46.5 -59.5q-2 -3 -6.5 -5.5t-10.5 -2.5h-18.5h-17.5q20 30 40.5 61.5t41.5 63.5t41 63z" />
    <glyph glyph-name="Scircumflex" unicode="&#x15c;" 
d="M317 716q65 0 116 -14.5t76 -40.5q5 -4 6.5 -7.5t1.5 -8.5v-41v-41.5v-40.5h-19.5h-19.5q-5 0 -8 3t-3 8v33.5v33v33.5v33l27 -52q-25 27 -69 41t-108 14q-40 0 -72.5 -9.5t-56 -27t-36 -42.5t-12.5 -56v-19q0 -31 10.5 -55t36.5 -41.5t73 -31.5l97 -28
q45 -13 77.5 -27.5t52.5 -32.5t29.5 -42.5t9.5 -58.5v-32q0 -54 -26.5 -95t-77.5 -64t-123 -23q-49 0 -91.5 8t-74.5 22t-50 32q-4 4 -5 7.5t-1 7.5v13.5v13v12.5h12q44 -39 92.5 -54t117.5 -15q80 0 128 35.5t48 102.5v20q0 32 -11.5 53t-39 36.5t-75.5 29.5l-98 29
q-45 13 -75.5 29t-49.5 36.5t-27.5 46.5t-8.5 60v30q0 40 17 72.5t47.5 56t72 36t90.5 12.5zM275 944h12h12h12q8 0 14 -3.5t22 -17.5q8 -7 27.5 -24.5t44.5 -39t50.5 -43.5t46.5 -40q-12 1 -22.5 0.5t-22.5 -0.5q-11 0 -16 1.5t-13 8.5q-17 14 -60.5 48.5t-104.5 82.5
l54 -19h-32h-32l54 19q-61 -48 -103 -81.5t-74 -59.5h-39q-5 0 -7.5 1t-3.5 2.5t-1 3.5q0 4 4.5 8.5t20.5 18.5q13 11 34.5 29t45.5 38.5t44.5 38.5t32.5 28z" />
    <glyph glyph-name="scircumflex" unicode="&#x15d;" horiz-adv-x="550" 
d="M266 39q84 0 123.5 28.5t39.5 74.5q0 25 -11 42.5t-34 30t-60 21.5l-94 23q-51 13 -81.5 30t-44 41.5t-13.5 59.5q0 27 12.5 53t38 46.5t65 32.5t93.5 12q41 0 70 -4t48.5 -10t29.5 -12q4 -2 5.5 -4t2 -4t0.5 -5v-18v-19h-12q-24 12 -45.5 18t-46.5 8.5t-61 2.5
q-45 0 -78.5 -14t-52.5 -36t-19 -46q0 -22 8.5 -37t32 -26t67.5 -22l104 -26q40 -10 68 -29t43 -46t15 -63q0 -46 -26 -80t-73 -52t-111 -18q-36 0 -66 4t-54.5 12t-43 18t-31.5 22q-1 2 -2 3.5t-1 4.5v23.5v22.5h12q19 -17 38.5 -29t41.5 -19.5t47.5 -11t55.5 -3.5z
M252 830h18h18q8 0 13.5 -4t19.5 -18q8 -9 28 -29.5t45.5 -47.5t51.5 -54t47 -49h-22h-22q-11 0 -16.5 2t-12.5 9q-16 16 -60 61t-104 106l41 -21h-43l41 21q-61 -61 -102.5 -103.5t-73.5 -74.5h-37q-4 0 -6 1t-3 3.5t-1 4.5q0 4 4 8.5t18 19.5q13 14 34.5 36.5t46 47.5
t45.5 47t32 34z" />
    <glyph glyph-name="uni015E" unicode="&#x15e;" 
d="M317 716q65 0 116 -14.5t76 -40.5q5 -4 6.5 -7.5t1.5 -8.5v-41v-41.5v-40.5h-19.5h-19.5q-5 0 -8 3t-3 8v33.5v33v33.5v33l27 -52q-25 27 -69 41t-108 14q-40 0 -72.5 -9.5t-56 -27t-36 -42.5t-12.5 -56v-19q0 -31 10.5 -55t36.5 -41.5t73 -31.5l97 -28
q45 -13 77.5 -27.5t52.5 -32.5t29.5 -42.5t9.5 -58.5v-32q0 -54 -26.5 -95t-77.5 -64t-123 -23q-49 0 -91.5 8t-74.5 22t-50 32q-4 4 -5 7.5t-1 7.5v13.5v13v12.5h12q44 -39 92.5 -54t117.5 -15q80 0 128 35.5t48 102.5v20q0 32 -11.5 53t-39 36.5t-75.5 29.5l-98 29
q-45 13 -75.5 29t-49.5 36.5t-27.5 46.5t-8.5 60v30q0 40 17 72.5t47.5 56t72 36t90.5 12.5zM396 -124q0 -41 -31 -68.5t-87 -27.5q-26 0 -43 4.5t-25.5 11.5t-8.5 12v13.5v10.5v10h12q11 -10 25 -15t42 -5q32 0 51.5 14t19.5 39q0 23 -14.5 34.5t-59.5 12.5q-5 0 -8 3t-3 8
q2 10 3.5 19.5t3.5 19t3.5 18.5t3.5 19q1 7 4.5 9.5t13 3t29.5 0.5q-1 -6 -2.5 -12.5t-2.5 -13t-2.5 -13t-2.5 -12.5l-3 -13q38 -2 60 -23t22 -59z" />
    <glyph glyph-name="uni015F" unicode="&#x15f;" horiz-adv-x="550" 
d="M266 39q84 0 123.5 28.5t39.5 74.5q0 25 -11 42.5t-34 30t-60 21.5l-94 23q-51 13 -81.5 30t-44 41.5t-13.5 59.5q0 27 12.5 53t38 46.5t65 32.5t93.5 12q41 0 70 -4t48.5 -10t29.5 -12q4 -2 5.5 -4t2 -4t0.5 -5v-18v-19h-12q-24 12 -45.5 18t-46.5 8.5t-61 2.5
q-45 0 -78.5 -14t-52.5 -36t-19 -46q0 -22 8.5 -37t32 -26t67.5 -22l104 -26q40 -10 68 -29t43 -46t15 -63q0 -46 -26 -80t-73 -52t-111 -18q-36 0 -66 4t-54.5 12t-43 18t-31.5 22q-1 2 -2 3.5t-1 4.5v23.5v22.5h12q19 -17 38.5 -29t41.5 -19.5t47.5 -11t55.5 -3.5zM301 22
q-1 -6 -2.5 -13t-3 -13.5t-2.5 -13.5t-3 -13l-2 -11q38 -2 60 -23t22 -59q0 -41 -31 -68.5t-87 -27.5q-26 0 -43 4.5t-25.5 11.5t-8.5 12v13.5v10.5v10h12q11 -10 25 -15t42 -5q32 0 51.5 14t19.5 39q0 23 -14.5 34.5t-59.5 12.5q-5 0 -8 3t-3 8q2 10 3.5 19.5t3.5 19
t3.5 18.5t3.5 19q1 7 4.5 9.5t13 3t29.5 0.5z" />
    <glyph glyph-name="Scaron" unicode="&#x160;" 
d="M317 716q65 0 116 -14.5t76 -40.5q5 -4 6.5 -7.5t1.5 -8.5v-41v-41.5v-40.5h-19.5h-19.5q-5 0 -8 3t-3 8v33.5v33v33.5v33l27 -52q-25 27 -69 41t-108 14q-40 0 -72.5 -9.5t-56 -27t-36 -42.5t-12.5 -56v-19q0 -31 10.5 -55t36.5 -41.5t73 -31.5l97 -28
q45 -13 77.5 -27.5t52.5 -32.5t29.5 -42.5t9.5 -58.5v-32q0 -54 -26.5 -95t-77.5 -64t-123 -23q-49 0 -91.5 8t-74.5 22t-50 32q-4 4 -5 7.5t-1 7.5v13.5v13v12.5h12q44 -39 92.5 -54t117.5 -15q80 0 128 35.5t48 102.5v20q0 32 -11.5 53t-39 36.5t-75.5 29.5l-98 29
q-45 13 -75.5 29t-49.5 36.5t-27.5 46.5t-8.5 60v30q0 40 17 72.5t47.5 56t72 36t90.5 12.5zM326 776h-12h-12h-12q-8 0 -14 3.5t-22 17.5q-8 7 -27.5 24.5t-44.5 39t-50.5 43.5t-46.5 40q12 -1 22.5 -0.5t22.5 0.5q11 0 16 -1.5t13 -8.5q17 -14 60.5 -48.5t104.5 -82.5
l-54 19h32h32l-54 -19q61 48 103 81.5t74 59.5h39q5 0 7.5 -1t3.5 -2.5t1 -3.5q0 -4 -4.5 -8.5t-20.5 -18.5q-13 -11 -34.5 -29t-45.5 -38.5t-44.5 -38.5t-32.5 -28z" />
    <glyph glyph-name="scaron" unicode="&#x161;" horiz-adv-x="550" 
d="M266 39q84 0 123.5 28.5t39.5 74.5q0 25 -11 42.5t-34 30t-60 21.5l-94 23q-51 13 -81.5 30t-44 41.5t-13.5 59.5q0 27 12.5 53t38 46.5t65 32.5t93.5 12q41 0 70 -4t48.5 -10t29.5 -12q4 -2 5.5 -4t2 -4t0.5 -5v-18v-19h-12q-24 12 -45.5 18t-46.5 8.5t-61 2.5
q-45 0 -78.5 -14t-52.5 -36t-19 -46q0 -22 8.5 -37t32 -26t67.5 -22l104 -26q40 -10 68 -29t43 -46t15 -63q0 -46 -26 -80t-73 -52t-111 -18q-36 0 -66 4t-54.5 12t-43 18t-31.5 22q-1 2 -2 3.5t-1 4.5v23.5v22.5h12q19 -17 38.5 -29t41.5 -19.5t47.5 -11t55.5 -3.5z
M299 629h-18h-18q-8 0 -13.5 4t-19.5 18q-8 9 -28 29.5t-45.5 47.5t-51.5 54t-47 49h22h22q11 0 16.5 -2t12.5 -9q16 -16 60 -61t104 -106l-41 21h43l-41 -21q61 61 102.5 103.5t73.5 74.5h37q4 0 6 -1t3 -3.5t1 -4.5q0 -4 -4 -8.5t-18 -19.5q-13 -14 -34.5 -36.5t-46 -47.5
t-45.5 -47t-32 -34z" />
    <glyph glyph-name="uni0162" unicode="&#x162;" 
d="M60 700h469q5 0 8 -3t3 -8v-18v-18h-469q-3 0 -5.5 1.5t-4 4t-1.5 5.5v18v18zM325 0h-19.5h-19.5q-5 0 -8 3t-3 8v167.5v167v167v167.5h56l-6 -11v-58v-58.5v-58.5v-131v-131.5v-131.5v-51v-49zM395 -124q0 -41 -31 -68.5t-87 -27.5q-26 0 -43 4.5t-25.5 11.5t-8.5 12
v13.5v10.5v10h12q11 -10 25 -15t42 -5q32 0 51.5 14t19.5 39q0 23 -14.5 34.5t-59.5 12.5q-5 0 -8 3t-3 8q2 10 3.5 19.5t3.5 19t3.5 18.5t3.5 19q1 7 4.5 9.5t13 3t29.5 0.5q-1 -6 -2.5 -12.5t-2.5 -13t-2.5 -13t-2.5 -12.5l-3 -13q38 -2 60 -23t22 -59z" />
    <glyph glyph-name="uni0163" unicode="&#x163;" horiz-adv-x="500" 
d="M50 526h369q5 0 8 -3t3 -8v-12v-11.5v-12.5h-369q-2 0 -4 1t-3.5 2.5t-2.5 3.5t-1 4v12.5v11.5v12zM430 47v-18v-18q0 -6 -2.5 -8.5t-8.5 -2.5h-17.5h-17h-17h-17.5q-45 0 -78.5 10.5t-56 33.5t-34 58.5t-11.5 86.5v100v100v100.5v101.5v54.5v54.5h19.5h19.5
q3 0 5.5 -1.5t4 -4t1.5 -5.5v-123.5v-123.5v-123.5v-123.5q0 -42 8.5 -71t26.5 -47q16 -16 40.5 -23t58.5 -7h20.5h20.5h20h15zM321 22q-1 -6 -2.5 -13t-3 -13.5t-2.5 -13.5t-3 -13l-2 -11q38 -2 60 -23t22 -59q0 -41 -31 -68.5t-87 -27.5q-26 0 -43 4.5t-25.5 11.5t-8.5 12
v13.5v10.5v10h12q11 -10 25 -15t42 -5q32 0 51.5 14t19.5 39q0 23 -14.5 34.5t-59.5 12.5q-5 0 -8 3t-3 8q2 10 3.5 19.5t3.5 19t3.5 18.5t3.5 19q1 7 4.5 9.5t13 3t29.5 0.5z" />
    <glyph glyph-name="Tcaron" unicode="&#x164;" 
d="M60 700h469q5 0 8 -3t3 -8v-18v-18h-469q-3 0 -5.5 1.5t-4 4t-1.5 5.5v18v18zM325 0h-19.5h-19.5q-5 0 -8 3t-3 8v167.5v167v167v167.5h56l-6 -11v-58v-58.5v-58.5v-131v-131.5v-131.5v-51v-49zM325 776h-12h-12h-12q-8 0 -14 3.5t-22 17.5q-8 7 -27.5 24.5t-44.5 39
t-50.5 43.5t-46.5 40q12 -1 22.5 -0.5t22.5 0.5q11 0 16 -1.5t13 -8.5q17 -14 60.5 -48.5t104.5 -82.5l-54 19h32h32l-54 -19q61 48 103 81.5t74 59.5h39q5 0 7.5 -1t3.5 -2.5t1 -3.5q0 -4 -4.5 -8.5t-20.5 -18.5q-13 -11 -34.5 -29t-45.5 -38.5t-44.5 -38.5t-32.5 -28z" />
    <glyph glyph-name="tcaron" unicode="&#x165;" horiz-adv-x="500" 
d="M50 526h369q5 0 8 -3t3 -8v-12v-11.5v-12.5h-369q-2 0 -4 1t-3.5 2.5t-2.5 3.5t-1 4v12.5v11.5v12zM430 47v-18v-18q0 -6 -2.5 -8.5t-8.5 -2.5h-17.5h-17h-17h-17.5q-45 0 -78.5 10.5t-56 33.5t-34 58.5t-11.5 86.5v100v100v100.5v101.5v54.5v54.5h19.5h19.5
q3 0 5.5 -1.5t4 -4t1.5 -5.5v-123.5v-123.5v-123.5v-123.5q0 -42 8.5 -71t26.5 -47q16 -16 40.5 -23t58.5 -7h20.5h20.5h20h15zM420 783q10 0 13 -4.5t1 -10.5q-7 -31 -11.5 -48.5t-9 -36t-12.5 -52.5q-1 -4 -4 -7t-11 -3h-15h-12q5 35 8 60.5t6.5 49.5t6.5 52h21h19z" />
    <glyph glyph-name="Tbar" unicode="&#x166;" 
d="M70 347h449q5 0 8 -3t3 -8v-17v-17h-449q-3 0 -5.5 1.5t-4 4t-1.5 5.5v17v17zM60 700h469q5 0 8 -3t3 -8v-18v-18h-469q-3 0 -5.5 1.5t-4 4t-1.5 5.5v18v18zM325 0h-19.5h-19.5q-5 0 -8 3t-3 8v167.5v167v167v167.5h56l-6 -11v-58v-58.5v-58.5v-131v-131.5v-131.5v-51
v-49z" />
    <glyph glyph-name="tbar" unicode="&#x167;" horiz-adv-x="500" 
d="M50 300h379q5 0 8 -3t3 -8v-16v-16h-379q-3 0 -5.5 1.5t-4 4t-1.5 5.5v16v16zM50 526h369q5 0 8 -3t3 -8v-12v-11.5v-12.5h-369q-2 0 -4 1t-3.5 2.5t-2.5 3.5t-1 4v12.5v11.5v12zM430 47v-18v-18q0 -6 -2.5 -8.5t-8.5 -2.5h-17.5h-17h-17h-17.5q-45 0 -78.5 10.5
t-56 33.5t-34 58.5t-11.5 86.5v100v100v100.5v101.5v54.5v54.5h19.5h19.5q3 0 5.5 -1.5t4 -4t1.5 -5.5v-123.5v-123.5v-123.5v-123.5q0 -42 8.5 -71t26.5 -47q16 -16 40.5 -23t58.5 -7h20.5h20.5h20h15z" />
    <glyph glyph-name="Utilde" unicode="&#x168;" horiz-adv-x="650" 
d="M560 0h-12.5h-13h-13.5q-2 0 -4 0.5t-3 1.5t-2 2.5t-1.5 3t-0.5 3.5v172v172.5v172.5v172h13.5h13h12.5q3 0 5.5 -1.5t4 -4t1.5 -5.5v-147v-147.5v-147v-147.5v-50v-50zM268 -20q-45 0 -79 13t-57 37.5t-35 59t-12 77.5v134v147v153v49.5v49.5h19.5h19.5q3 0 5.5 -1.5
t4 -4t1.5 -5.5v-175v-174.5v-170.5q0 -67 36 -104.5t99 -37.5q47 0 91 18.5t86.5 64.5t83.5 128v-137h-41q-27 -37 -60 -64t-73 -42t-89 -15zM407 848q26 0 43 11.5t38 34.5h11v-19v-21q0 -3 -1 -6.5t-6 -8.5q-16 -16 -35 -26.5t-49 -10.5q-25 0 -47 10t-42.5 22.5
t-40.5 22.5t-41 10q-26 0 -43 -11.5t-38 -34.5h-11v19.5v20.5q0 2 1 6t6 9q16 16 35 26.5t49 10.5q25 0 47.5 -10t43 -22.5t40 -22.5t40.5 -10z" />
    <glyph glyph-name="utilde" unicode="&#x169;" 
d="M148 526q4 0 6 -1.5t3.5 -3.5t1.5 -6v-92.5v-93v-93v-93.5q0 -54 27 -80t72 -26q24 0 47.5 7.5t47.5 23t50 39t54 56.5v-72h-25q-26 -30 -54 -53t-60 -35.5t-70 -12.5q-34 0 -60.5 11t-43.5 31t-26 45.5t-9 55.5v89.5v89.5v89v63v62h19.5h19.5zM483 526q4 0 6 -1.5
t3.5 -3.5t1.5 -6v-138v-138.5v-138.5v-43.5v-34v-22.5h-12.5h-13h-13.5q-3 0 -5.5 1.5t-4 3.5t-1.5 6v172v172v171h13.5h13h12.5zM375 704q26 0 49.5 15t41.5 41h11v-14v-15v-12q0 -6 -1.5 -10t-7.5 -12q-16 -19 -39 -30t-53 -11q-27 0 -46 9t-35.5 21.5t-32.5 21.5t-37 9
q-26 0 -49.5 -15t-41.5 -41h-11v14v15.5v11.5q0 6 1.5 10.5t7.5 11.5q17 20 39.5 30.5t52.5 10.5q27 0 46 -9t35.5 -21.5t32.5 -21.5t37 -9z" />
    <glyph glyph-name="Umacron" unicode="&#x16a;" horiz-adv-x="650" 
d="M560 0h-12.5h-13h-13.5q-2 0 -4 0.5t-3 1.5t-2 2.5t-1.5 3t-0.5 3.5v172v172.5v172.5v172h13.5h13h12.5q3 0 5.5 -1.5t4 -4t1.5 -5.5v-147v-147.5v-147v-147.5v-50v-50zM268 -20q-45 0 -79 13t-57 37.5t-35 59t-12 77.5v134v147v153v49.5v49.5h19.5h19.5q3 0 5.5 -1.5
t4 -4t1.5 -5.5v-175v-174.5v-170.5q0 -67 36 -104.5t99 -37.5q47 0 91 18.5t86.5 64.5t83.5 128v-137h-41q-27 -37 -60 -64t-73 -42t-89 -15zM148 862h337q5 0 8 -3t3 -8v-19.5v-19.5h-337q-3 0 -5.5 1.5t-4 4t-1.5 5.5v19.5v19.5z" />
    <glyph glyph-name="umacron" unicode="&#x16b;" 
d="M148 526q4 0 6 -1.5t3.5 -3.5t1.5 -6v-92.5v-93v-93v-93.5q0 -54 27 -80t72 -26q24 0 47.5 7.5t47.5 23t50 39t54 56.5v-72h-25q-26 -30 -54 -53t-60 -35.5t-70 -12.5q-34 0 -60.5 11t-43.5 31t-26 45.5t-9 55.5v89.5v89.5v89v63v62h19.5h19.5zM483 526q4 0 6 -1.5
t3.5 -3.5t1.5 -6v-138v-138.5v-138.5v-43.5v-34v-22.5h-12.5h-13h-13.5q-3 0 -5.5 1.5t-4 3.5t-1.5 6v172v172v171h13.5h13h12.5zM126 740h337q5 0 8 -3t3 -8v-12.5v-13v-13.5h-337q-3 0 -5.5 1.5t-4 4t-1.5 5.5v13.5v13v12.5z" />
    <glyph glyph-name="Ubreve" unicode="&#x16c;" horiz-adv-x="650" 
d="M560 0h-12.5h-13h-13.5q-2 0 -4 0.5t-3 1.5t-2 2.5t-1.5 3t-0.5 3.5v172v172.5v172.5v172h13.5h13h12.5q3 0 5.5 -1.5t4 -4t1.5 -5.5v-147v-147.5v-147v-147.5v-50v-50zM268 -20q-45 0 -79 13t-57 37.5t-35 59t-12 77.5v134v147v153v49.5v49.5h19.5h19.5q3 0 5.5 -1.5
t4 -4t1.5 -5.5v-175v-174.5v-170.5q0 -67 36 -104.5t99 -37.5q47 0 91 18.5t86.5 64.5t83.5 128v-137h-41q-27 -37 -60 -64t-73 -42t-89 -15zM451 935h15.5h15.5q10 0 12.5 -6t-1.5 -17q-11 -33 -35 -57t-56.5 -37t-72.5 -13h-14q-39 0 -72 13t-56.5 37t-35.5 57
q-4 11 -1.5 17t12.5 6h15.5h15.5q20 -46 51 -65t78 -19t78 19t51 65z" />
    <glyph glyph-name="ubreve" unicode="&#x16d;" 
d="M148 526q4 0 6 -1.5t3.5 -3.5t1.5 -6v-92.5v-93v-93v-93.5q0 -54 27 -80t72 -26q24 0 47.5 7.5t47.5 23t50 39t54 56.5v-72h-25q-26 -30 -54 -53t-60 -35.5t-70 -12.5q-34 0 -60.5 11t-43.5 31t-26 45.5t-9 55.5v89.5v89.5v89v63v62h19.5h19.5zM483 526q4 0 6 -1.5
t3.5 -3.5t1.5 -6v-138v-138.5v-138.5v-43.5v-34v-22.5h-12.5h-13h-13.5q-3 0 -5.5 1.5t-4 3.5t-1.5 6v172v172v171h13.5h13h12.5zM300 692q53 0 86.5 29t42.5 90h15.5h15.5q10 0 13 -4t1 -18q-4 -39 -26 -71.5t-58 -52t-83 -19.5h-14q-47 0 -83 19.5t-57.5 52t-26.5 71.5
q-1 14 1.5 18t12.5 4h15.5h15.5q9 -61 42.5 -90t86.5 -29z" />
    <glyph glyph-name="Uring" unicode="&#x16e;" horiz-adv-x="650" 
d="M560 0h-12.5h-13h-13.5q-2 0 -4 0.5t-3 1.5t-2 2.5t-1.5 3t-0.5 3.5v172v172.5v172.5v172h13.5h13h12.5q3 0 5.5 -1.5t4 -4t1.5 -5.5v-147v-147.5v-147v-147.5v-50v-50zM268 -20q-45 0 -79 13t-57 37.5t-35 59t-12 77.5v134v147v153v49.5v49.5h19.5h19.5q3 0 5.5 -1.5
t4 -4t1.5 -5.5v-175v-174.5v-170.5q0 -67 36 -104.5t99 -37.5q47 0 91 18.5t86.5 64.5t83.5 128v-137h-41q-27 -37 -60 -64t-73 -42t-89 -15zM322 1020q35 0 60 -12.5t38.5 -34t13.5 -50.5v-26q0 -43 -30 -70t-82 -27t-82 27t-30 70v26q0 29 13.5 50.5t39 34t59.5 12.5z
M322 978q-30 0 -47 -15t-17 -41v-24q0 -13 4.5 -22.5t11.5 -17.5q8 -7 20.5 -11t27.5 -4q30 0 47 15t17 40v24q0 12 -3.5 21.5t-10.5 16.5q-8 9 -20.5 13.5t-29.5 4.5z" />
    <glyph glyph-name="uring" unicode="&#x16f;" 
d="M148 526q4 0 6 -1.5t3.5 -3.5t1.5 -6v-92.5v-93v-93v-93.5q0 -54 27 -80t72 -26q24 0 47.5 7.5t47.5 23t50 39t54 56.5v-72h-25q-26 -30 -54 -53t-60 -35.5t-70 -12.5q-34 0 -60.5 11t-43.5 31t-26 45.5t-9 55.5v89.5v89.5v89v63v62h19.5h19.5zM483 526q4 0 6 -1.5
t3.5 -3.5t1.5 -6v-138v-138.5v-138.5v-43.5v-34v-22.5h-12.5h-13h-13.5q-3 0 -5.5 1.5t-4 3.5t-1.5 6v172v172v171h13.5h13h12.5zM300 846q35 0 60 -12.5t38.5 -34t13.5 -50.5v-26q0 -43 -30 -70t-82 -27t-82 27t-30 70v26q0 29 13.5 50.5t39 34t59.5 12.5zM300 804
q-30 0 -47 -15t-17 -41v-24q0 -13 4.5 -22.5t11.5 -17.5q8 -7 20.5 -11t27.5 -4q30 0 47 15t17 40v24q0 12 -3.5 21.5t-10.5 16.5q-8 9 -20.5 13.5t-29.5 4.5z" />
    <glyph glyph-name="Uhungarumlaut" unicode="&#x170;" horiz-adv-x="650" 
d="M560 0h-12.5h-13h-13.5q-2 0 -4 0.5t-3 1.5t-2 2.5t-1.5 3t-0.5 3.5v172v172.5v172.5v172h13.5h13h12.5q3 0 5.5 -1.5t4 -4t1.5 -5.5v-147v-147.5v-147v-147.5v-50v-50zM268 -20q-45 0 -79 13t-57 37.5t-35 59t-12 77.5v134v147v153v49.5v49.5h19.5h19.5q3 0 5.5 -1.5
t4 -4t1.5 -5.5v-175v-174.5v-170.5q0 -67 36 -104.5t99 -37.5q47 0 91 18.5t86.5 64.5t83.5 128v-137h-41q-27 -37 -60 -64t-73 -42t-89 -15zM323 943h18.5h12h15.5q6 0 9 -5t-2 -10q-18 -22 -31 -38.5t-24.5 -31t-25.5 -32t-35 -43.5q-2 -3 -6.5 -5.5t-10.5 -2.5h-12.5h-11
h-11.5q21 30 39 56.5t36.5 53.5t39.5 58zM553 943h18.5h12h15.5q6 0 9 -5t-2 -10q-18 -22 -31 -38.5t-24.5 -31t-25.5 -32t-35 -43.5q-2 -3 -6.5 -5.5t-10.5 -2.5h-12.5h-11h-11.5q21 30 39 56.5t36.5 53.5t39.5 58z" />
    <glyph glyph-name="uhungarumlaut" unicode="&#x171;" 
d="M148 526q4 0 6 -1.5t3.5 -3.5t1.5 -6v-92.5v-93v-93v-93.5q0 -54 27 -80t72 -26q24 0 47.5 7.5t47.5 23t50 39t54 56.5v-72h-25q-26 -30 -54 -53t-60 -35.5t-70 -12.5q-34 0 -60.5 11t-43.5 31t-26 45.5t-9 55.5v89.5v89.5v89v63v62h19.5h19.5zM483 526q4 0 6 -1.5
t3.5 -3.5t1.5 -6v-138v-138.5v-138.5v-43.5v-34v-22.5h-12.5h-13h-13.5q-3 0 -5.5 1.5t-4 3.5t-1.5 6v172v172v171h13.5h13h12.5zM283 835h26.5h23.5q8 0 9.5 -6t-3.5 -12q-23 -30 -41.5 -54t-38 -48.5t-46.5 -59.5q-2 -3 -6.5 -5.5t-10.5 -2.5h-18.5h-17.5q20 30 40.5 61.5
t41.5 63.5t41 63zM483 835h26.5h23.5q8 0 9.5 -6t-3.5 -12q-23 -30 -41.5 -54t-38 -48.5t-46.5 -59.5q-2 -3 -6.5 -5.5t-10.5 -2.5h-18.5h-17.5q20 30 40.5 61.5t41.5 63.5t41 63z" />
    <glyph glyph-name="Uogonek" unicode="&#x172;" horiz-adv-x="650" 
d="M560 0h-12.5h-13h-13.5q-2 0 -4 0.5t-3 1.5t-2 2.5t-1.5 3t-0.5 3.5v172v172.5v172.5v172h13.5h13h12.5q3 0 5.5 -1.5t4 -4t1.5 -5.5v-147v-147.5v-147v-147.5v-50v-50zM268 -20q-45 0 -79 13t-57 37.5t-35 59t-12 77.5v134v147v153v49.5v49.5h19.5h19.5q3 0 5.5 -1.5
t4 -4t1.5 -5.5v-175v-174.5v-170.5q0 -67 36 -104.5t99 -37.5q47 0 91 18.5t86.5 64.5t83.5 128v-137h-41q-27 -37 -60 -64t-73 -42t-89 -15zM507 19q9 2 21.5 -2.5t31.5 -16.5q0 -4 -2 -6.5t-9 -4.5q-84 -22 -113 -55t-29 -70q0 -34 19.5 -50.5t47.5 -16.5q23 0 39 5.5
t32 17.5h12v-11.5v-12.5v-13q0 -10 -22 -21.5t-59 -11.5q-56 0 -88 28.5t-32 77.5q0 46 22.5 79.5t57 54.5t71.5 29z" />
    <glyph glyph-name="uogonek" unicode="&#x173;" 
d="M148 526q4 0 6 -1.5t3.5 -3.5t1.5 -6v-92.5v-93v-93v-93.5q0 -54 27 -80t72 -26q24 0 47.5 7.5t47.5 23t50 39t54 56.5v-72h-25q-26 -30 -54 -53t-60 -35.5t-70 -12.5q-34 0 -60.5 11t-43.5 31t-26 45.5t-9 55.5v89.5v89.5v89v63v62h19.5h19.5zM483 526q4 0 6 -1.5
t3.5 -3.5t1.5 -6v-138v-138.5v-138.5v-43.5v-34v-22.5h-12.5h-13h-13.5q-3 0 -5.5 1.5t-4 3.5t-1.5 6v172v172v171h13.5h13h12.5zM473 10q7 1 14 -7t7 -13q0 -7 -3 -10.5t-13 -6.5q-64 -19 -88.5 -55t-24.5 -77q0 -29 13.5 -42.5t38.5 -13.5q20 0 33.5 4.5t28.5 15.5h12v-11
v-15v-10q0 -13 -21.5 -22.5t-51.5 -9.5q-49 0 -76.5 27.5t-27.5 71.5q0 45 19.5 81t55 60.5t84.5 32.5z" />
    <glyph glyph-name="Wcircumflex" unicode="&#x174;" horiz-adv-x="900" 
d="M45 700h16h15.5h14.5q4 0 6.5 -1.5t4 -4.5t2.5 -7q15 -67 30 -133.5t30 -133.5t30 -134.5t30.5 -134t30.5 -133.5l-20 22h54l-24 -20q20 72 39.5 145l39 146t39.5 145.5t39 144.5h52q4 0 7.5 -2t4.5 -8q16 -58 31.5 -116.5t31 -116t31 -114.5t30.5 -113.5t29 -112.5
l-23 22h48l-13 -13q14 67 29 134t29.5 134.5t30 134.5t30.5 134.5t31 135.5h15h14h14q5 0 7.5 -2t3 -5.5t-0.5 -8.5q-13 -57 -26.5 -114t-27.5 -114.5t-27.5 -115t-27.5 -115.5t-27.5 -115.5t-27.5 -115.5h-19h-22.5h-22.5h-19q-4 0 -7.5 2.5t-5.5 8.5q-15 58 -30.5 116.5
t-33 123t-38 140.5t-45.5 169l41 -55h-62l31 54q-20 -74 -37 -137t-32 -118t-28.5 -105t-27 -99t-27.5 -100h-26h-30.5h-26.5q-4 0 -7.5 2.5t-5.5 8.5q-15 66 -30.5 132t-30 129.5t-28.5 123.5t-27 115t-24 102q-3 11 -10 39t-14 54zM422 944h12h12h12q8 0 14 -3.5t22 -17.5
q8 -7 27.5 -24.5t44.5 -39t50.5 -43.5t46.5 -40q-12 1 -22.5 0.5t-22.5 -0.5q-11 0 -16 1.5t-13 8.5q-17 14 -60.5 48.5t-104.5 82.5l54 -19h-32h-32l54 19q-61 -48 -103 -81.5t-74 -59.5h-39q-5 0 -7.5 1t-3.5 2.5t-1 3.5q0 4 4.5 8.5t20.5 18.5q13 11 34.5 29t45.5 38.5
t44.5 38.5t32.5 28z" />
    <glyph glyph-name="wcircumflex" unicode="&#x175;" horiz-adv-x="800" 
d="M368 526h54q3 0 5.5 -1t4.5 -3t3 -7q13 -44 29 -101t33.5 -119t34.5 -123.5t30 -115.5h12q17 70 32.5 131t30.5 117t29.5 110.5t29.5 111.5h13.5h13.5h13q4 0 6.5 -1t4 -4t-0.5 -9q-13 -46 -29.5 -108.5t-35 -132t-37 -139.5t-35.5 -132h-17.5h-17.5h-18.5h-18.5
q-5 0 -7.5 3.5t-4.5 12.5q-6 23 -16.5 60t-24 83t-27 95.5t-26.5 98t-24 90.5h-14q-8 -34 -17.5 -71.5t-20 -76.5l-21 -78t-21.5 -77t-21 -73.5t-19 -66.5h-23h-23.5h-24.5q-5 0 -7.5 4t-5.5 15q-7 27 -19.5 71.5t-28 99t-31.5 113.5t-32 116.5t-29 106.5h14h14.5h14.5
q4 0 6.5 -1.5t4 -3.5t2.5 -6q9 -32 24.5 -86.5t33 -120t35.5 -131.5t31 -121h12q14 57 30 119.5t33 125.5t33.5 121t30.5 104zM376 830h18h18q8 0 13.5 -4t19.5 -18q8 -9 28 -29.5t45.5 -47.5t51.5 -54t47 -49h-22h-22q-11 0 -16.5 2t-12.5 9q-16 16 -60 61t-104 106l41 -21
h-43l41 21q-61 -61 -102.5 -103.5t-73.5 -74.5h-37q-4 0 -6 1t-3 3.5t-1 4.5q0 4 4 8.5t18 19.5q13 14 34.5 36.5t46 47.5t45.5 47t32 34z" />
    <glyph glyph-name="Ycircumflex" unicode="&#x176;" horiz-adv-x="650" 
d="M345 0h-12.5h-13h-13.5q-3 0 -5.5 1.5t-4 4t-1.5 5.5v154.5v154.5h50v-72.5v-75v-72.5v-51v-49zM41 700h23h23q6 0 9 -1t5 -3.5t3 -5.5q30 -51 59 -99.5t57 -96.5t55 -96.5t54 -98.5l-24 36h40l-35 -39q32 59 59 107.5t53.5 93.5t56 94t66.5 109h22h21q3 0 5.5 -4t0.5 -9
q-23 -38 -48.5 -79.5t-51.5 -84t-52.5 -85t-52 -83.5t-48.5 -78h-21t-12.5 0.5t-7 1.5t-3.5 2q-24 38 -49.5 80t-52 85t-53 86.5t-52 86t-49.5 81.5zM297 944h12h12h12q8 0 14 -3.5t22 -17.5q8 -7 27.5 -24.5t44.5 -39t50.5 -43.5t46.5 -40q-12 1 -22.5 0.5t-22.5 -0.5
q-11 0 -16 1.5t-13 8.5q-17 14 -60.5 48.5t-104.5 82.5l54 -19h-32h-32l54 19q-61 -48 -103 -81.5t-74 -59.5h-39q-5 0 -7.5 1t-3.5 2.5t-1 3.5q0 4 4.5 8.5t20.5 18.5q13 11 34.5 29t45.5 38.5t44.5 38.5t32.5 28z" />
    <glyph glyph-name="ycircumflex" unicode="&#x177;" 
d="M534 526q5 0 10 -4t2 -12q-29 -81 -59 -163t-58.5 -161t-54 -150t-46.5 -129q-14 -39 -32.5 -62.5t-44.5 -34t-62 -10.5h-21h-23h-19h-11q-5 0 -8 2t-3 9v37h12h37.5h37.5q34 0 56 15t34 49q8 23 25 71t40.5 113.5t49.5 139.5t52.5 149t49.5 141h8.5h9h9h9.5zM92 526
q8 0 11.5 -2t6.5 -9q20 -48 44.5 -106.5t50 -119t47.5 -113.5t38 -90.5t21 -49.5h27l-14 -36h-27q-10 0 -15.5 2.5t-11 14t-16.5 36.5q-10 23 -27 62.5t-39 89t-46 105l-48 111t-46 105.5h10.5h11h11h11.5zM289 830h18h18q8 0 13.5 -4t19.5 -18q8 -9 28 -29.5t45.5 -47.5
t51.5 -54t47 -49h-22h-22q-11 0 -16.5 2t-12.5 9q-16 16 -60 61t-104 106l41 -21h-43l41 21q-61 -61 -102.5 -103.5t-73.5 -74.5h-37q-4 0 -6 1t-3 3.5t-1 4.5q0 4 4 8.5t18 19.5q13 14 34.5 36.5t46 47.5t45.5 47t32 34z" />
    <glyph glyph-name="Ydieresis" unicode="&#x178;" horiz-adv-x="650" 
d="M345 0h-12.5h-13h-13.5q-3 0 -5.5 1.5t-4 4t-1.5 5.5v154.5v154.5h50v-72.5v-75v-72.5v-51v-49zM41 700h23h23q6 0 9 -1t5 -3.5t3 -5.5q30 -51 59 -99.5t57 -96.5t55 -96.5t54 -98.5l-24 36h40l-35 -39q32 59 59 107.5t53.5 93.5t56 94t66.5 109h22h21q3 0 5.5 -4t0.5 -9
q-23 -38 -48.5 -79.5t-51.5 -84t-52.5 -85t-52 -83.5t-48.5 -78h-21t-12.5 0.5t-7 1.5t-3.5 2q-24 38 -49.5 80t-52 85t-53 86.5t-52 86t-49.5 81.5zM183 888h34.5h34.5q4 0 6 -1.5t3.5 -3.5t1.5 -6v-69h-34.5h-34.5q-3 0 -5.5 1.5t-4 4t-1.5 5.5v69zM383 888h34.5h34.5
q4 0 6 -1.5t3.5 -3.5t1.5 -6v-69h-34.5h-34.5q-3 0 -5.5 1.5t-4 4t-1.5 5.5v69z" />
    <glyph glyph-name="Zacute" unicode="&#x179;" 
d="M540 0h-469q-5 0 -8 3t-3 8v46q42 60 85 119.5t89.5 124t99.5 139.5q28 40 47.5 67.5t34.5 48t29.5 39t32 38.5t42.5 47l-35 -59v55l23 -23h-144h-118.5h-107.5h-24q-7 0 -12.5 1.5t-9.5 6t-7 14t-5 25.5h449q4 0 6 -1.5t3.5 -3.5t1.5 -6v-46q-5 -8 -34 -48t-76 -106.5
t-109 -155.5q-38 -55 -64.5 -92.5t-45 -63.5t-35 -47.5t-35.5 -44t-45 -53.5l22 41v-54l-18 28h145h119h108h57q5 0 8 -3t3 -8v-18v-18zM130 550h-19.5h-19.5q-3 0 -5.5 1.5t-4 4t-1.5 5.5v34.5v35v35v34.5q20 0 31 -3t15 -9.5t4 -18.5v-39v-40v-40zM391 943h18.5h12h15.5
q6 0 9 -5t-2 -10q-18 -22 -31 -38.5t-24.5 -31t-25.5 -32t-35 -43.5q-2 -3 -6.5 -5.5t-10.5 -2.5h-12.5h-11h-11.5q21 30 39 56.5t36.5 53.5t39.5 58z" />
    <glyph glyph-name="zacute" unicode="&#x17a;" horiz-adv-x="550" 
d="M82 526h375q4 0 6 -1.5t3.5 -3.5t1.5 -6v-46q-28 -36 -57 -73t-58.5 -74t-59 -73.5t-58.5 -72t-58 -70.5q-12 -14 -23 -25.5t-24 -22.5v-11h40.5h40.5h246q5 0 8 -3t3 -8v-18v-18h-375q-3 0 -5.5 1.5t-4 3.5t-1.5 6v56q43 52 86.5 105.5t86.5 106.5t84 105q18 23 35 43
t36 40v12h-55.5h-55.5h-206q-3 0 -5.5 1.5t-4 4t-1.5 5.5v18v18zM375 835h26.5h23.5q8 0 9.5 -6t-3.5 -12q-23 -30 -41.5 -54t-38 -48.5t-46.5 -59.5q-2 -3 -6.5 -5.5t-10.5 -2.5h-18.5h-17.5q20 30 40.5 61.5t41.5 63.5t41 63z" />
    <glyph glyph-name="Zdotaccent" unicode="&#x17b;" 
d="M540 0h-469q-5 0 -8 3t-3 8v46q42 60 85 119.5t89.5 124t99.5 139.5q28 40 47.5 67.5t34.5 48t29.5 39t32 38.5t42.5 47l-35 -59v55l23 -23h-144h-118.5h-107.5h-24q-7 0 -12.5 1.5t-9.5 6t-7 14t-5 25.5h449q4 0 6 -1.5t3.5 -3.5t1.5 -6v-46q-5 -8 -34 -48t-76 -106.5
t-109 -155.5q-38 -55 -64.5 -92.5t-45 -63.5t-35 -47.5t-35.5 -44t-45 -53.5l22 41v-54l-18 28h145h119h108h57q5 0 8 -3t3 -8v-18v-18zM130 550h-19.5h-19.5q-3 0 -5.5 1.5t-4 4t-1.5 5.5v34.5v35v35v34.5q20 0 31 -3t15 -9.5t4 -18.5v-39v-40v-40zM260 888h17.5h17h17
h17.5q5 0 8 -3t3 -8v-69h-17.5h-17h-17h-17.5q-5 0 -8 3t-3 8v69z" />
    <glyph glyph-name="zdotaccent" unicode="&#x17c;" horiz-adv-x="550" 
d="M82 526h375q4 0 6 -1.5t3.5 -3.5t1.5 -6v-46q-28 -36 -57 -73t-58.5 -74t-59 -73.5t-58.5 -72t-58 -70.5q-12 -14 -23 -25.5t-24 -22.5v-11h40.5h40.5h246q5 0 8 -3t3 -8v-18v-18h-375q-3 0 -5.5 1.5t-4 3.5t-1.5 6v56q43 52 86.5 105.5t86.5 106.5t84 105q18 23 35 43
t36 40v12h-55.5h-55.5h-206q-3 0 -5.5 1.5t-4 4t-1.5 5.5v18v18zM235 756h17.5h17h17h17.5q5 0 8 -3t3 -8v-69h-17.5h-17h-17h-17.5q-5 0 -8 3t-3 8v69z" />
    <glyph glyph-name="Zcaron" unicode="&#x17d;" 
d="M540 0h-469q-5 0 -8 3t-3 8v46q42 60 85 119.5t89.5 124t99.5 139.5q28 40 47.5 67.5t34.5 48t29.5 39t32 38.5t42.5 47l-35 -59v55l23 -23h-144h-118.5h-107.5h-24q-7 0 -12.5 1.5t-9.5 6t-7 14t-5 25.5h449q4 0 6 -1.5t3.5 -3.5t1.5 -6v-46q-5 -8 -34 -48t-76 -106.5
t-109 -155.5q-38 -55 -64.5 -92.5t-45 -63.5t-35 -47.5t-35.5 -44t-45 -53.5l22 41v-54l-18 28h145h119h108h57q5 0 8 -3t3 -8v-18v-18zM130 550h-19.5h-19.5q-3 0 -5.5 1.5t-4 4t-1.5 5.5v34.5v35v35v34.5q20 0 31 -3t15 -9.5t4 -18.5v-39v-40v-40zM325 776h-12h-12h-12
q-8 0 -14 3.5t-22 17.5q-8 7 -27.5 24.5t-44.5 39t-50.5 43.5t-46.5 40q12 -1 22.5 -0.5t22.5 0.5q11 0 16 -1.5t13 -8.5q17 -14 60.5 -48.5t104.5 -82.5l-54 19h32h32l-54 -19q61 48 103 81.5t74 59.5h39q5 0 7.5 -1t3.5 -2.5t1 -3.5q0 -4 -4.5 -8.5t-20.5 -18.5
q-13 -11 -34.5 -29t-45.5 -38.5t-44.5 -38.5t-32.5 -28z" />
    <glyph glyph-name="zcaron" unicode="&#x17e;" horiz-adv-x="550" 
d="M82 526h375q4 0 6 -1.5t3.5 -3.5t1.5 -6v-46q-28 -36 -57 -73t-58.5 -74t-59 -73.5t-58.5 -72t-58 -70.5q-12 -14 -23 -25.5t-24 -22.5v-11h40.5h40.5h246q5 0 8 -3t3 -8v-18v-18h-375q-3 0 -5.5 1.5t-4 3.5t-1.5 6v56q43 52 86.5 105.5t86.5 106.5t84 105q18 23 35 43
t36 40v12h-55.5h-55.5h-206q-3 0 -5.5 1.5t-4 4t-1.5 5.5v18v18zM299 629h-18h-18q-8 0 -13.5 4t-19.5 18q-8 9 -28 29.5t-45.5 47.5t-51.5 54t-47 49h22h22q11 0 16.5 -2t12.5 -9q16 -16 60 -61t104 -106l-41 21h43l-41 -21q61 61 102.5 103.5t73.5 74.5h37q4 0 6 -1
t3 -3.5t1 -4.5q0 -4 -4 -8.5t-18 -19.5q-13 -14 -34.5 -36.5t-46 -47.5t-45.5 -47t-32 -34z" />
    <glyph glyph-name="uni018F" unicode="&#x18f;" 
d="M277 720q85 0 142 -28.5t86.5 -84t29.5 -137.5v-218q0 -75 -21 -125.5t-56 -80.5t-79 -43t-91 -13q-69 0 -118.5 28t-75.5 82t-26 131v149q0 4 1 6t3.5 3.5t6.5 1.5h312h50h50l22 4v-51h-197.5h-197.5v-97q0 -60 12 -101.5t37 -67.5q21 -21 52 -31t74 -10q59 0 102 22.5
t66.5 70.5t23.5 125v213q0 34 -5.5 62.5t-17 51t-28.5 39.5q-27 26 -67.5 39t-95.5 13q-34 0 -61.5 -5t-52.5 -17t-53 -33h-12v17v17q0 2 1 4.5t2 3.5q19 19 47 32t62.5 20.5t72.5 7.5z" />
    <glyph glyph-name="uni0192" unicode="&#x192;" 
d="M110 450h387q4 0 6 -1.5t3.5 -3.5t1.5 -6v-10.5v-10.5v-11h-387q-3 0 -5.5 1.5t-4 4t-1.5 5.5v11v10.5v10.5zM139 -204q33 0 55.5 8.5t34.5 31.5t15 68q4 58 8.5 128.5t10 145.5t10 146t8.5 131t7 100q4 55 22.5 91.5t53 55t84.5 18.5q40 0 66 -7.5t33 -14.5
q2 -1 2.5 -3.5t0.5 -4.5v-9v-10v-9.5v-7.5h-12q-11 6 -24.5 10.5t-30 7t-39.5 2.5q-26 0 -46 -7.5t-34 -21.5q-6 -7 -11 -15.5t-9 -18.5t-6 -21.5t-3 -25.5q-2 -35 -5.5 -88t-8 -119t-9 -141t-9.5 -154.5t-10 -157.5q-3 -57 -21.5 -91t-51.5 -48.5t-82 -14.5q-31 0 -54.5 6
t-37.5 15q-4 2 -5 4.5t-1 6.5v12.5v9.5v12h12q18 -10 38.5 -15t48.5 -5z" />
    <glyph glyph-name="uni019D" unicode="&#x19d;" horiz-adv-x="650" 
d="M11 -93q35 0 52 22t17 75v9q15 0 25 -1t15.5 -2.5t7.5 -4t2 -5.5v-2q0 -39 -12.5 -70t-38.5 -49t-66 -18h-5q-21 0 -38 7.5t-26 16.5q-1 2 -2 3.5t-1 4.5v18v18h12q16 -10 29 -16t29 -6zM130 0h-19.5h-19.5q-3 0 -5.5 1.5t-4 4t-1.5 5.5v137.5v137v137v137.5v70v70h26
h29.5h25.5q4 0 7 -1t5 -3t4 -6q11 -21 32 -63t50 -98t62.5 -121.5t69 -133.5t69.5 -134t63 -123l-39 35h56l-15 -25q-2 50 -3 101t-1.5 103t-0.5 104v103v100v81.5v80.5h19.5h19.5q5 0 8 -3t3 -8v-130v-130.5v-130.5v-130v-84v-84h-25.5h-31h-25.5q-6 0 -9.5 2.5t-7.5 9.5
q-33 64 -74 143.5t-87 167.5t-93 179t-92 177l34 -39h-47l13 40q2 -57 2.5 -111.5t1 -107.5t1 -104t0.5 -100v-97q-1 -32 -0.5 -76t0.5 -84z" />
    <glyph glyph-name="Ohorn" unicode="&#x1a0;" horiz-adv-x="650" 
d="M326 720q71 0 127 -28.5t89 -88t33 -152.5v-210q0 -92 -35 -149.5t-92.5 -84.5t-123.5 -27t-122.5 27t-91.5 85t-35 150v209q0 93 32 152.5t88.5 88t130.5 28.5zM125 236q0 -54 17 -93.5t43 -65.5q22 -21 54.5 -35.5t84.5 -14.5q58 0 103 25t71.5 73t26.5 116v218
q0 39 -8 70t-22 55t-32 41q-22 21 -57.5 34.5t-79.5 13.5q-71 0 -115.5 -27.5t-65 -75.5t-20.5 -111v-223zM498 822h20.5h15.5q9 0 12.5 -4t3.5 -12v-20.5v-36.5q0 -19 -2 -31.5t-7.5 -22t-18.5 -20.5q-13 -12 -28.5 -26t-32.5 -28v13.5v13v14.5v17l10.5 10.5t13.5 15.5
q8 8 10.5 15.5t2.5 24.5v36v41z" />
    <glyph glyph-name="ohorn" unicode="&#x1a1;" 
d="M300 536q49 0 88.5 -15.5t68 -43.5t43.5 -66t15 -83v-121q0 -64 -29 -113t-78 -76.5t-108 -27.5q-49 0 -88.5 15.5t-68 43.5t-43.5 66t-15 83v121q0 65 29 113.5t78 76t108 27.5zM309 488q-57 0 -95.5 -23.5t-58.5 -61.5t-20 -84v-114q0 -37 12.5 -68.5t34.5 -53.5
q20 -21 48 -33t61 -12q57 0 96 24.5t58.5 63t19.5 81.5v114q0 39 -12 70.5t-34 53.5q-20 20 -48 31.5t-62 11.5zM471 650h14.5h11.5h10q9 0 12.5 -4t3.5 -12v-27v-43q0 -29 -4.5 -43t-23.5 -31q-9 -8 -19 -17t-20.5 -18t-21.5 -19v13.5v13v14.5v17l10.5 10.5t13.5 15.5
q8 8 10.5 15.5t2.5 24.5v42.5v47.5z" />
    <glyph glyph-name="Uhorn" unicode="&#x1af;" horiz-adv-x="650" 
d="M560 0h-12.5h-13h-13.5q-2 0 -4 0.5t-3 1.5t-2 2.5t-1.5 3t-0.5 3.5v172v172.5v172.5v172h13.5h13h12.5q3 0 5.5 -1.5t4 -4t1.5 -5.5v-147v-147.5v-147v-147.5v-50v-50zM268 -20q-45 0 -79 13t-57 37.5t-35 59t-12 77.5v134v147v153v49.5v49.5h19.5h19.5q3 0 5.5 -1.5
t4 -4t1.5 -5.5v-175v-174.5v-170.5q0 -67 36 -104.5t99 -37.5q47 0 91 18.5t86.5 64.5t83.5 128v-137h-41q-27 -37 -60 -64t-73 -42t-89 -15zM576 843h20.5h15.5q9 0 12.5 -4t3.5 -12v-20.5v-36.5q0 -19 -2 -31.5t-7.5 -22t-18.5 -20.5q-13 -12 -28.5 -26t-32.5 -28v13.5v13
v14.5v17l10.5 10.5t13.5 15.5q8 8 10.5 15.5t2.5 24.5v36v41z" />
    <glyph glyph-name="uhorn" unicode="&#x1b0;" 
d="M148 526q4 0 6 -1.5t3.5 -3.5t1.5 -6v-92.5v-93v-93v-93.5q0 -54 27 -80t72 -26q24 0 47.5 7.5t47.5 23t50 39t54 56.5v-72h-25q-26 -30 -54 -53t-60 -35.5t-70 -12.5q-34 0 -60.5 11t-43.5 31t-26 45.5t-9 55.5v89.5v89.5v89v63v62h19.5h19.5zM483 526q4 0 6 -1.5
t3.5 -3.5t1.5 -6v-138v-138.5v-138.5v-43.5v-34v-22.5h-12.5h-13h-13.5q-3 0 -5.5 1.5t-4 3.5t-1.5 6v172v172v171h13.5h13h12.5zM507 682h14.5h11.5h10q9 0 12.5 -4t3.5 -12v-27v-43q0 -29 -4.5 -43t-23.5 -31q-9 -8 -19 -17t-20.5 -18t-21.5 -19v13.5v13v14.5v17
l10.5 10.5t13.5 15.5q8 8 10.5 15.5t2.5 24.5v42.5v47.5z" />
    <glyph glyph-name="uni01C4" unicode="&#x1c4;" horiz-adv-x="1250" 
d="M342 700q61 0 109.5 -14t83 -43t52.5 -75.5t18 -112.5v-210q0 -66 -20 -112.5t-57 -75.5t-86.5 -43t-109.5 -14h-46.5h-40.5h-37h-34.5h-32.5q-4 0 -7.5 3.5t-3.5 7.5v167.5v167v167v167.5h59l-7 -11v-56v-57v-126.5v-127.5v-127.5v-127.5h41h46.5h59.5q58 0 100.5 11.5
t70.5 36t41.5 63t13.5 91.5v202q0 38 -6 67.5t-18.5 52.5t-32.5 39q-21 17 -45 26.5t-56 13t-76 3.5h-70h-63.5h-59h-57.5q-3 0 -5.5 1.5t-4 4t-1.5 5.5v18v18h61h64.5h72h84.5zM1158 1h-469q-5 0 -8 3t-3 8v46q42 60 85 119.5t89.5 124t99.5 139.5q28 40 47.5 67.5t34.5 48
t29.5 39t32 38.5t42.5 47l-35 -59v55l23 -23h-90h-79h-71h-66h-64h-24q-7 0 -12.5 1.5t-9.5 6t-7 14t-5 25.5h449q4 0 6 -1.5t3.5 -3.5t1.5 -6v-46q-5 -8 -34 -48t-76 -106.5t-109 -155.5q-38 -55 -64.5 -92.5t-45 -63.5t-35 -47.5t-35.5 -44t-45 -53.5l22 41v-54l-18 28
h90.5h79.5h71.5h66.5h64h57q5 0 8 -3t3 -8v-18v-18zM748 551h-19.5h-19.5q-3 0 -5.5 1.5t-4 4t-1.5 5.5v34.5v35v35v34.5q20 0 31 -3t15 -9.5t4 -18.5v-39v-40v-40zM943 777h-12h-12h-12q-7 0 -13 4t-23 17q-8 8 -27.5 25t-44.5 38.5t-50.5 43.5t-46.5 40q12 -1 22.5 -0.5
t22.5 0.5q11 0 16 -1.5t13 -8.5q17 -13 60.5 -48t104.5 -83l-54 19h32h32l-54 -19q62 48 104 82t73 59h39q5 0 7.5 -1t3.5 -2.5t1 -3.5q0 -4 -4 -8.5t-21 -18.5q-13 -11 -34.5 -29t-45.5 -38.5t-44.5 -38.5t-32.5 -28z" />
    <glyph glyph-name="uni01C5" unicode="&#x1c5;" horiz-adv-x="1250" 
d="M362 700q61 0 109.5 -14t83 -43t52.5 -75.5t18 -112.5v-210q0 -66 -20 -112.5t-57 -75.5t-86.5 -43t-109.5 -14h-46.5h-40.5h-37h-34.5h-32.5q-4 0 -7.5 3.5t-3.5 7.5v167.5v167v167v167.5h59l-7 -11v-56v-57v-126.5v-127.5v-127.5v-127.5h41h46.5h59.5q58 0 100.5 11.5
t70.5 36t41.5 63t13.5 91.5v202q0 38 -6 67.5t-18.5 52.5t-32.5 39q-21 17 -45 26.5t-56 13t-76 3.5h-70h-63.5h-59h-57.5q-3 0 -5.5 1.5t-4 4t-1.5 5.5v18v18h61h64.5h72h84.5zM742 526h375q4 0 6 -1.5t3.5 -3.5t1.5 -6v-46q-35 -45 -71.5 -91.5t-73.5 -92.5t-73.5 -91
t-72.5 -88q-12 -14 -23 -25.5t-24 -22.5v-11h327q5 0 8 -3t3 -8v-18v-18h-375q-3 0 -5.5 1.5t-4 3.5t-1.5 6v56q43 52 86.5 105.5t86.5 106.5t84 105q18 23 35 43t36 40v12h-317q-3 0 -5.5 1.5t-4 4t-1.5 5.5v18v18zM959 629h-12h-12h-12q-7 0 -13 4t-20 18q-8 9 -28 29.5
t-45.5 47.5t-51.5 54t-47 49h15h14h15q11 0 16.5 -2t12.5 -9q16 -16 60 -60.5t104 -106.5l-41 21h43l-41 -21q62 62 103 104t73 74h37q4 0 6 -1t3 -3t1 -5q0 -4 -4 -8.5t-18 -19.5q-13 -13 -34.5 -36t-46 -48t-45.5 -47t-32 -34z" />
    <glyph glyph-name="uni01C6" unicode="&#x1c6;" horiz-adv-x="1150" 
d="M290 536q37 0 66.5 -10.5t54.5 -31t46 -51.5h27v-99q-29 51 -59 83t-62.5 47t-67.5 15q-32 0 -58 -11t-44.5 -32t-28.5 -52t-10 -71v-130q0 -39 11 -69t30 -50q18 -18 43.5 -27.5t56.5 -9.5q35 0 67.5 13.5t63 44.5t58.5 81v-92h-27q-20 -30 -45.5 -51t-56.5 -32t-69 -11
q-39 0 -72.5 13.5t-58 39t-38 61.5t-13.5 82v144q0 48 13.5 86t38.5 65t59 41t75 14zM508 750q4 0 6 -1.5t3.5 -3.5t1.5 -6v-164v-167v-161.5v-146.5v-58.5v-41.5h-10h-9.5h-9.5h-10q-3 0 -5.5 1.5t-4 3.5t-1.5 6v160v159.5v159.5v160v49v51h10h9.5h9.5h10zM652 526h375
q4 0 6 -1.5t3.5 -3.5t1.5 -6v-46q-35 -45 -71.5 -91.5t-73.5 -92.5t-73.5 -91t-72.5 -88q-12 -14 -23 -25.5t-24 -22.5v-11h327q5 0 8 -3t3 -8v-18v-18h-375q-3 0 -5.5 1.5t-4 3.5t-1.5 6v56q43 52 86.5 105.5t86.5 106.5t84 105q18 23 35 43t36 40v12h-317q-3 0 -5.5 1.5
t-4 4t-1.5 5.5v18v18zM869 629h-12h-12h-12q-7 0 -13 4t-20 18q-8 9 -28 29.5t-45.5 47.5t-51.5 54t-47 49h15h14h15q11 0 16.5 -2t12.5 -9q16 -16 60 -60.5t104 -106.5l-41 21h43l-41 -21q62 62 103 104t73 74h37q4 0 6 -1t3 -3t1 -5q0 -4 -4 -8.5t-18 -19.5
q-13 -13 -34.5 -36t-46 -48t-45.5 -47t-32 -34z" />
    <glyph glyph-name="uni01C7" unicode="&#x1c7;" horiz-adv-x="850" 
d="M101 0q-3 0 -5 0.5t-3.5 2t-2 3.5t-0.5 5v115.5v116v111.5v101v84v61v50v50h13.5h13h12.5q4 0 6 -1.5t3.5 -3.5t1.5 -6v-106.5v-107v-107v-107v-107v-107.5h319q7 0 12.5 -4.5t9.5 -12t6.5 -15.5t2.5 -15h-389zM440 185h13.5h13h12.5q4 0 6 -1.5t3.5 -3.5t1.5 -6v-40.5
v-46.5v-46.5v-40.5q-20 0 -31 3t-15 10t-4 18v49v56v49zM551 -83q52 31 86.5 73.5t52.5 101t18 135.5v58.5v86v102.5v108v101l8 -35l-19 16l39 -11h-53.5h-46.5h-37.5h-28.5q-5 0 -8 3t-3 8v18v18h33.5h43.5h52h59q4 0 6 -1.5t3.5 -3.5t1.5 -6v-95v-93v-90.5v-86.5v-82
q0 -84 -13.5 -143t-37.5 -98.5t-56 -67.5q-10 -9 -19 -12.5t-19 -3.5h-20.5h-19.5h-22z" />
    <glyph glyph-name="uni01C8" unicode="&#x1c8;" horiz-adv-x="850" 
d="M101 0q-3 0 -5 0.5t-3.5 2t-2 3.5t-0.5 5v115.5v116v111.5v101v84v61v50v50h13.5h13h12.5q4 0 6 -1.5t3.5 -3.5t1.5 -6v-106.5v-107v-107v-107v-107v-107.5h319q7 0 12.5 -4.5t9.5 -12t6.5 -15.5t2.5 -15h-389zM440 185h13.5h13h12.5q4 0 6 -1.5t3.5 -3.5t1.5 -6v-40.5
v-46.5v-46.5v-40.5q-20 0 -31 3t-15 10t-4 18v49v56v49zM734 526q4 0 6.5 -1.5t3.5 -4t1 -5.5v-122.5v-123v-123v-123v-123.5q0 -34 -8.5 -61.5t-25.5 -47.5t-43.5 -30.5t-62.5 -10.5q-34 0 -59 8.5t-33 15.5q-1 2 -2 3.5t-1 4.5v18v18h12q22 -11 40 -16t46 -5q21 0 37 6
t27 18q8 9 13 20.5t7.5 26t2.5 32.5v144.5v145v145v144.5h-11h-30.5h-31h-31h-30.5q-4 0 -7.5 3.5t-3.5 7.5v18v18h46h46h46h46zM680 756h17.5h17h17h17.5q5 0 8 -3t3 -8v-69h-17.5h-17h-17h-17.5q-3 0 -5.5 1.5t-4 4t-1.5 5.5v69z" />
    <glyph glyph-name="uni01C9" unicode="&#x1c9;" horiz-adv-x="700" 
d="M90 750h21.5h26.5h26.5h21.5h13t6 -1.5t3.5 -3.5t1.5 -6v-100v-135v-146v-135v-100q0 -25 2.5 -38.5t12.5 -23.5t26.5 -12t34.5 -2h8h7h5h12v-18v-18q0 -4 -1.5 -6t-3.5 -3.5t-6 -1.5h-8.5h-12.5h-17q-37 0 -61 11.5t-36 35.5t-12 61v102.5v132v140v127.5v93h-11h-14
h-19.5h-14.5t-8 3t-3 8v18v18zM564 526q4 0 6.5 -1.5t3.5 -4t1 -5.5v-122.5v-123v-123v-123v-123.5q0 -34 -8.5 -61.5t-25.5 -47.5t-43.5 -30.5t-62.5 -10.5q-34 0 -59 8.5t-33 15.5q-1 2 -2 3.5t-1 4.5v18v18h12q22 -11 40 -16t46 -5q21 0 37 6t27 18q8 9 13 20.5t7.5 26
t2.5 32.5v144.5v145v145v144.5h-11h-30.5h-31h-31h-30.5q-4 0 -7.5 3.5t-3.5 7.5v18v18h46h46h46h46zM510 756h17.5h17h17h17.5q5 0 8 -3t3 -8v-69h-17.5h-17h-17h-17.5q-3 0 -5.5 1.5t-4 4t-1.5 5.5v69z" />
    <glyph glyph-name="uni01CA" unicode="&#x1ca;" horiz-adv-x="950" 
d="M130 0h-12.5h-13h-13.5q-3 0 -5.5 1.5t-4 4t-1.5 5.5v137.5v137v137v137.5v70v70h18.5h22h22h18.5q4 0 7 -1t5 -3t4 -6q18 -34 42 -81t53 -103t60.5 -118t64.5 -125.5t65 -126t61 -119.5l-39 35h56l-15 -25q-2 50 -3 101t-1.5 103t-0.5 104v103v100v32.5v32.5v32v32.5
v32.5h13.5h13h12.5q5 0 8 -3t3 -8v-86.5v-87v-87v-87v-87v-86.5v-84v-84h-18h-23h-22.5h-18.5q-6 0 -9 1.5t-5 5.5q-40 78 -82.5 160t-87 167.5t-89.5 172t-90 172.5l34 -39h-47l13 40q2 -71 3 -138.5t1.5 -132.5t0.5 -127v-122q-1 -32 -0.5 -76t0.5 -84zM664 -83
q53 31 87 73t50.5 98t16.5 128v81v92v97.5v99.5v97l10 -35l-19 16l39 -11h-73h-62h-43q-5 0 -8 3t-3 8v18v18h35.5h47.5h56h61q4 0 6 -1.5t3.5 -3.5t1.5 -6v-91.5v-86.5v-88.5v-96v-110.5q0 -75 -14.5 -130.5t-39 -94t-54.5 -61.5q-10 -8 -18 -10.5t-18 -2.5h-20.5h-19.5
h-22z" />
    </font>
</defs>
</svg>
